<?xml version="1.0" encoding="UTF-8" standalone="no"?>
<!-- Generator: Adobe Illustrator 21.0.0, SVG Export Plug-In . SVG Version: 6.00 Build 0)  -->

<svg
   xmlns:dc="http://purl.org/dc/elements/1.1/"
   xmlns:cc="http://creativecommons.org/ns#"
   xmlns:rdf="http://www.w3.org/1999/02/22-rdf-syntax-ns#"
   xmlns:svg="http://www.w3.org/2000/svg"
   xmlns="http://www.w3.org/2000/svg"
   xmlns:sodipodi="http://sodipodi.sourceforge.net/DTD/sodipodi-0.dtd"
   xmlns:inkscape="http://www.inkscape.org/namespaces/inkscape"
   version="1.1"
   id="Layer_1"
   x="0px"
   y="0px"
   viewBox="0 0 300.00001 80"
   xml:space="preserve"
   sodipodi:docname="crystal.svg"
   width="300"
   height="80"
   inkscape:version="0.92.3 (2405546, 2018-03-11)"><metadata
   id="metadata15"><rdf:RDF><cc:Work
       rdf:about=""><dc:format>image/svg+xml</dc:format><dc:type
         rdf:resource="http://purl.org/dc/dcmitype/StillImage" /><dc:title></dc:title></cc:Work></rdf:RDF></metadata><defs
   id="defs13" /><sodipodi:namedview
   pagecolor="#ffffff"
   bordercolor="#666666"
   borderopacity="1"
   objecttolerance="10"
   gridtolerance="10"
   guidetolerance="10"
   inkscape:pageopacity="0"
   inkscape:pageshadow="2"
   inkscape:window-width="1837"
   inkscape:window-height="1018"
   id="namedview11"
   showgrid="false"
   inkscape:zoom="1.3748531"
   inkscape:cx="170.2"
   inkscape:cy="68.849998"
   inkscape:window-x="83"
   inkscape:window-y="34"
   inkscape:window-maximized="1"
   inkscape:current-layer="Layer_1" />
<style
   type="text/css"
   id="style2">
	.st0{fill:none;}
</style>
<g
   id="g8"
   transform="translate(-18.911111,-28.605981)">
	<path
   d="m 138.5,88.9 0.6,4.7 c -2.8,0.9 -6.3,1.3 -10.6,1.3 -5.2,0 -8.8,-1.3 -10.9,-4 -2.1,-2.7 -3.2,-7.3 -3.2,-13.8 0,-6.5 1,-11.2 3.2,-13.8 2.1,-2.7 5.7,-4 10.9,-4 3.8,0 7.1,0.4 9.9,1.1 l -0.6,4.8 c -2.9,-0.2 -6,-0.3 -9.3,-0.3 -2.9,0 -4.8,0.9 -5.9,2.6 -1,1.8 -1.6,5 -1.6,9.7 0,4.7 0.5,8 1.6,9.7 1.1,1.8 3,2.6 5.9,2.6 4.2,-0.1 7.6,-0.3 10,-0.6 z m 28.7,-5.4 3.1,10.8 h -6.7 l -2.8,-10.7 c -0.6,-2.1 -2,-3.1 -4,-3.1 h -6.2 v 13.8 h -6.2 V 59.8 c 3,-0.3 7.2,-0.4 12.6,-0.4 4.4,0 7.5,0.7 9.3,2.2 1.8,1.5 2.7,4.1 2.7,7.9 0,2.7 -0.5,4.7 -1.5,6.1 -1,1.4 -2.7,2.3 -5,2.6 v 0.3 c 1,0.2 1.9,0.8 2.8,1.6 1,0.7 1.6,1.9 1.9,3.4 z m -5.7,-9.4 c 0.8,-0.8 1.2,-2.2 1.2,-4.3 0,-2.1 -0.4,-3.5 -1.2,-4.3 -0.8,-0.7 -2.3,-1.1 -4.6,-1.1 h -6.2 v 10.9 h 6.2 c 2.3,0 3.8,-0.4 4.6,-1.2 z m 96.2,-14.3 h -27.5 v 5.3 h 10.5 V 94.3 H 247 V 65.1 h 10.7 z m 19.4,1.6 10.4,32.8 H 281 l -2.8,-9.8 h -12.8 l -2.8,9.8 h -6.4 l 10.3,-32.8 c 0.3,-1.1 1.1,-1.7 2.3,-1.7 h 6.1 c 1.1,0.1 1.9,0.6 2.2,1.7 z m -0.4,18 -3.5,-11.9 c -0.5,-1.8 -0.7,-2.8 -0.8,-2.9 h -1.3 l -0.8,2.9 -3.4,11.9 z m 35.9,9.7 h -12 c -1.1,0 -1.9,-0.2 -2.3,-0.6 -0.4,-0.4 -0.7,-1.2 -0.7,-2.2 V 59.8 h -6.3 v 27.4 c 0,4.8 2.6,7.2 7.8,7.2 5.9,0 10.4,-0.2 13.7,-0.4 z M 187.8,73.2 c -0.2,0.5 -0.7,1.9 -1.4,4.2 H 186 c -0.7,-2.2 -1.2,-3.6 -1.4,-4.2 l -6.3,-13.4 h -6.6 L 183,82.6 v 11.8 h 6.3 V 82.6 l 11.3,-22.8 h -6.5 z m 32,2 -6.6,-2.1 c -1.5,-0.5 -2.5,-1 -3,-1.6 -0.6,-0.6 -0.8,-1.6 -0.8,-3 0,-1.7 0.4,-2.8 1.2,-3.3 0.8,-0.4 2.3,-0.7 4.6,-0.7 3,0 6.5,0.1 10.3,0.2 l 0.4,-4.4 c -3,-0.8 -6.6,-1.2 -10.8,-1.2 -4.4,0 -7.5,0.6 -9.2,1.8 -1.8,1.2 -2.6,3.7 -2.6,7.5 0,2.6 0.5,4.8 1.6,6.4 1.1,1.6 2.8,2.8 5.3,3.6 l 7,2.2 c 1.4,0.4 2.4,0.9 2.9,1.5 0.5,0.6 0.8,1.6 0.8,3.1 0,1.7 -0.4,2.9 -1.1,3.4 -0.8,0.5 -2.3,0.8 -4.6,0.8 -1.5,0 -5.1,-0.1 -10.9,-0.2 l -0.4,4.6 c 3.7,0.7 7.4,1.1 11.2,1.1 4.6,0 7.8,-0.7 9.5,-2 1.8,-1.3 2.7,-3.9 2.7,-7.7 0,-2.6 -0.5,-4.8 -1.6,-6.4 -1.4,-1.6 -3.2,-2.8 -5.9,-3.6 z M 96.4,78 87.3,44 c 0,-0.1 -0.1,-0.2 -0.3,-0.3 L 52.9,34.6 c -0.1,0 -0.3,0 -0.4,0.1 l -25,24.9 c -0.1,0.1 -0.1,0.2 -0.1,0.4 l 9.1,34 c 0,0.1 0.1,0.2 0.3,0.3 l 34.1,9.1 c 0.1,0 0.3,0 0.4,-0.1 l 25,-24.9 c 0.1,-0.2 0.2,-0.3 0.1,-0.4 z M 63,51.3 54,84.7 c 0,0.1 -0.1,0.1 -0.2,0 L 29.4,60.3 c -0.1,-0.1 0,-0.1 0,-0.2 l 33.5,-9 c 0,0.1 0.1,0.1 0.1,0.2 z"
   id="path4"
   inkscape:connector-curvature="0" />
	<rect
   class="st0"
   width="340.39999"
   height="137.7"
   id="rect6"
   x="0"
   y="0"
   style="fill:none" />
</g>
</svg>