<?xml version="1.0" encoding="UTF-8" standalone="no"?>
<svg xmlns:dc="http://purl.org/dc/elements/1.1/" xmlns:cc="http://creativecommons.org/ns#" xmlns:rdf="http://www.w3.org/1999/02/22-rdf-syntax-ns#" xmlns:svg="http://www.w3.org/2000/svg" xmlns="http://www.w3.org/2000/svg" xmlns:sodipodi="http://sodipodi.sourceforge.net/DTD/sodipodi-0.dtd" xmlns:inkscape="http://www.inkscape.org/namespaces/inkscape" width="383.89999" height="746.89508" version="1.1" viewBox="0 0 383.90149 746.89509" xml:space="preserve" id="svg96" sodipodi:docname="meltdown shirt.svg" inkscape:version="0.92.1 r15371" inkscape:export-filename="/home/mlipp/shirt.png" inkscape:export-xdpi="900" inkscape:export-ydpi="900"><defs id="defs100"/><sodipodi:namedview pagecolor="#ffffff" bordercolor="#666666" borderopacity="1" objecttolerance="10" gridtolerance="10" guidetolerance="10" inkscape:pageopacity="0" inkscape:pageshadow="2" inkscape:window-width="1918" inkscape:window-height="1060" id="namedview98" showgrid="false" inkscape:zoom="1.0648621" inkscape:cx="36.653588" inkscape:cy="364.74195" inkscape:window-x="0" inkscape:window-y="18" inkscape:window-maximized="1" inkscape:current-layer="text4535" inkscape:showpageshadow="false" borderlayer="true"/><metadata id="metadata2"><rdf:RDF><cc:Work rdf:about=""><dc:format>image/svg+xml</dc:format><dc:type rdf:resource="http://purl.org/dc/dcmitype/StillImage"/><dc:title/></cc:Work></rdf:RDF></metadata><style type="text/css" id="style4">
	.st0{display:none;}
	.st1{fill-opacity:0.35;}
	.st2{display:inline;fill:#FFFFFF;stroke:#000000;stroke-width:19;stroke-miterlimit:10;}
	.st3{display:inline;}
	.st4{fill:none;stroke:#000000;stroke-width:19;stroke-miterlimit:10;}
	.st5{display:inline;fill:none;stroke:#000000;stroke-width:19;stroke-miterlimit:10;}
	.st6{display:inline;fill:#FFFFFF;stroke:#000000;stroke-width:22.3391;stroke-miterlimit:10;}
	.st7{fill-opacity:0.3;}
	.st8{fill:#FFFFFF;stroke:#000000;stroke-miterlimit:10;}
	.st9{display:inline;fill:#FFFFFF;stroke:#000000;stroke-width:15.2803;stroke-miterlimit:10;}
	.st10{fill:#FFFFFF;stroke:#000000;stroke-width:19;stroke-miterlimit:10;}
	.st11{fill:none;stroke:#000000;stroke-width:19;stroke-linecap:round;stroke-miterlimit:10;}
	.st12{display:inline;fill:#FFFFFF;stroke:#000000;stroke-width:12;stroke-miterlimit:10;}
	.st13{display:inline;fill:#FFFFFF;}
	.st14{display:inline;fill:none;stroke:#000000;stroke-width:14.4734;stroke-linecap:round;stroke-miterlimit:10;}
		.st15{display:inline;fill:#FFFFFF;stroke:#000000;stroke-width:14.4734;stroke-linecap:round;stroke-linejoin:round;stroke-miterlimit:10;}
	.st16{fill:#FFFFFF;}
</style><g class="st0" transform="translate(-193.63877,65.29501)" display="none" id="g26" style="display:none"><title id="title6">Artboard 4</title><path class="st1" d="M 612.4,85.7 H 187.7 c -35.2,0 -63.7,28.6 -63.6,63.8 V 200 h -5.4 c -19.6,0 -35.5,15.9 -35.5,35.5 v 25 c 0,19.6 15.9,35.5 35.5,35.5 h 5.4 v 56.2 h -5.4 c -19.6,0 -35.5,15.9 -35.5,35.5 v 25 c 0,19.6 15.9,35.5 35.5,35.5 h 5.4 v 50.6 c 0.1,35.1 28.5,63.6 63.6,63.6 h 3.3 l 10.2,34.7 c 5.8,19.5 23.7,32.9 44.1,33 h 32.2 c 20.4,-0.1 38.3,-13.5 44.1,-33 l 10.2,-34.6 h 139.6 l 10.2,34.7 c 5.9,19.5 23.8,32.8 44.1,32.9 H 558 c 20.4,-0.1 38.3,-13.5 44.1,-33 l 10.2,-34.7 c 35.2,0 63.6,-28.5 63.6,-63.7 V 149.4 C 676,114.3 647.5,85.7 612.4,85.7 Z M 113.3,260.5 v -25 c 0,-2.9 2.4,-5.3 5.3,-5.3 h 69.6 v 35.5 h -69.6 c -2.9,0.1 -5.3,-2.3 -5.3,-5.2 z m 41,35.5 h 33.8 v 56.2 h -33.8 z m -41,116.7 v -25 c 0,-2.9 2.4,-5.3 5.3,-5.3 h 69.6 V 418 h -69.6 c -2.9,0 -5.3,-2.4 -5.3,-5.3 z m 179.4,175.9 c -2,6.7 -8.1,11.3 -15.1,11.4 h -32.2 c -7,0 -13.1,-4.6 -15.1,-11.3 l -7.7,-26.1 h 77.9 z m 265.4,11.3 h -32.2 c -7,0 -13.1,-4.6 -15.1,-11.3 l -7.7,-26.1 H 581 l -7.7,26 c -2.1,6.8 -8.2,11.4 -15.2,11.4 z m 87.6,-101.1 c 0,18.4 -15,33.4 -33.4,33.4 H 187.7 c -18.4,0 -33.4,-15 -33.4,-33.4 v -50.6 h 33.8 v 33.2 c 0,8.4 6.8,15.1 15.1,15.1 h 393.3 c 8.4,0 15.1,-6.8 15.1,-15.1 V 166.9 c 0,-8.4 -6.8,-15.1 -15.1,-15.1 H 203.2 c -8.4,0 -15.1,6.8 -15.1,15.1 V 200 h -33.8 v -50.6 c 0,-18.5 14.9,-33.5 33.4,-33.5 h 424.7 c 18.5,0 33.4,15 33.4,33.5 v 349.4 z m -64,-138.3 h -45.9 c -0.3,0 -0.5,-0.2 -0.5,-0.5 v -68.1 c 0,-0.3 0.2,-0.5 0.5,-0.5 h 45.9 z m 0,-99.3 h -45.9 c -17,0 -30.8,13.8 -30.8,30.8 v 68 c 0,17 13.8,30.8 30.8,30.8 h 45.9 v 75.6 h -363 V 182 h 363 z" id="path8" inkscape:connector-curvature="0" style="fill-opacity:0.35"/><rect class="st2" x="136" y="99" width="528" height="439" display="inline" stroke-miterlimit="10" id="rect10" style="display:inline;fill:#ffffff;stroke:#000000;stroke-width:19;stroke-miterlimit:10"/><g class="st3" display="inline" id="g14" style="display:inline"><rect class="st4" x="205" y="168" width="391" height="314" stroke-miterlimit="10" id="rect12" style="fill:none;stroke:#000000;stroke-width:19;stroke-miterlimit:10"/></g><rect class="st5" x="521.5" y="283" width="74" height="85.5" display="inline" stroke-miterlimit="10" id="rect16" style="display:inline;fill:none;stroke:#000000;stroke-width:19;stroke-miterlimit:10"/><rect class="st2" x="101" y="368.5" width="100.5" height="58.5" display="inline" stroke-miterlimit="10" id="rect18" style="display:inline;fill:#ffffff;stroke:#000000;stroke-width:19;stroke-miterlimit:10"/><rect class="st2" x="102" y="214.2" width="100.5" height="58.5" display="inline" stroke-miterlimit="10" id="rect20" style="display:inline;fill:#ffffff;stroke:#000000;stroke-width:19;stroke-miterlimit:10"/><polygon class="st6" points="312.5,540.3 300.4,614.3 222.5,614.3 210.5,540.3 " display="inline" stroke-miterlimit="10" id="polygon22" style="display:inline;fill:#ffffff;stroke:#000000;stroke-width:22.33909988;stroke-miterlimit:10"/><polygon class="st6" points="586.3,540.3 574.2,614.3 496.3,614.3 484.3,540.3 " display="inline" stroke-miterlimit="10" id="polygon24" style="display:inline;fill:#ffffff;stroke:#000000;stroke-width:22.33909988;stroke-miterlimit:10"/></g><g class="st0" transform="translate(-193.63877,65.29501)" display="none" id="g56" style="display:none"><path class="st7" d="m 254.1,378.1 c 4.2,7.2 13.4,9.7 20.6,5.6 l 31.8,-18.2 c 7.5,7.5 16.8,12.9 27.1,15.6 v 36.7 c 0,8.4 6.8,15.1 15.1,15.1 8.3,0 15.1,-6.8 15.1,-15.1 V 381 c 10.3,-2.7 19.6,-8.1 27.1,-15.6 l 31.8,18.2 c 7.3,4.1 16.5,1.6 20.6,-5.7 4.1,-7.2 1.6,-16.3 -5.5,-20.5 L 406,339.2 c 2.9,-10.2 2.9,-21.1 0,-31.3 l 31.8,-18.2 c 7.2,-4.2 9.6,-13.5 5.4,-20.7 -4.2,-7.1 -13.3,-9.6 -20.5,-5.5 L 391,281.7 c -7.5,-7.5 -16.8,-12.9 -27.1,-15.6 v -36.7 c 0,-8.4 -6.8,-15.1 -15.1,-15.1 -8.3,0 -15.1,6.8 -15.1,15.1 v 36.7 c -10.3,2.7 -19.6,8.1 -27.1,15.6 l -31.8,-18.2 c -7.3,-4.1 -16.5,-1.6 -20.6,5.7 -4.1,7.2 -1.6,16.3 5.5,20.5 l 31.8,18.2 c -2.9,10.2 -2.9,21.1 0,31.3 l -31.8,18.2 c -7.3,4.1 -9.8,13.4 -5.7,20.6 0,0 0,0.1 0.1,0.1 z m 94.6,-83.8 c 16.1,0 29.2,13.1 29.2,29.2 0,16.1 -13.1,29.2 -29.2,29.2 -16.1,0 -29.2,-13.1 -29.2,-29.2 0,-16.1 13.1,-29.2 29.2,-29.2 z" id="path28" inkscape:connector-curvature="0" style="fill-opacity:0.3"/><g class="st3" display="inline" id="g36" style="display:inline"><path class="st8" d="m 1425.2,302.4 c -23.4,-0.6 -21.5,-18.7 -21.5,-18.7 l -1.5,-172.7 187.5,-0.3 -0.1,177.3 c 0,0 1.4,20.8 -18.8,20.7 -20.6,-0.1 -18.4,-19 -18.4,-19 v -52.3 c 0,0 1.6,-12 -15.5,-12.2 -17.1,-0.2 -17.7,9.9 -17.7,9.9 l -0.1,92.5 c 0,0 2.2,15.7 -18.4,15.7 -20.6,0 -18.7,-15.9 -18.7,-15.9 v -118 c 0,0 0.6,-16.3 -17.7,-16.3 -18.4,0 -18.4,16.3 -18.4,16.3 l -0.6,74.5 c 0,0 1.9,18 -21.5,18.7" stroke-miterlimit="10" id="path30" inkscape:connector-curvature="0" style="fill:#ffffff;stroke:#000000;stroke-miterlimit:10"/><path class="st8" d="m 1061.6,104.9 1.1,122.9 c 0,0 -2.9,17.3 19.7,18.3 22.6,-1 20.9,-18.3 20.9,-18.3 l 0.6,-74.1 c 0,0 0,-16.2 18.4,-16.2 18.4,0 17.7,16.2 17.7,16.2 v 117.4 c 0,0 -1.9,15.8 18.7,15.8 20.6,0 18.4,-15.6 18.4,-15.6 l 0.1,-91.9 c 0,0 0.6,-10 17.7,-9.8 17.1,0.2 15.5,12.2 15.5,12.2 v 52.1 c 0,0 0.2,18.5 18.4,18.9 25.4,-0.8 24.1,-38.1 24.1,-38.1 0,0 -1.3,21.8 16,22.3 13.7,0.2 12.4,-19.9 12.4,-19.9 l 0.1,-49.5 c 0,0 -2.7,-22.5 13.7,-22.5 16.4,0 17.6,22.5 17.6,22.5 v 114 c 0,0 2.5,18 21.3,19.5 18.8,1.5 20.1,-16.5 20.1,-16.5 l 0.9,-174.5 z" stroke-miterlimit="10" id="path32" inkscape:connector-curvature="0" style="fill:#ffffff;stroke:#000000;stroke-miterlimit:10"/><polygon class="st8" points="1068.5,93.9 1068.5,119.4 1224,124.4 1347.8,117.2 1348,91.9 1409,96.9 1409.3,119.5 1582.5,131.4 1582.5,85.4 " stroke-miterlimit="10" id="polygon34" style="fill:#ffffff;stroke:#000000;stroke-miterlimit:10"/></g><path class="st9" d="m 298.6,406.2 v 103 c 0,0 4,16.2 17.3,15 13,-1.2 14.4,-17 14.4,-17 v -46 c 0,0 1.8,-13 13.7,-12 11.8,1 11.1,14 11.1,14 v 100 c 0,0 1.2,19 15,19 13.8,0 13.1,-20 13.1,-20 l -0.3,-111.8 c 0,0 -0.9,-17.7 12.4,-17.7 5.1,0 11.7,5.2 12,13 0.7,17 1,39.5 1,39.5 0,0 -2.5,22.5 13,22 14.9,-0.5 14.7,-19.3 14.7,-19.3 l 0.6,-114.3 -24.8,23.9 -35.3,18.7 -26.6,3.7 -25.5,-2.8 z" display="inline" stroke-miterlimit="10" id="path38" inkscape:connector-curvature="0" style="display:inline;fill:#ffffff;stroke:#000000;stroke-width:15.28030014;stroke-miterlimit:10"/><g class="st3" display="inline" stroke-miterlimit="10" id="g50" style="display:inline;stroke:#000000;stroke-width:19;stroke-miterlimit:10"><circle class="st10" cx="348.70001" cy="323.5" r="96.699997" id="circle40" style="fill:#ffffff;stroke:#000000;stroke-width:19;stroke-miterlimit:10"/><line class="st11" x1="348.70001" x2="348.70001" y1="228.39999" y2="418.60001" id="line42" style="fill:none;stroke:#000000;stroke-width:19;stroke-linecap:round;stroke-miterlimit:10"/><line class="st11" x1="431" x2="266.29999" y1="276" y2="371" id="line44" style="fill:none;stroke:#000000;stroke-width:19;stroke-linecap:round;stroke-miterlimit:10"/><line class="st11" x1="266.29999" x2="431" y1="276" y2="371" id="line46" style="fill:none;stroke:#000000;stroke-width:19;stroke-linecap:round;stroke-miterlimit:10"/><circle class="st10" cx="348.70001" cy="323.5" r="50" id="circle48" style="fill:#ffffff;stroke:#000000;stroke-width:19;stroke-miterlimit:10"/></g><ellipse class="st12" cx="426" cy="590.79999" rx="15.2" ry="23.4" display="inline" stroke-miterlimit="10" id="ellipse52" style="display:inline;fill:#ffffff;stroke:#000000;stroke-width:12;stroke-miterlimit:10"/><ellipse class="st12" cx="1052.9" cy="739.40002" rx="15.2" ry="23.4" display="inline" stroke-miterlimit="10" id="ellipse54" style="display:inline;fill:#ffffff;stroke:#000000;stroke-width:12;stroke-miterlimit:10"/></g><g class="st0" transform="translate(-193.63877,65.29501)" display="none" id="g80" style="display:none"><path class="st13" d="m 555.3,541.1 c 0,0 9.6,47.7 46.1,50.9 0,0 -38.6,63.8 -105.1,-3.2 0,0 -34.8,83.1 -89,11.3 0,0 -47.7,77.7 -92.7,1.1 0,0 -46.6,68.6 -88.4,3.8 0,0 -56.3,62.2 -104,-5.9 0,0 55.7,-8 60,-40.7 4.3,-32.7 -1.6,-278.7 -1.6,-278.7 0,0 22.5,-176.9 178.5,-186 156,-9.1 188.7,159.2 188.7,159.2 z" display="inline" id="path58" inkscape:connector-curvature="0" style="display:inline;fill:#ffffff"/><path class="st3" d="m 342.5,88.8 c 41.7,-6 85.1,3.8 121.1,26.8 31,19.6 56.5,48.7 73.4,82.5 15.3,30.4 23.6,64.6 24.4,99 0.1,1.9 0.4,3.8 0.4,5.6 v 220.6 c 0,2.2 -0.1,4.4 0.2,6.6 0.5,3.9 0,7.8 0.8,11.7 1.1,5.3 2.5,10.7 5.1,15.4 7.2,14.2 21,23.8 35.6,27 3,0.7 6.5,0.6 8.8,3.2 3.6,3.5 3.2,10.5 -0.9,13.4 -2,1.2 -3.2,3.5 -4.8,5.2 -12.7,15.1 -31.5,23.8 -50.4,24.6 -21.4,1.4 -43.3,-7.3 -58,-24 -2.4,4.1 -5,8.1 -8.3,11.7 -3.2,3.8 -7.1,6.7 -10.9,9.5 -3,1.5 -5.8,3.5 -9,4.7 -8.8,3.9 -18.6,4.7 -28,3.7 -13.5,-1.8 -26,-9 -35.1,-19.7 -10.2,16.4 -28.4,26.8 -47,26.4 -5.3,0.3 -10.5,-1.1 -15.5,-2.2 -12.1,-3.7 -22.9,-11.9 -30.2,-22.7 -7.8,10.9 -19.4,18.4 -31.9,21.4 -9.7,2.2 -20,1.9 -29.5,-1.4 -7.6,-2.5 -14.5,-6.8 -20.4,-12.4 -2,-1.7 -3.5,-4.1 -5.5,-5.9 -12.2,11.4 -28.2,18.2 -44.5,19.1 -18.4,1.3 -37.3,-4.6 -51.6,-17.1 -4.3,-3.6 -8,-7.8 -11.4,-12.4 -1.3,-1.8 -1.6,-4.1 -2.9,-6 -2.5,-3.8 -1.3,-9.4 2.3,-11.9 2.4,-1.9 5.6,-1.5 8.4,-1.9 10.6,-1.5 20.8,-6.3 28.9,-13.6 9.6,-8.7 16.2,-21.7 16.3,-35.2 0.5,-12.7 0.1,-25.4 0.2,-38.1 v -199 c 0.2,-2.8 -0.5,-5.7 -0.4,-8.5 1.1,-30.3 7.9,-60.4 20.2,-87.8 13.7,-30.6 34.2,-57.8 59.6,-78.3 26.5,-21.4 57.8,-35.5 90.5,-40 m 14.4,16.2 c -25.6,1.6 -50.8,9.6 -73.2,22.8 -21.4,12.6 -40.3,30.1 -55.2,50.7 -23.3,31.9 -36.9,71.5 -39.1,111.8 0.3,8.3 0.1,16.7 0.2,25 v 148.9 c -0.1,25.6 0.2,51.2 -0.1,76.7 -0.4,11.7 -3.8,23.2 -9.9,33 -9.3,15.5 -24.7,26.3 -41.3,30.9 5.3,5.1 11.4,9.2 18.1,11.9 8.7,3.7 18.3,4.7 27.6,3.9 12.8,-1.1 25.2,-7 34.4,-16.5 1.6,-1.4 1.4,-3.9 2.8,-5.5 2.5,-3.5 7.7,-4.4 11.1,-1.9 2.1,1.4 3.1,4 4.4,6.1 1.8,2.8 3.8,5.5 6,7.9 5.2,5.7 12.1,9.4 19.4,11.1 3.8,0.9 7.7,0.8 11.5,0.7 14.2,-0.9 27.4,-10.7 33,-24.6 2.2,-6.4 11.3,-8.1 15.4,-3 1.7,2 2.1,4.8 3.4,7.2 4.9,10.1 13.7,17.9 23.9,21.1 4.2,1 8.5,1.9 12.8,1.6 14,-0.3 27.5,-9.2 33.7,-22.5 1.6,-2.8 2,-6.3 4,-8.9 2.7,-3.6 8.3,-4.1 11.6,-1.2 1.7,1.3 2.3,3.6 3.6,5.2 1.4,1.8 2.5,3.8 3.9,5.6 7.6,9.7 19.2,16 31.2,15.5 6.3,0.1 12.8,-1.4 18.3,-4.8 5.8,-3.3 11,-8.1 14.7,-14 1.8,-2.8 2.7,-6.1 4.3,-9 1.1,-1.7 0.6,-4 1.6,-5.7 1.7,-3.9 6.2,-5.9 10,-4.4 3.1,1 4.8,4.1 6.8,6.7 3.4,5.7 8,10.6 13.2,14.6 17.1,13 40.9,14.7 59.8,5.1 4.4,-2.2 8.4,-5.3 12.3,-8.5 -10.3,-3.9 -19.6,-10.3 -27.3,-18.5 -6.7,-7.4 -12,-16.5 -14.7,-26.4 -1.9,-6 -2.4,-12.4 -3,-18.7 V 308.1 c 0,-1.9 -0.4,-3.8 -0.4,-5.7 -0.1,-18.8 -2.5,-37.6 -7.4,-55.7 C 528,207.6 506.2,171.9 476.5,146.2 462.7,134.5 447.3,124.5 430.8,117.9 407,107.7 381.8,103.4 356.9,105 Z" display="inline" id="path60" inkscape:connector-curvature="0" style="display:inline"/><path class="st3" d="m 441.4,296.9 c -9.5,3.3 -20,3.8 -29.8,1.1 -11.6,-3.1 -22,-10.4 -28.7,-20.4 -6.3,-9.2 -9.4,-20.5 -8.7,-31.6 0.6,-11 5,-21.8 12.3,-30.2 0.5,-0.6 1.2,-0.9 1.9,-1.1 16.7,-4.6 33.4,-9.3 50.1,-14 1.3,-0.4 2.6,0.4 3.9,0.8 12,4.4 22.1,13.5 27.7,24.9 4.2,8.5 6,18.2 5,27.6 -1.1,11.1 -6.1,21.9 -13.9,30 -5.4,5.9 -12.3,10.3 -19.8,12.9 z" display="inline" id="path62" inkscape:connector-curvature="0" style="display:inline"/><path class="st3" d="m 300.2,299.4 c -11.6,-1.2 -22.6,-6.5 -30.8,-14.9 -12.2,-12.3 -17.4,-31.1 -12.9,-47.9 4.1,-16.7 17.4,-30.9 33.9,-35.8 17.1,4.3 34.1,9.1 51.2,13.6 1.6,0.2 2.5,1.7 3.4,2.8 4.9,6.1 8.4,13.2 10,20.9 2.4,10.3 1.3,21.5 -3,31.2 -4.2,9.8 -11.6,18.1 -20.8,23.4 -9.2,5.5 -20.3,7.9 -31,6.7 z" display="inline" id="path64" inkscape:connector-curvature="0" style="display:inline"/><path class="st14" d="m 282.8,345.2 c 0,0 78,36.2 163.2,0" display="inline" stroke-miterlimit="10" id="path66" inkscape:connector-curvature="0" style="display:inline;fill:none;stroke:#000000;stroke-width:14.47340012;stroke-linecap:round;stroke-miterlimit:10"/><path class="st15" d="m 149.3,428.8 c 0,0 -30.6,-18.5 -57.3,10.4 -15.1,20.6 -19.1,43.6 -19.1,43.6 l 23.5,-13.9 3.9,26.3 18.3,-15 10.4,21.1 c 0,0 9.7,-34.1 19,-31.7 9.4,2.3 15.3,-28.6 1.3,-40.8 z" display="inline" stroke-miterlimit="10" id="path68" inkscape:connector-curvature="0" style="display:inline;fill:#ffffff;stroke:#000000;stroke-width:14.47340012;stroke-linecap:round;stroke-linejoin:round;stroke-miterlimit:10"/><path class="st15" d="m 647.6,389.2 c 0,0 -15.9,-34.1 -41.2,-30.8 -25.4,3.4 -9.4,19.3 -9.4,19.3 0,0 -24.8,6 -9.8,20.6 0,0 -17,5.3 -4.9,17.7 12.1,12.4 19.2,23.3 41,20.2 -0.1,0.1 35.9,-8.2 24.3,-47 z" display="inline" stroke-miterlimit="10" id="path70" inkscape:connector-curvature="0" style="display:inline;fill:#ffffff;stroke:#000000;stroke-width:14.47340012;stroke-linecap:round;stroke-linejoin:round;stroke-miterlimit:10"/><path class="st3" d="m 742.1,226.3 c 8.8,-22.8 22.9,-53.1 23,-53.4 1.4,-3.1 0.1,-6.7 -3,-8.1 -3.1,-1.4 -6.7,-0.1 -8.1,3 -0.1,0.2 -6.9,14.8 -14,31.4 L 729.7,179 c -1.5,-3 -5.2,-4.2 -8.2,-2.7 -3,1.5 -4.2,5.2 -2.7,8.2 l 14.7,28.8 c 0.1,0.2 0.2,0.4 0.4,0.6 -1.1,2.7 -2.2,5.4 -3.2,8 -6.3,16.3 -7.9,26.7 -8.2,32.7 l -32.9,38 -4.4,-25.9 c -0.6,-3.3 -3.8,-5.6 -7.1,-5 -3.3,0.6 -5.6,3.7 -5,7.1 l 6.1,35.8 -49.8,57.6 c -1.1,1.3 -1.6,2.9 -1.5,4.6 0.2,1.7 1,3.2 2.3,4.2 l 6.7,5.3 c 1.3,1 2.9,1.5 4.5,1.3 1.6,-0.2 3.1,-1 4.1,-2.3 L 731.6,265 764.3,248.7 c 3,-1.5 4.3,-5.2 2.8,-8.2 -1.5,-3 -5.2,-4.3 -8.2,-2.8 l -22.7,11.3 -0.7,-0.5 c 0.9,-5.1 2.8,-12.4 6.6,-22.2 z" display="inline" id="path72" inkscape:connector-curvature="0" style="display:inline"/><g class="st3" display="inline" id="g76" style="display:inline"><path d="m 587.3,421.3 -10.8,14.9 c -1.1,1.3 -1.6,2.9 -1.5,4.6 0.2,1.7 1,3.2 2.3,4.2 l 6.7,5.3 c 1.3,1 2.9,1.5 4.5,1.3 1.6,-0.2 3.1,-1 4.1,-2.3 l 13.8,-17.6 h -11.6 z" id="path74" inkscape:connector-curvature="0"/></g><path class="st3" d="m 624.1,371.3 8.9,8.8 c 15.4,-15.6 28.4,-33.2 38.8,-52.5 0.1,0.1 0.3,0.2 0.4,0.3 23.3,16 55.2,10.2 71.3,-13 2,-2.8 1.2,-6.7 -1.6,-8.7 -18.5,-12.7 -43.1,-12 -60.7,1.8 4.1,-9.6 7.5,-19.6 10.2,-29.7 0.2,0.1 0.4,0.3 0.6,0.4 25,13.2 56,3.6 69.2,-21.4 1.6,-3 0.4,-6.8 -2.6,-8.4 -21.5,-11.3 -48,-6 -63.5,12.7 1.2,-6.4 2.1,-12.8 2.8,-19.2 21.5,-16.5 26.4,-46.9 11.2,-69.3 -1.9,-2.9 -5.8,-3.6 -8.7,-1.7 0,0 -0.1,0 -0.1,0.1 -22.7,15.4 -29.2,45.9 -14.8,69.3 -0.3,2.9 -0.6,5.8 -1,8.6 -5.6,-20.8 -23.5,-35.8 -45,-37.8 -3.4,-0.3 -6.5,2.2 -6.8,5.7 -2.5,28.2 18.3,53.1 46.5,55.7 h 0.6 c -2.8,10.8 -6.4,21.3 -10.7,31.6 -2.6,-22.6 -19.6,-40.8 -42,-44.7 -3.4,-0.6 -6.6,1.7 -7.2,5 -4.8,27.1 12.8,53.2 39.7,58.9 -9.6,17.4 -21.5,33.4 -35.5,47.5 z m 104.8,-58.2 c -11.4,11.5 -28.8,14.7 -43.6,8 11.4,-11.5 28.8,-14.7 43.6,-8 z m 17.7,-55.8 c -10,12.8 -26.9,18 -42.4,13.1 10,-12.8 26.9,-18 42.4,-13.1 z m -72.9,2.1 c -15.7,-4.3 -27,-17.9 -28.4,-34 15.7,4.2 27,17.8 28.4,34 z M 638.6,296 c -4.5,-6.5 -7,-14.2 -7,-22.1 15.2,5.7 25.3,20.2 25.3,36.4 -7.4,-2.9 -13.8,-7.8 -18.3,-14.3 z m 52.6,-89.4 c 1.5,-7.8 5.3,-14.9 11.1,-20.5 6.6,14.8 3.2,32.2 -8.4,43.5 -3.3,-7.2 -4.2,-15.2 -2.7,-23 z" display="inline" id="path78" inkscape:connector-curvature="0" style="display:inline"/></g><g transform="translate(-192.31069,69.279241)" id="g94" style="fill:#ff9600"><g id="g4185" transform="translate(27.961471,-153.33074)"><ellipse id="ellipse82" ry="12.9" rx="9.6999998" cy="698" cx="366.60001"/><path inkscape:connector-curvature="0" id="path84" d="M 543.4,166.2 C 482.4,139.5 421.6,112.4 361,85.1 c -2.8,-1.4 -6.1,-1.4 -8.8,0 -61.1,27.1 -122.1,54.2 -183.1,81.2 -3.1,0.8 -5.1,3.8 -4.7,6.9 0.4,41.6 0,83.2 0.4,124.7 0.2,52.8 16.1,104.2 45.5,147.8 0,0.9 -0.1,1.8 -0.1,2.5 -0.8,9.6 5.6,26.1 13.6,19.9 0.9,-0.7 1.6,-1 2.2,-1.2 1.2,1.5 2.4,2.9 3.6,4.3 0.7,4.5 0.1,11.3 0.2,15.1 0.1,7 1.1,25.1 15,18.1 3.8,-1.9 6.5,-5 8.5,-8.5 1,0.9 1.9,1.8 2.9,2.6 0.1,1.3 0.4,2.6 0.8,4.1 2.6,9.8 1.1,81 1.1,81 0,0 1.7,15.7 12.2,15.7 10.5,0 11.3,-15.7 11.3,-15.7 v -47.9 c 0,0 2.2,-8.8 12.9,-6.1 10.7,2.7 10.7,13.5 10.7,13.5 v 107.6 c 0,0 1.3,11.1 11.3,11.1 9.1,0 10.5,-12.8 10.5,-12.8 l 5.5,-104.5 c 4.9,1.8 9.9,3.5 15,5 2.6,0.8 5.4,1.3 8.1,1.3 l 0.4,56.7 c 0,0 1.2,26.5 14.4,26 13,-0.5 13.1,-27.8 13.1,-27.8 v -41.8 c 0,0 2.5,-13 10.3,-13 7.8,0 9.8,10.7 9.8,16.5 0,5.8 1,20.8 1.4,24.5 0.4,3.7 4.8,10.9 12,11 7.1,0.1 11.5,-10.7 11.5,-14.5 0,-3.8 0.8,-50 0.8,-50 0,0 -0.8,-17.5 10.2,-18.6 13.9,-1.5 10.7,8.5 12.7,11.4 2,2.9 5,3.5 8.5,3.7 3.5,0.2 10.3,-4.2 11,-12.9 0.4,-5.5 1.4,-25.8 2,-39.8 5.6,-6 11,-12.4 16,-19 38,-47.8 58.6,-107.1 58.4,-168.1 v -53.9 c -0.2,-22.4 -0.2,-44.9 0.1,-67.3 0.4,-3.3 -1.6,-6.5 -4.8,-7.7 z m -28.3,32.4 v 55.9 44.6 c 0.2,33 -7.1,65.4 -20.8,95 -16.8,40.5 -39.5,73.5 -46.2,73.7 -3.3,0.1 -4.6,3 -6.4,7.4 -2,4.8 -4.2,11.5 -6.8,12.9 -4,2.2 -5.5,1.7 -10,2.1 -7.6,0.7 -6,21.2 -7.9,26.7 -0.6,1.7 -2.7,6.5 -6.8,7.5 -1.9,0.5 -4.5,-0.3 -6.8,-2.2 -4.3,-3.4 -2.3,-12.9 -8.3,-17.1 -10.4,-7.4 -16.6,7 -16.6,7 v 15.6 c 0,0 -0.4,11.7 -6.6,9.4 -6.2,-2.2 -5.2,-15.5 -5.2,-15.5 v -12.5 c -1,0.3 -2,0.6 -3.1,1 -4.8,1.5 -10,1.5 -14.8,0 -5.6,-1.7 -11.1,-3.6 -16.4,-5.8 -0.5,4.1 -1.3,9.1 -2.6,10.1 -2.5,1.8 -6.5,2.5 -10.5,-0.2 -3.7,-2.5 -5.7,-11.4 -6.1,-17.5 0,-0.5 0,-0.9 -0.1,-1.3 -28.2,-14.8 -52.8,-36.1 -71.5,-62.4 -28.5,-38 -43.9,-84.2 -44.2,-131.6 -0.4,-34.5 0,-68.9 0,-103.4 -0.3,-2.6 1.3,-5 3.8,-5.7 50.4,-22.3 100.9,-44.8 151.4,-67.4 2.3,-1.2 5,-1.2 7.3,0 50.4,22.6 100.8,45 151.2,67.2 2.8,1 4.4,3.7 4,6.5 z"/><path inkscape:connector-curvature="0" id="path88" d="m 359.5,155 c -1.9,-1 -4.2,-1 -6.2,0 -42.7,19 -85.2,37.9 -127.8,56.8 -2,0.7 -3.3,2.6 -3.2,4.7 v 87.3 c 0.1,9.5 0.8,19.1 2.3,28.5 1.5,9.3 3.6,18.4 6.4,27.4 L 433.5,188 Z"/><path inkscape:connector-curvature="0" id="path90" d="M 487.1,211.7 463.4,201.2 242.8,388 c 2.3,4.4 4.7,8.8 7.3,13 v 22.7 c 0,0 -1.1,8.3 5.2,9.7 6.2,1.4 6.6,-5.9 6.6,-5.9 v -9.6 c 3.4,4.4 7,8.7 10.8,12.8 L 449,281.5 v 6.1 c 0,0 -1.1,8.3 5.2,9.7 6.2,1.4 6.6,-5.9 6.6,-5.9 v -19.9 l 9.6,-8.1 c 0.8,1.4 2,2.6 4,3 6.2,1.4 6.6,-5.9 6.6,-5.9 v -6.2 l 9.4,-8 V 217 c 0.4,-2.3 -1,-4.6 -3.3,-5.3 z"/><path inkscape:connector-curvature="0" id="path92" d="M 490.5,285 294.4,451.1 c 3.4,2.7 7,5.2 10.6,7.7 0.1,0.3 0.3,0.7 0.4,1.1 1.4,3.8 7.8,11.6 12.6,8.4 2.4,-1.6 6.4,3.9 6.4,6.8 0,2.9 2.3,6.8 7.3,6.8 3.7,0 5.9,-2.7 7.1,-5.7 3.7,1.4 7.4,2.6 11.1,3.7 4.1,1.3 8.4,1.3 12.5,0 11.4,-3.4 22.4,-8 32.7,-13.6 v 17.3 c 0,0 2.5,6.6 8.2,6.6 5,0 7.3,-4.2 8,-8.4 0.7,-4.1 1.5,-22.5 4.8,-25.2 3.3,-2.8 4.9,6.8 15.3,6.9 8.2,0.1 9.4,-18.4 16.5,-34.3 2.7,-6 15.5,-29.7 15.5,-29.7 17.7,-29.3 27.1,-63.1 27,-97.7 0.1,-5.5 0.1,-11.2 0.1,-16.8 z"/></g><g aria-label="MELTDOWN" style="font-style:normal;font-weight:normal;font-size:14.65291309px;line-height:0.01%;font-family:sans-serif;letter-spacing:0px;word-spacing:0px;fill:#ff9600;fill-opacity:1;stroke:none;stroke-width:1.22107613px;stroke-linecap:butt;stroke-linejoin:miter;stroke-opacity:1" id="text4535"><path d="m 248.45273,676.06293 h -13.53215 l -0.5486,-25.14421 q -0.2743,-8.68617 -0.2743,-16.91519 0,-5.7603 0.0914,-8.50331 l -7.04037,43.79663 h -13.44072 l -7.40611,-43.88806 q 0.18286,5.12027 0.18286,14.26362 0,7.40611 -0.0914,11.42918 l -0.5486,24.96134 h -13.44072 l 3.84021,-63.36339 h 17.73809 l 6.67464,43.33946 6.03461,-43.33946 h 18.01239 z" style="font-style:normal;font-variant:normal;font-weight:bold;font-stretch:normal;font-size:91.43346405px;line-height:1.25;font-family:'Fira Sans Extra Condensed';-inkscape-font-specification:'Fira Sans Extra Condensed,  Bold';baseline-shift:baseline;stroke-width:1.22107613px" id="path4537"/><path d="m 288.6806,612.69954 -1.46293,10.24054 h -17.64666 v 15.90943 h 15.54369 v 10.05768 h -15.54369 v 16.73232 h 18.83529 v 10.42342 h -33.19035 v -63.36339 z" style="font-style:normal;font-variant:normal;font-weight:bold;font-stretch:normal;font-size:91.43346405px;line-height:1.25;font-family:'Fira Sans Extra Condensed';-inkscape-font-specification:'Fira Sans Extra Condensed,  Bold';baseline-shift:baseline;stroke-width:1.22107613px" id="path4539"/><path d="m 309.0374,612.69954 v 52.02564 h 19.9325 l -1.46294,11.33775 h -32.82461 v -63.36339 z" style="font-style:normal;font-variant:normal;font-weight:bold;font-stretch:normal;font-size:91.43346405px;line-height:1.25;font-family:'Fira Sans Extra Condensed';-inkscape-font-specification:'Fira Sans Extra Condensed,  Bold';baseline-shift:baseline;stroke-width:1.22107613px" id="path4541"/><path d="m 362.1631,612.69954 -1.46294,10.97201 h -12.16065 v 52.39138 h -14.35505 v -52.39138 h -12.89212 v -10.97201 z" style="font-style:normal;font-variant:normal;font-weight:bold;font-stretch:normal;font-size:91.43346405px;line-height:1.25;font-family:'Fira Sans Extra Condensed';-inkscape-font-specification:'Fira Sans Extra Condensed,  Bold';baseline-shift:baseline;stroke-width:1.22107613px" id="path4543"/><path d="m 382.11559,612.69954 q 8.22902,0 14.08076,2.4687 5.94317,2.37727 9.60051,9.32621 3.74877,6.85751 3.74877,19.56676 0,17.82953 -7.22324,24.96134 -7.13181,7.04038 -19.20103,7.04038 h -17.00662 v -63.36339 z m -1.6458,10.33198 v 42.60799 h 3.47447 q 3.65734,0 5.94318,-1.82867 2.37727,-1.9201 3.65734,-6.58321 1.28007,-4.75454 1.28007,-13.16642 0,-8.50331 -1.37151,-13.07498 -1.28007,-4.57167 -3.65734,-6.21748 -2.28583,-1.73723 -5.85174,-1.73723 z" style="font-style:normal;font-variant:normal;font-weight:bold;font-stretch:normal;font-size:91.43346405px;line-height:1.25;font-family:'Fira Sans Extra Condensed';-inkscape-font-specification:'Fira Sans Extra Condensed,  Bold';baseline-shift:baseline;stroke-width:1.22107613px" id="path4545"/><path d="m 438.60576,611.14517 q 11.70349,0 17.82953,8.32044 6.21747,8.22901 6.21747,24.86991 0,16.45802 -6.21747,24.8699 -6.21748,8.41188 -17.82953,8.41188 -11.61205,0 -17.82952,-8.22902 -6.12605,-8.32044 -6.12605,-25.05276 0,-16.45803 6.12605,-24.77847 6.21747,-8.41188 17.82952,-8.41188 z m 0,10.51485 q -4.75454,0 -6.94894,5.2117 -2.10297,5.12028 -2.10297,17.4638 0,8.59474 0.91433,13.53215 1.00577,4.9374 2.92587,7.13181 2.01154,2.10297 5.21171,2.10297 3.29161,0 5.21171,-2.10297 2.01154,-2.10297 2.92587,-7.04038 1.00577,-5.02884 1.00577,-13.62358 0,-12.43496 -2.1944,-17.55523 -2.10297,-5.12027 -6.94895,-5.12027 z" style="font-style:normal;font-variant:normal;font-weight:bold;font-stretch:normal;font-size:91.43346405px;line-height:1.25;font-family:'Fira Sans Extra Condensed';-inkscape-font-specification:'Fira Sans Extra Condensed,  Bold';baseline-shift:baseline;stroke-width:1.22107613px" id="path4547"/><path d="m 529.49778,612.69954 -7.95472,63.36339 H 502.7992 l -5.2117,-49.09977 -5.76031,49.09977 H 473.5405 l -7.68042,-63.36339 h 13.71502 l 4.57168,52.39137 6.21747,-52.39137 h 14.81222 l 5.85175,52.39137 5.30314,-52.39137 z" style="font-style:normal;font-variant:normal;font-weight:bold;font-stretch:normal;font-size:91.43346405px;line-height:1.25;font-family:'Fira Sans Extra Condensed';-inkscape-font-specification:'Fira Sans Extra Condensed,  Bold';baseline-shift:baseline;stroke-width:1.22107613px" id="path4549"/><path d="m 576.11885,676.06293 h -17.73809 l -13.34929,-50.19697 q 0.91434,7.95471 1.3715,13.34928 0.45717,5.30314 0.45717,12.89212 v 23.95557 h -12.34352 v -63.36339 h 17.7381 l 13.34928,50.19697 q -1.9201,-12.61782 -1.9201,-23.68127 v -26.5157 h 12.43495 z" style="font-style:normal;font-variant:normal;font-weight:bold;font-stretch:normal;font-size:91.43346405px;line-height:1.25;font-family:'Fira Sans Extra Condensed';-inkscape-font-specification:'Fira Sans Extra Condensed,  Bold';baseline-shift:baseline;stroke-width:1.22107613px" id="path4551"/></g></g></svg>