<?xml version="1.0" encoding="UTF-8" standalone="no"?>
<svg
   xmlns:dc="http://purl.org/dc/elements/1.1/"
   xmlns:cc="http://creativecommons.org/ns#"
   xmlns:rdf="http://www.w3.org/1999/02/22-rdf-syntax-ns#"
   xmlns:svg="http://www.w3.org/2000/svg"
   xmlns="http://www.w3.org/2000/svg"
   xmlns:sodipodi="http://sodipodi.sourceforge.net/DTD/sodipodi-0.dtd"
   xmlns:inkscape="http://www.inkscape.org/namespaces/inkscape"
   height="110"
   width="110"
   version="1.1"
   id="svg6"
   sodipodi:docname="rust.svg"
   inkscape:version="0.92.3 (2405546, 2018-03-11)">
  <metadata
     id="metadata12">
    <rdf:RDF>
      <cc:Work
         rdf:about="">
        <dc:format>image/svg+xml</dc:format>
        <dc:type
           rdf:resource="http://purl.org/dc/dcmitype/StillImage" />
        <dc:title></dc:title>
      </cc:Work>
    </rdf:RDF>
  </metadata>
  <defs
     id="defs10" />
  <sodipodi:namedview
     pagecolor="#ffffff"
     bordercolor="#666666"
     borderopacity="1"
     objecttolerance="10"
     gridtolerance="10"
     guidetolerance="10"
     inkscape:pageopacity="0"
     inkscape:pageshadow="2"
     inkscape:window-width="1837"
     inkscape:window-height="1018"
     id="namedview8"
     showgrid="false"
     inkscape:zoom="1.6388889"
     inkscape:cx="72"
     inkscape:cy="96.40678"
     inkscape:window-x="83"
     inkscape:window-y="34"
     inkscape:window-maximized="1"
     inkscape:current-layer="svg6" />
  <path
     d="m 55.185593,9.2054237 c -26.06,0 -47.2699998,21.2200003 -47.2699998,47.2700003 0,26.05 21.2199998,47.269996 47.2699998,47.269996 26.05,0 47.269997,-21.219996 47.269997,-47.269996 0,-26.05 -21.219997,-47.2700003 -47.269997,-47.2700003 z m -0.07,4.2000003 a 3.1,3.11 0 0 1 3.02,3.11 3.11,3.11 0 0 1 -6.22,0 3.11,3.11 0 0 1 3.2,-3.11 z m 7.12,5.12 a 38.27,38.27 0 0 1 26.2,18.66 l -3.67,8.28 c -0.63,1.43 0.02,3.11 1.44,3.75 l 7.06,3.13 a 38.27,38.27 0 0 1 0.08,6.64 h -3.93 c -0.39,0 -0.55,0.26 -0.55,0.64 v 1.8 c 0,4.24 -2.39,5.17 -4.49,5.4 -2,0.23 -4.21,-0.84 -4.49,-2.06 -1.18,-6.63 -3.14,-8.04 -6.24,-10.49 3.85,-2.44 7.85,-6.05 7.85,-10.87 0,-5.21 -3.57,-8.49 -6,-10.1 -3.42,-2.25 -7.2,-2.7 -8.22,-2.7 h -40.6 a 38.27,38.27 0 0 1 21.41,-12.08 l 4.79,5.02 c 1.08,1.13 2.87,1.18 4,0.09 z m -44.2,23.02 a 3.11,3.11 0 0 1 3.02,3.11 3.11,3.11 0 0 1 -6.22,0 3.11,3.11 0 0 1 3.2,-3.11 z m 74.15,0.14 a 3.11,3.11 0 0 1 3.02,3.11 3.11,3.11 0 0 1 -6.22,0 3.11,3.11 0 0 1 3.2,-3.11 z m -68.29,0.5 h 5.42 v 24.44 h -10.94 a 38.27,38.27 0 0 1 -1.24,-14.61 l 6.7,-2.98 c 1.43,-0.64 2.08,-2.31 1.44,-3.74 z m 22.62,0.26 h 12.91 c 0.67,0 4.71,0.77 4.71,3.8 0,2.51 -3.1,3.41 -5.65,3.41 h -11.98 z m 0,17.56 h 9.89 c 0.9,0 4.83,0.26 6.08,5.28 0.39,1.54 1.26,6.56 1.85,8.17 0.59,1.8 2.98,5.4 5.53,5.4 h 16.14 a 38.27,38.27 0 0 1 -3.54,4.1 l -6.57,-1.41 c -1.53,-0.33 -3.04,0.65 -3.37,2.18 l -1.56,7.28 a 38.27,38.27 0 0 1 -31.91,-0.15 l -1.56,-7.28 c -0.33,-1.53 -1.83,-2.51 -3.36,-2.18 l -6.43,1.38 a 38.27,38.27 0 0 1 -3.32,-3.92 h 31.27 c 0.35,0 0.59,-0.06 0.59,-0.39 v -11.06 c 0,-0.32 -0.24,-0.39 -0.59,-0.39 h -9.15 z m -14.43,25.33 a 3.11,3.11 0 0 1 3.02,3.11 3.11,3.11 0 0 1 -6.22,0 3.11,3.11 0 0 1 3.2,-3.11 z m 46.05,0.14 a 3.11,3.11 0 0 1 3.02,3.11 3.11,3.11 0 0 1 -6.22,0 3.11,3.11 0 0 1 3.2,-3.11 z"
     id="path2"
     inkscape:connector-curvature="0" />
  <path
     d="m 99.815593,56.475424 a 44.63,44.63 0 0 1 -44.63,44.629996 44.63,44.63 0 0 1 -44.63,-44.629996 44.63,44.63 0 0 1 44.63,-44.63 44.63,44.63 0 0 1 44.63,44.63 z m -0.84,-4.31 6.959997,4.31 -6.959997,4.31 5.979997,5.59 -7.659997,2.87 4.779997,6.65 -8.089997,1.32 3.4,7.46 -8.19,-0.29 1.88,7.98 -7.98,-1.88 0.29,8.19 -7.46,-3.4 -1.32,8.089996 -6.65,-4.779996 -2.87,7.659996 -5.59,-5.98 -4.31,6.96 -4.31,-6.96 -5.59,5.98 -2.87,-7.659996 -6.65,4.779996 -1.32,-8.089996 -7.46,3.4 0.29,-8.19 -7.98,1.88 1.88,-7.98 -8.19,0.29 3.4,-7.46 -8.0899998,-1.32 4.7799998,-6.65 -7.6599998,-2.87 5.9799998,-5.59 -6.9599998,-4.31 6.9599998,-4.31 -5.9799998,-5.59 7.6599998,-2.87 -4.7799998,-6.65 8.0899998,-1.32 -3.4,-7.46 8.19,0.29 -1.88,-7.98 7.98,1.88 -0.29,-8.19 7.46,3.4 1.32,-8.0900003 6.65,4.7800003 2.87,-7.6600003 5.59,5.9800003 4.31,-6.9600003 4.31,6.9600003 5.59,-5.9800003 2.87,7.6600003 6.65,-4.7800003 1.32,8.0900003 7.46,-3.4 -0.29,8.19 7.98,-1.88 -1.88,7.98 8.19,-0.29 -3.4,7.46 8.089997,1.32 -4.779997,6.65 7.659997,2.87 z"
     id="path4"
     inkscape:connector-curvature="0"
     style="fill-rule:evenodd;stroke:#000000;stroke-width:3;stroke-linecap:round;stroke-linejoin:round" />
</svg>
