<?xml version="1.0" encoding="utf-8"?>
<!-- Generator: Adobe Illustrator 22.1.0, SVG Export Plug-In . SVG Version: 6.00 Build 0)  -->
<svg version="1.1" id="Layer_1" xmlns="http://www.w3.org/2000/svg" xmlns:xlink="http://www.w3.org/1999/xlink" x="0px" y="0px"
	 viewBox="0 0 550 200" style="enable-background:new 0 0 550 200;" xml:space="preserve">
<style type="text/css">
	.st0{fill:#167096;}
</style>
<g>
	<g>
		<path class="st0" d="M98.9,128.3c0,0.9-0.7,1.4-2,1.4H78.5c-0.5,0-1.1-0.4-1.4-0.9l-13.7-23.2c-0.4-0.7-0.9-1.1-1.4-1.1
			c-0.5,0-0.9,0.4-1.2,1.1l-13.5,23.2c-0.4,0.5-0.9,0.9-1.4,0.9H27.7c-1.2,0-1.8-0.5-1.8-1.4c0-0.5,0.5-1.4,1.1-2.3l20.4-35.5
			c0.9-1.4,1.2-2.1,1.2-2.8c0-0.7-0.4-1.6-1.1-2.8L28.2,51.6c-0.9-1.6-1.6-2.7-1.6-3.4c0-0.9,0.7-1.4,2-1.4h17.1
			c0.5,0,1.2,0.4,1.6,0.9l13.3,21.5c0.5,0.7,1.1,1.2,1.6,1.2c0.5,0,1.1-0.5,1.6-1.2l13.3-21.5c0.4-0.5,0.9-0.9,1.6-0.9h19.9
			c1.2,0,1.8,0.5,1.8,1.4c0,0.7-0.4,1.2-1.1,2.3L76.7,85.1c-0.7,1.1-1.1,1.8-1.1,2.5c0,0.7,0.4,1.2,1.1,2.3l21,35.8
			C98.4,126.8,98.9,127.7,98.9,128.3z"/>
		<path class="st0" d="M140.2,131.5c-20.3,0-33.2-13-33.2-31.4V78c0-18.5,13-31.4,33.2-31.4c20.1,0,33,13,33,31.4v22
			C173.2,118.5,160.3,131.5,140.2,131.5z M152.8,78c0-7.1-5.5-12.8-12.6-12.8c-7.3,0-12.8,5.9-12.8,12.8v22
			c0,6.9,5.5,12.8,12.8,12.8c7.1,0,12.6-5.7,12.6-12.8V78z"/>
		<path class="st0" d="M279.5,39.8c-6.4,0-11.9-5.5-11.9-11.9c0-6.4,5.5-11.9,11.9-11.9c6.4,0,11.9,5.5,11.9,11.9
			C291.4,34.3,285.9,39.8,279.5,39.8z M287.8,129.7h-16.7c-1.2,0-1.8-0.5-1.8-1.8V48.5c0-1.2,0.5-1.8,1.8-1.8h16.7
			c1.2,0,1.8,0.5,1.8,1.8v79.4C289.6,129.1,289.1,129.7,287.8,129.7z"/>
		<path class="st0" d="M345.9,131.5c-3.4,0-9.8-1.1-15.1-3.2c-12.3-5-18.7-15.3-18.7-28.2V68.7c0-1.2-0.5-1.8-1.8-1.8h-9.2
			c-1.2,0-1.8-0.5-1.8-1.6c0-1.1,0.2-4.8,0.4-9.6L320.2,36c0.5-0.5,1.2-1.1,2.1-1.1h8.3c1.2,0,1.8,0.5,1.8,1.8v11.7
			c0,1.2,0.5,1.8,1.8,1.8h11.7c1.2,0,1.8,0.5,1.8,1.8v13.2c0,1.2-0.5,1.8-1.8,1.8h-11.7c-1.2,0-1.8,0.5-1.8,1.8V100
			c0,6.4,4.4,11.9,13.7,12.6c1.1,0,1.6,0.7,1.6,1.8v15.3C347.7,130.9,347,131.5,345.9,131.5z"/>
		<path class="st0" d="M233,120.3h-19.4c-2.4,0-4-2.2-4-5.4c0-3.1,1.8-5.1,3.6-5.1h4.3c18.8,0,33.7-12.5,33.7-31.4V65.3h4
			c1.2,0,1.8-0.5,1.8-1.8V48.5c0-1.2-0.5-1.8-1.8-1.8h-5.8h-5.9h-9.5h-16.5c-19,0-33.9,11.2-33.9,30.1v2.5c0,9.2,4,16.1,10,21.9
			c0.4,0.4,0.5,0.7,0.5,1.3c0,1.1-4,3.6-4,11.1c0,6.7,3.4,8.5,3.4,10.1c0,0.5-0.4,1.1-0.7,1.4c-5.4,4.2-9.2,10.2-9.2,17.6v5.3
			c0,14.5,11.4,22.5,26.1,22.5H233c14.7,0,26.1-8,26.1-22.5v-5.3C259.1,128.1,247.6,120.3,233,120.3z M204.5,76.8
			c0-7.3,5.6-12.5,13-12.5c7.2,0,12.9,5.3,12.9,12.5v2.5c0,7.3-5.6,11.8-12.9,11.8c-7.4,0-13-4.7-13-11.8V76.8z M238.2,148
			c0,2.7-2.2,5.3-5.3,5.3h-23.2c-3.1,0-5.3-2.5-5.3-5.3v-5.3c0-3.1,2.2-5.3,5.3-5.3H233c3.1,0,5.3,2.2,5.3,5.3V148z"/>
		<path class="st0" d="M392.9,131.5c-20.3,0-33.2-13-33.2-31.4V78c0-18.5,13-31.4,33.2-31.4c20.1,0,33,13,33,31.4v22
			C425.9,118.5,412.9,131.5,392.9,131.5z M405.5,78c0-7.1-5.5-12.8-12.6-12.8c-7.3,0-12.8,5.9-12.8,12.8v22
			c0,6.9,5.5,12.8,12.8,12.8c7.1,0,12.6-5.7,12.6-12.8V78z"/>
	</g>
	<g>
		<path class="st0" d="M278.1,174.2c0,0.5-0.2,1-0.5,1.3c-0.4,0.4-0.8,0.5-1.4,0.5c-0.5,0-0.9-0.2-1.3-0.5c-0.4-0.4-0.5-0.8-0.5-1.3
			c0-0.5,0.2-0.9,0.5-1.3c0.4-0.4,0.8-0.5,1.3-0.5c0.6,0,1,0.2,1.4,0.5C277.9,173.2,278.1,173.7,278.1,174.2z"/>
		<path class="st0" d="M285.6,174.2c0,0.5-0.2,1-0.5,1.3c-0.4,0.4-0.8,0.5-1.4,0.5c-0.5,0-0.9-0.2-1.3-0.5c-0.4-0.4-0.5-0.8-0.5-1.3
			c0-0.5,0.2-0.9,0.5-1.3c0.4-0.4,0.8-0.5,1.3-0.5c0.6,0,1,0.2,1.4,0.5C285.4,173.2,285.6,173.7,285.6,174.2z"/>
		<path class="st0" d="M293.2,174.2c0,0.5-0.2,1-0.5,1.3c-0.4,0.4-0.8,0.5-1.4,0.5c-0.5,0-0.9-0.2-1.3-0.5c-0.4-0.4-0.5-0.8-0.5-1.3
			c0-0.5,0.2-0.9,0.5-1.3c0.4-0.4,0.8-0.5,1.3-0.5c0.6,0,1,0.2,1.4,0.5C293,173.2,293.2,173.7,293.2,174.2z"/>
		<path class="st0" d="M305.6,161.4c-0.2,0-0.3,0-0.6-0.1c-0.2,0-0.5-0.1-0.9-0.1c-0.6,0-1.1,0.1-1.6,0.3c-0.5,0.2-0.9,0.5-1.3,0.9
			c-0.4,0.4-0.6,0.8-0.8,1.3c-0.2,0.5-0.3,1-0.3,1.6v9.8c0,0.3-0.1,0.4-0.4,0.4h-1.8c-0.3,0-0.4-0.1-0.4-0.4v-16
			c0-0.3,0.1-0.4,0.4-0.4h1.4c0.3,0,0.4,0.1,0.4,0.4v1.9c0,0.3,0.1,0.4,0.3,0.4c0.2,0,0.5-0.2,0.8-0.6c0.4-0.4,0.9-0.9,1.6-1.4
			c0.2-0.2,0.5-0.3,0.8-0.5c0.3-0.1,0.7-0.2,0.9-0.2h1.4c0.3,0,0.4,0.1,0.4,0.4v1.9C305.9,161.3,305.8,161.4,305.6,161.4z"/>
		<path class="st0" d="M319.4,175.5H318c-0.2,0-0.4-0.1-0.4-0.4v-1.6c0-0.3-0.1-0.5-0.3-0.5c-0.2,0-0.5,0.2-0.8,0.5
			c-0.3,0.4-0.8,0.8-1.4,1.3c-0.3,0.2-0.5,0.4-0.9,0.5c-0.3,0.1-0.6,0.2-0.9,0.2h-1.5c-1.4,0-2.6-0.4-3.5-1.3
			c-0.9-0.8-1.3-1.9-1.3-3.2v-0.2c0-1.3,0.4-2.3,1.3-3.2c0.9-0.8,2-1.2,3.5-1.2h5c0.3,0,0.4-0.1,0.4-0.4l0-1.5
			c0-1.1-0.4-2.1-1.2-2.8c-0.7-0.7-1.7-1.1-2.9-1.1c-1,0-1.8,0.3-2.5,1c-0.4,0.4-0.7,0.7-0.9,0.9c-0.2,0.3-0.3,0.4-0.5,0.4
			c-0.1,0-0.1,0-0.2,0l-1.6-0.8c-0.2-0.1-0.2-0.2-0.2-0.3c0-0.3,0.1-0.6,0.4-1c0.3-0.4,0.7-0.7,1.2-1.1c0.5-0.3,1.1-0.6,1.8-0.9
			c0.7-0.2,1.5-0.3,2.4-0.3c2,0,3.7,0.6,4.9,1.7c1.2,1.1,1.8,2.6,1.8,4.4v10.6C319.8,175.4,319.6,175.5,319.4,175.5z M317.2,168.6
			c0-0.3-0.1-0.4-0.4-0.4h-5c-0.6,0-1.2,0.2-1.6,0.6c-0.4,0.4-0.6,1-0.6,1.6v0.6c0,0.6,0.2,1.2,0.7,1.6c0.4,0.4,1,0.7,1.6,0.7h1.5
			c1.5,0,2.8-1.1,3.8-3.3l0-0.8V168.6z"/>
		<path class="st0" d="M336.2,175.5h-1.4c-0.2,0-0.4-0.1-0.4-0.4v-1.6c0-0.3-0.1-0.4-0.3-0.4c-0.1,0-0.3,0.1-0.5,0.3
			c-0.2,0.2-0.4,0.4-0.7,0.7c-0.4,0.4-0.9,0.7-1.3,1c-0.5,0.3-1.1,0.5-2.1,0.5c-0.9,0-1.7-0.1-2.5-0.5c-0.7-0.3-1.4-0.7-2-1.3
			c-0.6-0.5-1-1.2-1.3-2c-0.3-0.8-0.5-1.6-0.5-2.5v-4.4c0-0.9,0.2-1.7,0.5-2.5c0.3-0.8,0.7-1.4,1.3-2c0.5-0.5,1.2-1,1.9-1.3
			c0.7-0.3,1.5-0.5,2.3-0.5c0.5,0,0.9,0,1.2,0.1c0.3,0.1,0.6,0.2,0.8,0.3c0.7,0.5,1.2,0.9,1.6,1.3c0.4,0.4,0.6,0.6,0.8,0.6
			s0.3-0.1,0.3-0.4V152c0-0.3,0.1-0.4,0.4-0.4h1.8c0.3,0,0.4,0.1,0.4,0.4v23.1C336.6,175.4,336.5,175.5,336.2,175.5z M334.1,164.9
			c0-0.5-0.1-1-0.3-1.5c-0.2-0.5-0.5-0.9-0.9-1.3c-0.4-0.4-0.8-0.7-1.3-0.9c-0.5-0.2-1-0.3-1.6-0.3c-0.6,0-1.1,0.1-1.6,0.3
			c-0.5,0.2-0.9,0.5-1.3,0.9c-0.4,0.4-0.6,0.8-0.8,1.3c-0.2,0.5-0.3,1-0.3,1.6v4.4c0,0.6,0.1,1.1,0.3,1.6c0.2,0.5,0.5,0.9,0.9,1.3
			c0.4,0.4,0.8,0.7,1.3,0.9c0.5,0.2,1,0.3,1.6,0.3c0.6,0,1.1-0.1,1.6-0.3c0.5-0.2,0.9-0.5,1.3-0.9c0.4-0.4,0.6-0.8,0.9-1.3
			c0.2-0.5,0.3-1,0.3-1.6V164.9z"/>
		<path class="st0" d="M344.5,152.9c0,0.5-0.2,0.9-0.5,1.2c-0.3,0.3-0.7,0.5-1.2,0.5c-0.5,0-0.8-0.2-1.2-0.5
			c-0.3-0.3-0.5-0.7-0.5-1.2c0-0.5,0.2-0.8,0.5-1.2c0.3-0.3,0.7-0.5,1.1-0.5c0.5,0,0.9,0.2,1.2,0.5
			C344.4,152,344.5,152.4,344.5,152.9z M343.7,175.5h-1.8c-0.3,0-0.4-0.1-0.4-0.4v-16c0-0.3,0.1-0.4,0.4-0.4h1.8
			c0.2,0,0.4,0.1,0.4,0.4v16C344.1,175.4,344,175.5,343.7,175.5z"/>
		<path class="st0" d="M360.6,172.5c0,0.3-0.1,0.7-0.4,1c-0.3,0.4-0.7,0.8-1.2,1.1c-0.5,0.3-1.1,0.6-1.9,0.9
			c-0.7,0.2-1.5,0.3-2.4,0.3c-2,0-3.6-0.6-4.8-1.7c-1.2-1.1-1.8-2.6-1.8-4.5v-5.1c0-1.9,0.6-3.4,1.8-4.5c1.2-1.1,2.8-1.7,4.8-1.7
			c0.9,0,1.7,0.1,2.4,0.3c0.7,0.2,1.3,0.5,1.9,0.8c0.5,0.3,0.9,0.7,1.2,1.1c0.3,0.4,0.4,0.7,0.4,1c0,0.1-0.1,0.2-0.3,0.3l-1.6,0.8
			c-0.1,0-0.1,0-0.2,0c-0.1,0-0.2,0-0.3-0.2c-0.3-0.3-0.5-0.5-0.8-0.8c-0.3-0.3-0.5-0.5-0.8-0.7c-0.3-0.2-0.6-0.4-0.9-0.5
			c-0.3-0.1-0.7-0.2-1.1-0.2c-0.6,0-1.1,0.1-1.6,0.3c-0.5,0.2-0.9,0.5-1.3,0.9c-0.4,0.4-0.6,0.8-0.8,1.3c-0.2,0.5-0.3,1-0.3,1.6v5.1
			c0,0.6,0.1,1.1,0.3,1.6c0.2,0.5,0.5,0.9,0.9,1.3c0.4,0.4,0.8,0.7,1.3,0.9c0.5,0.2,1,0.3,1.6,0.3c0.9,0,1.8-0.3,2.5-1
			c0.4-0.4,0.7-0.7,0.9-0.9c0.2-0.2,0.3-0.4,0.5-0.4c0.1,0,0.1,0,0.2,0l1.6,0.8C360.5,172.3,360.6,172.4,360.6,172.5z"/>
		<path class="st0" d="M374.8,175.5h-1.4c-0.2,0-0.4-0.1-0.4-0.4v-1.6c0-0.3-0.1-0.5-0.3-0.5c-0.2,0-0.5,0.2-0.8,0.5
			c-0.3,0.4-0.8,0.8-1.4,1.3c-0.3,0.2-0.5,0.4-0.9,0.5c-0.3,0.1-0.6,0.2-0.9,0.2h-1.5c-1.4,0-2.6-0.4-3.5-1.3
			c-0.9-0.8-1.3-1.9-1.3-3.2v-0.2c0-1.3,0.4-2.3,1.3-3.2c0.9-0.8,2-1.2,3.5-1.2h5c0.3,0,0.4-0.1,0.4-0.4l0-1.5
			c0-1.1-0.4-2.1-1.2-2.8c-0.7-0.7-1.7-1.1-2.9-1.1c-1,0-1.8,0.3-2.5,1c-0.4,0.4-0.7,0.7-0.9,0.9c-0.2,0.3-0.3,0.4-0.5,0.4
			c-0.1,0-0.1,0-0.2,0l-1.6-0.8c-0.2-0.1-0.2-0.2-0.2-0.3c0-0.3,0.1-0.6,0.4-1c0.3-0.4,0.7-0.7,1.2-1.1c0.5-0.3,1.1-0.6,1.8-0.9
			c0.7-0.2,1.5-0.3,2.4-0.3c2,0,3.7,0.6,4.9,1.7c1.2,1.1,1.8,2.6,1.8,4.4v10.6C375.1,175.4,375,175.5,374.8,175.5z M372.6,168.6
			c0-0.3-0.1-0.4-0.4-0.4h-5c-0.6,0-1.2,0.2-1.6,0.6c-0.4,0.4-0.6,1-0.6,1.6v0.6c0,0.6,0.2,1.2,0.7,1.6c0.4,0.4,1,0.7,1.6,0.7h1.5
			c1.5,0,2.8-1.1,3.8-3.3l0-0.8V168.6z"/>
		<path class="st0" d="M382.3,175.5h-1.8c-0.2,0-0.4-0.1-0.4-0.4V152c0-0.3,0.1-0.4,0.4-0.4h1.8c0.2,0,0.4,0.1,0.4,0.4v23.1
			C382.6,175.4,382.5,175.5,382.3,175.5z"/>
		<path class="st0" d="M400.3,175.8c-0.7,0-1.4-0.2-2.1-0.5c-0.7-0.3-1.3-0.7-1.8-1.3c-0.5-0.5-0.9-1.2-1.3-2
			c-0.3-0.8-0.5-1.6-0.5-2.5v-8.4c0-0.3-0.1-0.4-0.4-0.4h-2.2c-0.3,0-0.4-0.1-0.4-0.4v-0.7l4.3-4.5l0.3-0.1h0.6
			c0.2,0,0.4,0.1,0.4,0.4v2.8c0,0.3,0.1,0.4,0.4,0.4h2.8c0.3,0,0.4,0.1,0.4,0.4v1.4c0,0.3-0.1,0.4-0.4,0.4h-2.8
			c-0.3,0-0.4,0.1-0.4,0.4v8.4c0,0.9,0.3,1.7,0.8,2.5c0.2,0.3,0.5,0.5,0.9,0.7c0.4,0.2,0.9,0.4,1.5,0.7c0.2,0.1,0.3,0.2,0.3,0.4v1.5
			C400.7,175.7,400.6,175.8,400.3,175.8z"/>
		<path class="st0" d="M417.1,175.5h-1.8c-0.3,0-0.4-0.1-0.4-0.4v-10.2c0-0.5-0.1-1-0.3-1.5c-0.2-0.5-0.5-0.9-0.9-1.3
			c-0.4-0.4-0.8-0.7-1.3-0.9c-0.5-0.2-1-0.3-1.6-0.3c-0.6,0-1.1,0.1-1.6,0.3c-0.5,0.2-0.9,0.5-1.3,0.9c-0.4,0.4-0.6,0.8-0.8,1.3
			c-0.2,0.5-0.3,1-0.3,1.6v10.2c0,0.3-0.1,0.4-0.4,0.4h-1.8c-0.3,0-0.4-0.1-0.4-0.4V152c0-0.3,0.1-0.4,0.4-0.4h1.8
			c0.2,0,0.4,0.1,0.4,0.4v8.6c0,0.3,0.1,0.4,0.3,0.4c0.1,0,0.3-0.1,0.5-0.2c0.2-0.2,0.4-0.4,0.7-0.6c0.2-0.2,0.4-0.3,0.6-0.5
			c0.2-0.2,0.4-0.3,0.7-0.4c0.2-0.1,0.5-0.2,0.8-0.3c0.3-0.1,0.7-0.1,1.1-0.1c0.8,0,1.6,0.2,2.4,0.5c0.7,0.3,1.4,0.7,1.9,1.3
			c0.5,0.5,1,1.2,1.3,2c0.3,0.8,0.5,1.6,0.5,2.5v10.2C417.5,175.4,417.4,175.5,417.1,175.5z"/>
		<path class="st0" d="M425.2,152.9c0,0.5-0.2,0.9-0.5,1.2c-0.3,0.3-0.7,0.5-1.2,0.5c-0.5,0-0.8-0.2-1.2-0.5
			c-0.3-0.3-0.5-0.7-0.5-1.2c0-0.5,0.2-0.8,0.5-1.2c0.3-0.3,0.7-0.5,1.1-0.5c0.5,0,0.9,0.2,1.2,0.5C425,152,425.2,152.4,425.2,152.9
			z M424.4,175.5h-1.8c-0.3,0-0.4-0.1-0.4-0.4v-16c0-0.3,0.1-0.4,0.4-0.4h1.8c0.3,0,0.4,0.1,0.4,0.4v16
			C424.8,175.4,424.6,175.5,424.4,175.5z"/>
		<path class="st0" d="M442.6,175.5h-1.8c-0.2,0-0.4-0.1-0.4-0.4v-10.2c0-0.5-0.1-1-0.3-1.5c-0.2-0.5-0.5-0.9-0.9-1.3
			c-0.4-0.4-0.8-0.7-1.3-0.9c-0.5-0.2-1-0.3-1.6-0.3c-0.6,0-1.1,0.1-1.6,0.3c-0.5,0.2-0.9,0.5-1.3,0.9c-0.4,0.4-0.6,0.8-0.8,1.3
			c-0.2,0.5-0.3,1-0.3,1.6v10.2c0,0.3-0.1,0.4-0.4,0.4h-1.8c-0.3,0-0.4-0.1-0.4-0.4v-16c0-0.3,0.1-0.4,0.4-0.4h1.4
			c0.2,0,0.4,0.1,0.4,0.4v1.5c0,0.3,0.1,0.4,0.3,0.4c0.1,0,0.3-0.1,0.5-0.2c0.2-0.2,0.4-0.4,0.7-0.6c0.4-0.4,0.9-0.7,1.3-1
			c0.4-0.3,1.1-0.5,2-0.5c0.9,0,1.7,0.2,2.5,0.5c0.8,0.3,1.4,0.7,2,1.3c0.6,0.5,1,1.2,1.3,2c0.3,0.8,0.5,1.6,0.5,2.5v10.2
			C443,175.4,442.9,175.5,442.6,175.5z"/>
		<path class="st0" d="M461.5,175.2c0,0.2-0.1,0.3-0.4,0.3h-2.3l-0.3-0.2l-5.2-8.6c-0.1-0.2-0.2-0.2-0.3-0.2c-0.1,0-0.2,0.1-0.3,0.2
			l-2.1,2.1v6.3c0,0.3-0.1,0.4-0.4,0.4h-1.8c-0.3,0-0.4-0.1-0.4-0.4V152c0-0.3,0.1-0.4,0.4-0.4h1.8c0.3,0,0.4,0.1,0.4,0.4v13
			c0,0.3,0.1,0.4,0.3,0.4c0.1,0,0.2-0.1,0.3-0.2l5.9-6.5l0.3-0.1h2.1c0.3,0,0.4,0.1,0.4,0.3c0,0.1-0.1,0.2-0.2,0.3l-4.6,4.7
			c-0.1,0.1-0.1,0.2-0.1,0.3c0,0.1,0,0.1,0,0.2l6.4,10.4C461.5,175,461.5,175.1,461.5,175.2z"/>
		<path class="st0" d="M467.5,152.9c0,0.5-0.2,0.9-0.5,1.2c-0.3,0.3-0.7,0.5-1.2,0.5c-0.5,0-0.8-0.2-1.2-0.5
			c-0.3-0.3-0.5-0.7-0.5-1.2c0-0.5,0.2-0.8,0.5-1.2c0.3-0.3,0.7-0.5,1.1-0.5c0.5,0,0.9,0.2,1.2,0.5
			C467.3,152,467.5,152.4,467.5,152.9z M466.7,175.5h-1.8c-0.3,0-0.4-0.1-0.4-0.4v-16c0-0.3,0.1-0.4,0.4-0.4h1.8
			c0.3,0,0.4,0.1,0.4,0.4v16C467.1,175.4,466.9,175.5,466.7,175.5z"/>
		<path class="st0" d="M484.9,175.5h-1.8c-0.3,0-0.4-0.1-0.4-0.4v-10.2c0-0.5-0.1-1-0.3-1.5c-0.2-0.5-0.5-0.9-0.9-1.3
			c-0.4-0.4-0.8-0.7-1.3-0.9c-0.5-0.2-1-0.3-1.6-0.3c-0.6,0-1.1,0.1-1.6,0.3c-0.5,0.2-0.9,0.5-1.3,0.9c-0.4,0.4-0.6,0.8-0.8,1.3
			c-0.2,0.5-0.3,1-0.3,1.6v10.2c0,0.3-0.1,0.4-0.4,0.4h-1.8c-0.2,0-0.4-0.1-0.4-0.4v-16c0-0.3,0.1-0.4,0.4-0.4h1.4
			c0.3,0,0.4,0.1,0.4,0.4v1.5c0,0.3,0.1,0.4,0.3,0.4c0.1,0,0.3-0.1,0.5-0.2c0.2-0.2,0.4-0.4,0.7-0.6c0.4-0.4,0.9-0.7,1.3-1
			c0.4-0.3,1.1-0.5,2-0.5c0.9,0,1.7,0.2,2.5,0.5c0.8,0.3,1.4,0.7,2,1.3c0.6,0.5,1,1.2,1.4,2c0.3,0.8,0.5,1.6,0.5,2.5v10.2
			C485.3,175.4,485.2,175.5,484.9,175.5z"/>
		<path class="st0" d="M502.4,176.4c-0.9-0.8-2.1-1.3-3.5-1.3h-4.8c-0.9-0.4-1.4-1-1.4-1.8c0-0.7,0.5-1.4,1.4-1.8
			c0.2,0,0.4,0,0.6,0.1c0.2,0,0.4,0,0.6,0c1,0,1.9-0.2,2.7-0.5c0.8-0.3,1.5-0.8,2.1-1.3c0.6-0.6,1-1.2,1.4-2
			c0.3-0.7,0.5-1.6,0.5-2.4v-4.4h0.6c0.3,0,0.4-0.1,0.4-0.4v-1.4c0-0.3-0.1-0.4-0.4-0.4h-1H501h-0.8c-0.3,0-4.2,0-5.1,0
			c-0.9,0-1.7,0.2-2.4,0.5c-0.8,0.3-1.4,0.8-2,1.3c-0.6,0.6-1,1.2-1.3,2c-0.3,0.8-0.5,1.6-0.5,2.4v0.4c0,0.7,0.3,1.6,0.5,2.1
			c0.4,1.3,1.5,2.2,1.8,2.6c0.3,0.4,0.5,0.6,0.5,0.6c0,0.1-0.1,0.2-0.2,0.4c-0.1,0.1-0.2,0.3-0.3,0.5c-0.1,0.2-0.2,0.5-0.3,0.8
			c-0.1,0.3-0.2,0.6-0.2,1c0,0.6,0.1,1.1,0.4,1.4c0.3,0.4,0.4,0.7,0.4,0.9c0,0.1-0.1,0.3-0.4,0.5c-0.3,0.2-0.7,0.6-1.2,1
			c-0.3,0.3-0.5,0.6-0.7,1.1c-0.2,0.5-0.2,0.9-0.2,1.4c0,0.6,0.1,1.2,0.4,1.7c0.2,0.5,0.6,1,1,1.4c0.4,0.4,0.9,0.7,1.5,0.9
			c0.6,0.2,1.2,0.3,1.9,0.3h5.3c0.7,0,1.4-0.1,1.9-0.3c0.6-0.2,1.1-0.5,1.5-0.9c0.4-0.4,0.8-0.9,1-1.4c0.2-0.5,0.4-1.1,0.4-1.8
			C503.8,178.3,503.3,177.2,502.4,176.4z M491.4,165.3v-0.4c0-0.6,0.1-1.1,0.3-1.6c0.2-0.5,0.5-0.9,0.8-1.3c0.4-0.4,0.8-0.6,1.3-0.9
			c0.5-0.2,1-0.3,1.6-0.3c0.6,0,1.1,0.1,1.6,0.3c0.5,0.2,0.9,0.5,1.3,0.9c0.4,0.4,0.6,0.8,0.9,1.3c0.2,0.5,0.3,1,0.3,1.5v0.4
			c0,0.6-0.1,1.1-0.3,1.6c-0.2,0.5-0.5,0.9-0.9,1.3c-0.4,0.4-0.8,0.7-1.3,0.9c-0.5,0.2-1,0.3-1.6,0.3c-0.6,0-1.1-0.1-1.6-0.3
			c-0.5-0.2-0.9-0.5-1.3-0.9c-0.4-0.4-0.7-0.8-0.9-1.3C491.5,166.4,491.4,165.9,491.4,165.3z M500.6,181.2c-0.4,0.4-1,0.7-1.6,0.7
			h-5.3c-0.6,0-1.2-0.2-1.6-0.6c-0.4-0.4-0.6-1-0.6-1.7c0-0.7,0.2-1.2,0.6-1.6c0.4-0.4,1-0.6,1.6-0.6h5.3c0.6,0,1.2,0.2,1.6,0.6
			c0.4,0.4,0.7,1,0.7,1.6C501.2,180.2,501,180.8,500.6,181.2z"/>
		<path class="st0" d="M509,174.2c0,0.5-0.2,1-0.5,1.3c-0.4,0.4-0.8,0.5-1.4,0.5c-0.5,0-0.9-0.2-1.3-0.5c-0.4-0.4-0.5-0.8-0.5-1.3
			c0-0.5,0.2-0.9,0.5-1.3c0.4-0.4,0.8-0.5,1.3-0.5c0.6,0,1,0.2,1.4,0.5C508.8,173.2,509,173.7,509,174.2z"/>
		<path class="st0" d="M516.6,174.2c0,0.5-0.2,1-0.5,1.3c-0.4,0.4-0.8,0.5-1.4,0.5c-0.5,0-0.9-0.2-1.3-0.5c-0.4-0.4-0.5-0.8-0.5-1.3
			c0-0.5,0.2-0.9,0.5-1.3c0.4-0.4,0.8-0.5,1.3-0.5c0.6,0,1,0.2,1.4,0.5C516.4,173.2,516.6,173.7,516.6,174.2z"/>
		<path class="st0" d="M524.1,174.2c0,0.5-0.2,1-0.5,1.3c-0.4,0.4-0.8,0.5-1.4,0.5c-0.5,0-0.9-0.2-1.3-0.5c-0.4-0.4-0.5-0.8-0.5-1.3
			c0-0.5,0.2-0.9,0.5-1.3c0.4-0.4,0.8-0.5,1.3-0.5c0.6,0,1,0.2,1.4,0.5C523.9,173.2,524.1,173.7,524.1,174.2z"/>
	</g>
</g>
</svg>
