<?xml version="1.0" encoding="utf-8"?>
<!-- Generator: Adobe Illustrator 21.0.0, SVG Export Plug-In . SVG Version: 6.00 Build 0)  -->
<svg version="1.1" id="Livello_1" xmlns="http://www.w3.org/2000/svg" xmlns:xlink="http://www.w3.org/1999/xlink" x="0px" y="0px"
	 viewBox="0 0 2267.7 641.2" style="enable-background:new 0 0 2267.7 641.2;" xml:space="preserve">
<style type="text/css">
	.st0{clip-path:url(#SVGID_2_);fill:#D03773;}
	.st1{clip-path:url(#SVGID_2_);fill:#58595B;}
	.st2{fill:#58595B;}
	.st3{font-family:'PalatinoLinotype-Roman';}
	.st4{font-size:157.717px;}
	.st5{letter-spacing:-3;}
	.st6{fill:#D03773;}
</style>
<g>
	<defs>
		<rect id="SVGID_1_" width="2267.7" height="641.2"/>
	</defs>
	<clipPath id="SVGID_2_">
		<use xlink:href="#SVGID_1_"  style="overflow:visible;"/>
	</clipPath>
	<path class="st0" d="M1055.1,219.2c-0.1-5.8,0.6-11.4,2.4-16.8c0.2-0.7,0.6-1.5,0.8-2.2c0.1-0.2,0.2-0.6,0.5-0.5
		c0.3,0.1,0.2,0.4,0.2,0.6c0,0.6,0,1.2-0.1,1.9c-0.7,6-0.7,11.9,0,17.9c0.8,6.1,2,12.1,4.3,17.8c1.8,4.4,4.1,8.6,6.6,12.8
		c5.5,9.2,11.7,17.8,17.5,26.7c3.9,5.9,7.8,11.8,10.9,18.2c2.8,5.9,4.9,12.1,6.5,18.4c1.4,5.4,2.1,10.9,3.1,16.4
		c2.3,11.8,5,23.6,9.4,34.8c2.1,5.3,4.8,10.3,7.9,15.1c0.6,1,1.2,2,1.7,3c0.2,0.4,0.5,0.9,0.1,1.3c-0.4,0.4-0.9,0.1-1.3-0.1
		c-1.6-0.7-2.9-1.8-4.2-3c-5.2-4.8-9-10.6-12-17c-3.6-7.7-6.2-15.8-8.4-24c-1.7-6.7-2.9-13.4-4.2-20.2c-2.2-10.6-5.8-20.7-11.3-30
		c-6-10.2-12.5-20.2-18.3-30.6c-4-7.2-7.7-14.5-10-22.4c-1.1-3.7-1.6-7.6-2-11.4C1055.1,223.6,1055.1,221.4,1055.1,219.2"/>
	<path class="st0" d="M1022.6,169.5c-0.1-3.4,0.2-8.1,0.9-12.7c0.9-6.2,2.3-12.2,5.2-17.9c0.4-0.8,0.9-1.5,1.3-2.3
		c0.1-0.2,0.3-0.6,0.7-0.4c0.3,0.1,0.2,0.4,0.2,0.7c0,1.1-0.3,2.2-0.5,3.3c-1.4,7.4-1.9,14.9-1.7,22.5c0.1,5.8,0.8,11.5,1.6,17.2
		c1.1,7.6,2.8,15,4.7,22.4c2.5,9.5,5.1,18.8,8,28.2c1.3,4.3,2.5,8.7,4,13c1.2,3.2,2.6,6.3,4.1,9.4c0.4,0.8,0.7,1.6,0.9,2.4
		c0.1,0.4,0.2,0.8-0.1,1.1c-0.3,0.3-0.8,0.1-1.1,0c-2.1-0.9-3.7-2.5-5.3-4.1c-4.1-4.4-6.5-9.9-8.8-15.3c-2.3-5.4-4.2-10.9-5.9-16.5
		c-1.6-5.2-3-10.5-4.2-15.8c-0.9-4.2-1.8-8.5-2.5-12.8c-0.6-4.1-1.1-8.3-1.4-12.4C1022.6,176.4,1022.7,173.6,1022.6,169.5"/>
	<path class="st0" d="M1021.6,308.1c-5.4,0.1-10.9,0-16.3-0.2c-6-0.2-11.9-0.6-17.9-1.2c-4-0.4-8-0.7-12-1.3
		c-3.9-0.5-7.8-1.2-11.7-2.1c-5.5-1.2-11-2.6-16.3-4.4c-5.3-1.7-10.5-3.6-15.3-6.3c-0.5-0.3-1-0.7-1.5-1c-0.2-0.1-0.4-0.3-0.3-0.6
		c0.1-0.3,0.4-0.3,0.7-0.2c1.7,0.3,3.4,0.5,5,0.9c9.4,2,18.9,3.7,28.4,4.9c4.5,0.5,8.9,0.9,13.4,1.2c3.1,0.2,6.2,0.2,9.4,0.4
		c5.6,0.2,11.2,0.5,16.8,0.8c4.1,0.2,8.2,0.4,12.3,0.8c4.8,0.4,9.5,0.9,14.2,1.6c3,0.5,5.9,0.7,8.9,1.1c1.6,0.2,3.2,0.2,4.7,0.8
		c0.4,0.2,0.8,0.2,0.9,0.8c0.1,0.5-0.3,0.8-0.7,1.1c-1.9,1.3-4.1,1.7-6.2,2.2c-3.5,0.7-7,0.9-10.6,0.8
		C1025.4,308,1023.5,308.1,1021.6,308.1"/>
	<path class="st0" d="M1009.3,253.5c-3.5-0.1-6.9-1.1-10.2-2.2c-11.3-3.9-21.5-9.9-30.6-17.6c-6.5-5.4-12.5-11.3-18.1-17.5
		c-5.5-6.1-10.7-12.6-15.1-19.5c-1.2-1.8-2.3-3.6-3.1-5.6c-0.1-0.3-0.4-0.7,0-1c0.3-0.2,0.6,0.1,0.9,0.3c0.8,0.6,1.6,1.3,2.3,1.9
		c2.2,2.1,4.3,4.2,6.5,6.3c6,5.9,12.1,11.6,18.4,17.1c6.7,5.8,13.6,11.3,20.9,16.5c7.2,5.1,14.8,9.6,22.4,14.1
		c2.4,1.4,4.8,2.8,7,4.5c0.7,0.5,1.6,1.1,1.2,2c-0.3,0.9-1.4,0.8-2.2,0.8C1009.4,253.5,1009.4,253.5,1009.3,253.5"/>
	<path class="st0" d="M998.8,143.9c-0.1,5.1,0,10.3,0.7,15.4c1.7,12,5.5,23.4,10,34.6c3.8,9.5,7.4,19.1,10.5,28.9
		c1.2,3.7,2.2,7.4,2.7,11.3c0.1,1,0.2,2.1-0.1,3.1c-0.3,0.9-0.8,1.1-1.6,0.5c-1-0.7-1.7-1.8-2.4-2.8c-3.2-4.6-5.6-9.6-7.9-14.6
		c-3.7-7.8-6.8-15.9-9.8-24.1c-2.3-6.5-4.1-13.2-5.4-20c-1.3-6.7-1.9-13.4-1.5-20.2c0.3-4.9,1-9.6,3-14.2c0.2-0.5,0.4-1.5,1-1.4
		c0.8,0.1,0.5,1.1,0.6,1.7C998.9,142.8,998.8,143.4,998.8,143.9"/>
	<path class="st0" d="M961.2,363.1c-0.4,0-0.8,0.1-0.9-0.2c-0.2-0.4,0.2-0.6,0.4-0.8c2-1.6,4.1-2.9,6.3-4.2
		c9.1-5.3,18.5-9.9,28.1-14.1c6.4-2.8,12.8-5.5,19.5-7.7c6.9-2.2,14-3.7,21.2-4.5c4.6-0.5,9.3-0.6,13.9-0.2c1.9,0.2,3.8,0.4,5.5,1.1
		c0.3,0.1,0.6,0.2,0.8,0.3c0.5,0.2,1,0.5,1,1.1c0,0.6-0.5,0.9-1,1.1c-1.7,0.8-3.5,1.2-5.3,1.5c-6.9,1.4-13.8,2.8-20.7,4.5
		c-8.6,2.1-17.1,4.7-25.5,7.6c-10.7,3.7-21.3,7.4-32,11.1c-3.4,1.2-6.7,2.3-10.2,3.2C961.9,363,961.5,363,961.2,363.1"/>
	<path class="st0" d="M1017.7,274.4c-3.6,0-7.2-0.8-10.7-1.6c-9.4-2.4-18.4-5.9-27.1-10.3c-7.6-3.8-14.9-8.3-22.2-12.8
		c-7.6-4.7-15.1-9.6-22.3-15c-1.7-1.3-3.4-2.6-4.9-4c-0.3-0.3-0.7-0.5-0.4-1c0.2-0.4,0.7-0.2,1-0.1c2.6,0.7,5.1,1.8,7.5,2.9
		c12.2,5.5,24.1,11.6,36.1,17.6c8.8,4.4,17.8,8.5,26.8,12.5c4.4,2,8.8,4,13.2,6.1c2,1,4,1.9,5.6,3.5c0.4,0.4,0.9,0.7,0.7,1.3
		c-0.2,0.6-0.8,0.7-1.4,0.8C1019,274.4,1018.3,274.4,1017.7,274.4"/>
	<path class="st0" d="M1002.7,231.3c-1.8-0.3-3.5-1.3-5.2-2.4c-5.6-3.5-10.5-7.9-15.1-12.6c-7.5-7.5-13.8-16-19.3-25
		c-4.8-8-8.9-16.3-12.2-25c-1.3-3.5-2.5-7.1-3.2-10.8c0-0.2-0.1-0.3-0.1-0.5c0-0.3-0.1-0.7,0.3-0.9c0.4-0.2,0.6,0.1,0.8,0.4
		c1,1.2,1.8,2.5,2.6,3.9c4.6,7.4,9.1,14.9,14,22.1c4.6,6.8,9.6,13.3,14.8,19.7c3.9,4.8,7.9,9.4,12,14.1c3.6,4.1,7.3,8.2,10.4,12.7
		c0.6,0.9,1.2,1.8,1.5,2.8C1004.3,230.7,1003.9,231.3,1002.7,231.3"/>
	<path class="st0" d="M1199.7,388.8c-3.4,0.1-6.8-0.2-10-1.6c-0.5-0.3-1.5-0.4-1.3-1.2c0.1-0.8,1-0.7,1.6-0.8
		c3.2-0.5,6.3-0.6,9.5-1.1c5.2-0.9,10.2-2.3,14-6.2c3.1-3.1,5.5-6.8,7.4-10.7c2.1-4.4,3.3-9.1,4.4-13.8c2.1-9,3.9-18,6.2-26.9
		c1.6-6.1,3.7-12,6.9-17.5c1.3-2.3,2.9-4.4,4.7-6.3c0.2-0.2,0.4-0.7,0.8-0.4c0.3,0.2,0,0.6-0.1,0.8c-1.2,3-2.7,5.8-3.8,8.9
		c-1.7,4.8-3,9.8-3.8,14.8c-0.6,3.6-1.3,7.2-1.8,10.9c-0.7,5-1.6,10-2.5,14.9c-1.3,7-3,13.9-6.3,20.3c-3.5,6.9-8.6,11.9-16,14.6
		c-2.3,0.8-4.7,1.3-7.2,1.4C1201.6,388.9,1200.6,388.8,1199.7,388.8"/>
	<path class="st0" d="M965.3,333.7c-0.5,0-0.9,0-1.4,0c-0.3,0-0.7,0-0.8-0.4c-0.1-0.4,0.2-0.5,0.5-0.7c1.7-1.2,3.7-2,5.6-2.8
		c6.3-2.6,12.8-4.8,19.4-6.7c4.9-1.4,9.9-2.7,14.9-3.9c5.7-1.2,11.4-2.1,17.2-2.6c4.2-0.4,8.4-0.4,12.6-0.3
		c3.7,0.1,7.5,0.5,11.1,1.5c0.7,0.2,1.3,0.5,2,0.9c1,0.6,1,1.3,0,1.9c-1.2,0.8-2.7,1.2-4.1,1.5c-6,1.3-12,2-18,2.8
		c-5.7,0.8-11.5,1.5-17.2,2.4c-6.2,0.9-12.4,1.9-18.5,2.9c-4.3,0.7-8.6,1.5-12.9,2.2C972.1,332.9,968.7,333.5,965.3,333.7"/>
	<path class="st0" d="M1011.8,293.8c-5.5,0-10.9-1-16.2-2.3c-6.3-1.6-12.5-3.7-18.5-6.3c-8.6-3.8-16.6-8.3-24.2-13.8
		c-2.9-2.1-5.7-4.4-8.4-6.9c-0.7-0.7-1.3-1.5-2-2.3c-0.2-0.2-0.4-0.5-0.2-0.8c0.2-0.3,0.5-0.2,0.8-0.1c1.5,0.4,2.9,1.1,4.2,1.7
		c5,2.3,9.9,4.7,14.9,7c7,3.2,14.1,6,21.4,8.4c8.5,2.8,16.9,5.6,25.4,8.5c2.8,1,5.7,2,8.2,3.7c0.6,0.4,1.1,0.8,1,1.5
		c-0.1,0.8-0.8,1-1.4,1.2C1015.1,293.9,1013.5,293.8,1011.8,293.8"/>
	<path class="st0" d="M1053.7,370c1.8,0,3.5,0.1,5.2,0.4c0.3,0,0.5,0.1,0.7,0.2c0.5,0.2,1.1,0.4,1.2,1.1c0.1,0.7-0.4,1-0.9,1.4
		c-2.2,1.6-4.8,2.4-7.3,3.3c-9.1,3.1-18.5,5.4-27.8,7.7c-8.6,2.1-17.1,4.6-25.4,7.6c-4.5,1.6-9,3.1-13.5,4.7
		c-0.5,0.2-1.1,0.3-1.6,0.4c-0.3,0.1-0.7,0.2-0.9-0.1c-0.2-0.3,0-0.6,0.2-0.9c0.9-1.1,2.1-2,3.2-2.8c8.2-6.1,17.3-10.6,26.8-14.3
		c7-2.7,14.3-4.8,21.6-6.3c5.1-1.1,10.2-2,15.4-2.3C1051.7,370.1,1052.8,370,1053.7,370"/>
	<path class="st0" d="M1042,351.9c3.3-0.1,6.6,0.2,9.8,1.2c0.6,0.2,1.2,0.4,1.7,0.9c1,0.8,0.9,1.6-0.2,2.2c-1.5,0.8-3.2,1.2-4.9,1.6
		c-7.6,1.7-15.3,3.3-22.8,5.4c-5.2,1.5-10.4,3.3-15.5,5.1c-8.8,3.1-17.3,6.8-25.9,10.2c-1.1,0.4-2.2,0.9-3.3,1.1
		c-0.4,0.1-0.9,0.3-1.2-0.1c-0.3-0.5,0.2-0.8,0.5-1.1c1.3-1.4,2.7-2.6,4.2-3.7c10-7.6,21-13.4,32.7-18c5.8-2.3,11.7-3.7,17.9-4.4
		C1037.2,352,1039.5,351.8,1042,351.9"/>
	<path class="st0" d="M1213.1,337.4c0.1-10.3,1.7-20.4,5.6-30c2.6-6.5,6-12.4,11-17.4c0.4-0.4,0.8-0.8,1.4-1.1
		c0.2-0.1,0.4-0.2,0.6,0c0.2,0.2,0.1,0.4,0,0.6c-0.6,1.4-1.3,2.8-1.9,4.2c-3.1,6.4-5.6,13.1-7.2,20c-0.9,3.8-1.4,7.7-1.9,11.6
		c-0.8,5.5-1.4,11-2,16.5c-0.3,2.7-0.6,5.4-1.3,8.1c-0.1,0.6-0.4,1.1-0.7,1.6c-0.4,0.6-1,0.6-1.4,0c-0.3-0.5-0.5-1-0.7-1.5
		C1213.4,345.8,1213,341.6,1213.1,337.4"/>
	<path class="st0" d="M1195.9,335.8c0.3-10.5,3.1-20.3,8.5-29.4c1.2-1.9,2.4-3.8,4-5.4c0.3-0.3,0.6-0.8,1.1-0.4
		c0.4,0.3,0.1,0.7,0,1.1c-1.3,4.1-2.8,8.1-3.9,12.2c-1.4,5.1-2.4,10.3-2.7,15.6c-0.2,3.2-0.5,6.4-0.4,9.6c0.2,4.1,0.4,8.1,0.9,12.2
		c0.2,1.6,0.4,3.3,0.2,5c0,0.4-0.1,0.7-0.2,1c-0.3,0.6-0.8,0.8-1.3,0.3c-0.7-0.6-1.3-1.3-1.7-2.1c-2.4-4.5-3.6-9.3-4.2-14.3
		C1195.9,339.3,1195.9,337.5,1195.9,335.8"/>
	<path class="st0" d="M1189.5,359.4c0,1.2-0.7,1.7-1.7,1.3c-2-0.8-3.5-2.4-4.8-4c-2.6-3.1-4.5-6.6-6-10.4c-1.6-4.2-2.3-8.5-2.9-12.9
		c-0.4-3.3-0.5-6.6-0.4-9.8c0.1-1.7,0.3-3.4,0.7-5c0.1-0.3,0.1-0.7,0.5-0.7c0.4,0,0.6,0.4,0.7,0.7c0.7,1.8,1.1,3.6,1.6,5.4
		c1.9,7.7,4,15.3,7,22.7c1.3,3.2,2.8,6.3,4.2,9.5C1188.8,357.1,1189.2,358.3,1189.5,359.4"/>
	<path class="st0" d="M1175.7,363.8c-1.9-0.3-3.8-1-5.6-2c-4.5-2.6-7.9-6.4-10.4-11c-2.3-4.1-4-8.5-5-13.1c-0.4-2-0.7-4.1-0.6-6.2
		c0-0.3,0-0.5,0.1-0.8c0.1-0.3,0.1-0.8,0.6-0.8c0.4-0.1,0.5,0.3,0.7,0.6c1.2,1.9,2,3.9,3,5.8c3.1,6.1,6.8,11.7,11.2,16.9
		c2,2.4,4.1,4.7,6.4,6.9c0.5,0.5,0.9,1,1.2,1.5C1177.9,363,1177.4,363.8,1175.7,363.8"/>
	<path class="st0" d="M1128.2,349.5c3.6,0.2,7.1,1.1,10.6,2.3c7,2.3,13.4,5.9,19.5,9.9c1.3,0.9,2.5,1.9,3.8,2.9
		c0.7,0.6,1.1,1.3,1.6,2.1c0.6,1.1-0.2,2-1.6,1.9c-1.6-0.1-3.1-0.5-4.6-1c-5.2-1.8-10-4.5-14.6-7.5c-4.5-2.9-9.2-5.4-13.8-8.1
		c-0.6-0.3-1.2-0.7-1.7-1.1c-0.3-0.2-0.7-0.5-0.6-0.9c0.1-0.5,0.7-0.4,1.1-0.5C1128,349.5,1128.1,349.5,1128.2,349.5"/>
	<path class="st0" d="M1129.3,365.5c6,0.2,11.9,1,17.5,3.6c2,0.9,3.9,2.1,5.5,3.7c1.1,1.2,1.1,2.2,0.1,2.9c-0.5,0.3-1,0.4-1.6,0.4
		c-2.8,0-5.5-0.8-8.1-1.7c-5.4-1.9-10.8-3.8-16.1-6c-0.8-0.3-1.6-0.7-2.2-1.2c-0.7-0.5-0.6-0.9,0.2-1.2
		C1126.1,365.6,1127.7,365.6,1129.3,365.5"/>
	<path class="st1" d="M1008.1,434c0.9-0.6,1.9-1,3-1.4c6.3-2.3,12.7-2.4,19.3-2c5.7,0.4,11.3,1.5,16.8,2.7c7,1.6,14,3.1,20.9,4.7
		c8.2,1.9,16.6,2.4,24.9,1.9c5.1-0.2,10.1-1,15.1-1.8c4.7-0.7,9.4-1.6,13.8-3.3c2.2-0.8,4.3-1.7,6.5-2.5c0.5-0.2,1.2-0.7,1.6-0.1
		c0.3,0.6-0.3,1.1-0.8,1.4c-1.8,1.5-3.8,2.6-5.8,3.5c-5.6,2.6-11.5,4.4-17.6,5.6c-4.8,0.9-9.6,1.3-14.4,1.7c-4.4,0.3-8.6-0.2-13-0.5
		c-7.4-0.6-14.6-2.7-21.7-4.6c-6.8-1.8-13.5-3.7-20.4-5.2c-5.9-1.3-12-1.9-18-1.6c-3,0.1-6,0.6-8.9,1.4c-0.4,0.1-0.8,0.1-1.2,0.2
		C1008.2,434.2,1008.1,434.1,1008.1,434"/>
	<path class="st1" d="M934.9,417.9c-6.5,0.1-12.1,0.6-17.6,1.3c-4.7,0.6-9.4,1.5-14.2,2.1c-0.1,0-0.3,0.1-0.4,0.1
		c-0.3,0-0.6,0.1-0.7-0.2c-0.1-0.3,0.2-0.4,0.4-0.5c1-0.5,2.1-0.9,3.1-1.3c7.1-2.6,14.4-4.3,21.9-5.3c6.4-0.8,12.7-0.9,19,0.6
		c3.8,0.9,7.3,2.4,10.3,5.1c0.6,0.6,1.2,1.2,1.6,2c0.2,0.3,0.3,0.6,0.1,0.9c-0.3,0.3-0.7,0.2-1,0.1c-1.5-0.6-2.9-1.3-4.4-1.9
		c-4.3-1.7-8.8-2.4-13.3-2.7C937.9,418.1,936,417.8,934.9,417.9"/>
	<path class="st1" d="M1137.5,427.7c0.4-0.3,0.8,0,1.1,0.1c2.3,0.9,4.8,1.3,7.3,1.4c2.8,0.1,5.4-0.6,8-1.5c4.8-1.6,9-4.2,13.4-6.6
		c4.6-2.6,9.1-5.2,14.2-6.7c3.3-1,6.7-1.5,10.1-0.6c0.6,0.2,1.3,0.4,1.8,0.8c0.6,0.4,0.5,0.8-0.1,1c-0.7,0.2-1.4,0.3-2.1,0.4
		c-4,0.5-7.8,1.7-11.3,3.5c-5.1,2.6-10.1,5.2-15.2,7.8c-4.7,2.3-9.5,4.1-14.8,4.5c-4.2,0.3-8.1-0.8-11.6-3.3
		C1137.9,428.3,1137.5,428.1,1137.5,427.7"/>
	<path class="st1" d="M1196.2,397.1c-0.1,0.5-0.5,0.3-0.8,0.2c-1.9-0.8-3.9-1.6-5.8-2.3c-2.4-0.9-4.9-1.6-7.5-2.2
		c-4.6-1.1-9.2-1.2-13.9-1.2c-1.7,0-3.5-0.4-5.2-0.6c-2.1-0.3-4.1-0.7-6.2-1.2c-2.3-0.6-4.6-1.3-6.9-2.2c-2.8-1.1-5.4-2.4-8-3.9
		c-0.1-0.1-0.3-0.1-0.4-0.3c-0.2-0.1-0.5-0.3-0.4-0.5c0.1-0.3,0.4-0.2,0.7-0.1c2.1,0.7,4.1,1.4,6.2,1.9c2.1,0.5,4.1,1.1,6.2,1.5
		c2.7,0.5,5.4,0.9,8.1,1.2c1.8,0.2,3.6,0.3,5.3,0.3c3.1-0.1,6.2,0.2,9.3,0.5c3.9,0.4,7.9,0.9,11.5,2.9c2.5,1.4,4.9,2.9,6.9,5
		C1195.8,396.2,1196.1,396.6,1196.2,397.1"/>
	<path class="st1" d="M966.1,415c-1.8,0-3.6,0.2-5.4,0c-4.2-0.6-8.4-1.4-12.5-2.8c-3-1.1-6.1-1.8-9.2-2.6c-3.4-0.9-6.9-1.5-10.4-2.2
		c-1.9-0.4-3.9-0.6-5.8-0.9c-0.3,0-0.8,0-0.8-0.4c0-0.4,0.5-0.4,0.8-0.4c3.4-0.2,6.9-0.2,10.3,0.1c3.6,0.3,7.3,0.9,10.9,1.6
		c4.1,0.8,8,2.1,12.1,2.9c2.1,0.4,4.1,0.8,6.2,1c3.1,0.3,6.1,0.5,9.2,0.9c1.7,0.2,3.5,0,5.2,0.5c0.3,0.1,0.6,0,0.7,0.4
		c0,0.3-0.3,0.5-0.5,0.6c-1.1,0.6-2.4,0.8-3.6,1.1C971,415.1,968.6,415.1,966.1,415"/>
	<path class="st1" d="M992.7,432.1c-4.9-0.1-9.6-1-13.9-3.6c-0.1,0-0.2-0.1-0.3-0.1c-0.3-0.3-1-0.5-0.8-0.9c0.2-0.5,0.8-0.1,1.2,0
		c4.5,0.9,8.9,1.6,13.6,1c4.7-0.6,9.2-1.9,13.6-3.4c3.9-1.3,7.7-2.8,11.5-4.2c0.7-0.3,1.7-0.7,2.1,0.1c0.4,0.7-0.5,1.2-1,1.7
		c-2.6,2.6-5.8,4.3-9.1,5.8c-3.9,1.7-8,2.8-12.2,3.4C995.9,432,994.3,432.1,992.7,432.1"/>
	<path class="st1" d="M999.1,422.9c-5.6-0.1-11.1-1-16.4-2.6c-2-0.6-3.9-1.3-5.8-2.2c-0.4-0.2-0.7-0.4-1-0.6
		c-0.1-0.1-0.3-0.2-0.2-0.4c0-0.2,0.2-0.3,0.4-0.3c0.3,0,0.6,0,1,0c3.6,0.1,7.2,0.6,10.8,0.9c2.4,0.2,4.8,0.3,7.2,0.5
		c3.3,0.4,6.7,0.7,9.8,1.9c0.6,0.2,1.4,0.5,1.3,1.2c-0.1,0.8-1,0.9-1.6,1.1C1002.7,422.8,1000.9,423,999.1,422.9"/>
	<path class="st1" d="M944.6,422.4c4.2,0.1,8.4,0.5,12.4,2c0.6,0.2,1.3,0.5,1.8,1c0.8,0.6,0.7,1.3-0.2,1.7c-0.6,0.3-1.3,0.4-2,0.4
		c-3.9,0.2-7.7-0.3-11.6-0.9c-3.3-0.5-6.7-0.7-10-1.1c-0.7-0.1-1.4-0.2-2.1-0.3c-0.3,0-0.7,0-0.7-0.4c0-0.3,0.3-0.4,0.6-0.6
		c1-0.5,2.1-0.8,3.3-1C938.8,422.7,941.7,422.3,944.6,422.4"/>
	<path class="st1" d="M1129.5,412.3c-3.1-0.1-7.8-1-12.1-3.2c-0.5-0.2-1.3-0.5-1.1-1.1c0.2-0.6,1-0.5,1.6-0.4
		c3.8,0.4,7.6,0.4,11.4,0.3c3.6,0,7.2-0.6,10.8-0.9c0.7-0.1,1.4-0.1,2,0.1c1,0.3,1.1,0.8,0.5,1.6c-0.5,0.5-1,0.9-1.6,1.2
		C1138,411.7,1134.7,412.4,1129.5,412.3"/>
	<path class="st1" d="M957.8,436.1c-1.4,0-2.7,0-4.1,0c-0.4,0-1.1,0.1-1.2-0.5c-0.1-0.5,0.5-0.7,0.9-0.9c1.9-1,3.9-1.6,6-2
		c5.2-0.9,10.4-0.5,15.4,1.1c0.7,0.2,1.3,0.5,1.9,1c0.9,0.7,0.8,1.4-0.2,1.8c-0.9,0.4-1.9,0.5-3,0.5c-3.5,0.1-7-0.3-10.5-0.8
		C961.3,436.1,959.5,436.2,957.8,436.1"/>
	<path class="st1" d="M1198.4,411.2c-3.4-0.1-6.9-0.4-10.2-1.6c-0.6-0.2-1.2-0.5-1.7-0.9c-0.4-0.2-0.7-0.6-0.6-1.1
		c0.1-0.5,0.5-0.7,0.9-0.8c1.2-0.5,2.5-0.5,3.8-0.4c3.3,0.1,6.6,0.1,9.9,0.9c2.8,0.7,5.5,1.6,7.6,3.8c0.7,0.8,1.2,1.6,1.5,2.6
		c0.1,0.3,0.3,0.6,0,0.8c-0.3,0.2-0.5-0.1-0.8-0.2c-1.4-1-2.9-1.8-4.6-2.4C1202.2,411.3,1200.4,411,1198.4,411.2"/>
	<path class="st1" d="M1200.3,399.6c5.6,0.2,10.7,3.8,12.4,9.3c0.7,2.1,1.1,4.3,0.4,6.5c-0.1,0.2-0.1,0.5-0.2,0.7
		c-0.1,0.3-0.2,0.7-0.6,0.6c-0.4,0-0.4-0.4-0.4-0.7c-0.7-2.2-1.4-4.5-2.7-6.5c-1.7-2.6-4.1-4.2-6.8-5.5c-1.4-0.7-2.8-1.3-4.2-2
		c-0.5-0.3-1.1-0.6-1-1.3c0.1-0.7,0.8-0.8,1.3-1C1199.2,399.7,1199.9,399.6,1200.3,399.6"/>
	<path class="st1" d="M1128.6,421.3c-0.6,0-1.1,0-1.7,0c-0.2,0-0.5-0.1-0.5-0.4c0-0.2,0.1-0.4,0.3-0.5c0.3-0.2,0.6-0.5,1-0.6
		c4.2-2.2,8.4-4.4,12.7-6.5c1.7-0.9,3.5-1.5,5.5-1.7c0.2,0,0.3-0.1,0.5-0.1c0.6,0,1.3-0.1,1.6,0.6c0.3,0.6-0.2,1.1-0.6,1.5
		c-1.5,1.6-3.4,2.7-5.4,3.7c-3.6,1.9-7.4,3.3-11.4,3.9C1129.9,421.3,1129.3,421.3,1128.6,421.3
		C1128.6,421.3,1128.6,421.3,1128.6,421.3"/>
	<path class="st1" d="M1137.9,403.7c-3.5-0.1-7.1-0.2-10.6-0.8c-0.1,0-0.3,0-0.4-0.1c-0.4-0.1-0.8-0.2-0.9-0.6
		c-0.1-0.5,0.4-0.6,0.8-0.8c1.8-0.8,3.8-1.2,5.8-1.6c2.6-0.5,5.2-0.6,7.8-0.5c1.5,0.1,2.9,0.4,4.2,1.1c0.6,0.3,1.3,0.6,1.2,1.4
		c-0.1,0.8-0.8,1.1-1.4,1.3C1142.3,403.7,1140.1,403.8,1137.9,403.7"/>
	<path class="st1" d="M1142.9,397.8c-4.7-0.7-9.5-0.6-14.2-2c-0.7-0.2-1.9-0.3-1.8-1.1c0-0.9,1.1-0.7,1.8-0.9c2.8-0.7,5.7-0.9,8.5-1
		c2.6-0.1,5,0.6,7.2,2.1c0.6,0.5,1.5,1,1.2,1.9c-0.3,1-1.3,1-2.1,1C1143.2,397.9,1143,397.8,1142.9,397.8"/>
	<path class="st1" d="M997.7,414.3c-4.8-0.3-9.2-1.7-13-4.8c-0.3-0.3-0.8-0.5-0.5-1c0.2-0.4,0.6-0.4,1-0.3c4.1,0.6,8.3,1,12.4,1.9
		c1.2,0.3,2.4,0.7,3.4,1.4c0.5,0.3,0.9,0.7,0.9,1.3c0,0.6-0.6,0.9-1.1,1.1C999.8,414.2,998.7,414.3,997.7,414.3"/>
	<path class="st1" d="M1137.4,425.8c-1.8,0-3.5-0.2-5.2-0.9c-0.3-0.1-0.8-0.2-0.8-0.7c0-0.5,0.5-0.6,0.8-0.7
		c2.7-0.7,5.4-1.3,8.1-2.3c1.9-0.7,3.9-1.4,5.9-2c0.7-0.2,1.4-0.3,2.1-0.2c1,0.1,1.3,0.7,0.9,1.6c-0.6,1.4-1.9,2.1-3.1,2.8
		C1143.5,425.1,1140.5,425.8,1137.4,425.8"/>
	<path class="st1" d="M1145.9,392.8c-3-0.2-5.4-1.4-7.5-3.2c-1.7-1.4-3.3-2.8-4.6-4.5c-0.1-0.1-0.2-0.2-0.3-0.4
		c-0.2-0.4-0.6-0.7-0.3-1.1c0.3-0.4,0.8-0.2,1.2-0.1c2.7,0.8,5.2,2.1,7.6,3.5c1.6,0.8,3.2,1.6,4.6,2.7c0.1,0,0.1,0.1,0.2,0.1
		c0.7,0.5,1.4,1.2,1.1,2.1C1147.6,392.8,1146.6,392.7,1145.9,392.8"/>
	<path class="st1" d="M1179.4,395.4c3.1,0.3,6.3,1.1,8.9,3.3c1.2,1,2.4,2,4.1,2.1c0.3,0,0.6,0.1,0.7,0.5c0,0.4-0.3,0.5-0.6,0.6
		c-1,0.5-2,0.4-3,0.1c-1.6-0.6-2.8-1.7-4.3-2.5c-3.4-1.8-7-2.8-10.9-2.1c-0.3,0-0.7,0.3-0.8-0.1c-0.1-0.4,0.4-0.5,0.7-0.7
		C1175.8,395.8,1177.5,395.5,1179.4,395.4"/>
	<path class="st1" d="M1184.2,402.6c0,0.1,0,0.1,0,0.2c0,0.8,0.1,1.8-0.9,2.2c-0.9,0.4-1.7-0.2-2.4-0.8c-0.2-0.2-0.4-0.4-0.5-0.6
		c-0.9-1.1-0.9-2.5,0-3.2c0.8-0.7,2.7-0.4,3.4,0.4C1184.3,401.4,1184.2,402,1184.2,402.6"/>
</g>
<text transform="matrix(1 0 0 1 169.5991 429.8721)" class="st2 st3 st4">C</text>
<text transform="matrix(1 0 0 1 277.4775 429.8721)"><tspan x="0" y="0" class="st2 st3 st4 st5">ON</tspan><tspan x="247.2" y="0" class="st2 st3 st4 st5">D</tspan><tspan x="365.4" y="0" class="st2 st3 st4 st5">O</tspan><tspan x="485.5" y="0" class="st2 st3 st4">R</tspan></text>
<text transform="matrix(1 0 0 1 1271.0947 429.8721)" class="st6 st3 st4">B</text>
<text transform="matrix(1 0 0 1 1363.5166 429.8721)"><tspan x="0" y="0" class="st6 st3 st4 st5">UL</tspan><tspan x="211.4" y="0" class="st6 st3 st4 st5">G</tspan><tspan x="327.9" y="0" class="st6 st3 st4 st5">ARI</tspan><tspan x="597.7" y="0" class="st6 st3 st4">A</tspan></text>
</svg>
