<?xml version="1.0" encoding="UTF-8" standalone="no"?>
<svg
   xmlns:sketch="http://www.bohemiancoding.com/sketch/ns"
   xmlns:dc="http://purl.org/dc/elements/1.1/"
   xmlns:cc="http://creativecommons.org/ns#"
   xmlns:rdf="http://www.w3.org/1999/02/22-rdf-syntax-ns#"
   xmlns:svg="http://www.w3.org/2000/svg"
   xmlns="http://www.w3.org/2000/svg"
   xmlns:sodipodi="http://sodipodi.sourceforge.net/DTD/sodipodi-0.dtd"
   xmlns:inkscape="http://www.inkscape.org/namespaces/inkscape"
   width="122.22007"
   height="113.38583"
   viewBox="0 0 122.22007 113.38583"
   version="1.1"
   id="svg899"
   sodipodi:docname="gitlab.svg"
   inkscape:version="0.92.4 5da689c313, 2019-01-14">
  <metadata
     id="metadata903">
    <rdf:RDF>
      <cc:Work
         rdf:about="">
        <dc:format>image/svg+xml</dc:format>
        <dc:type
           rdf:resource="http://purl.org/dc/dcmitype/StillImage" />
        <dc:title>Group</dc:title>
      </cc:Work>
    </rdf:RDF>
  </metadata>
  <sodipodi:namedview
     pagecolor="#ffffff"
     bordercolor="#666666"
     borderopacity="1"
     objecttolerance="10"
     gridtolerance="10"
     guidetolerance="10"
     inkscape:pageopacity="0"
     inkscape:pageshadow="2"
     inkscape:window-width="1920"
     inkscape:window-height="1023"
     id="namedview901"
     showgrid="false"
     inkscape:zoom="1"
     inkscape:cx="206.52744"
     inkscape:cy="265.95776"
     inkscape:window-x="0"
     inkscape:window-y="0"
     inkscape:window-maximized="1"
     inkscape:current-layer="svg899"
     fit-margin-top="0"
     fit-margin-left="0"
     fit-margin-right="0"
     fit-margin-bottom="0" />
  <!-- Generator: Sketch 3.3.2 (12043) - http://www.bohemiancoding.com/sketch -->
  <title
     id="title879">Group</title>
  <desc
     id="desc881">Created with Sketch.</desc>
  <path
     style="fill:none;stroke:#000000;stroke-width:0.18683457;stroke-opacity:1"
     d="M 23.7006,0.09515979 C 21.398643,0.11155979 20.087437,2.4838198 19.672345,4.4799398 13.203051,23.79863 7.0244833,43.21292 0.78782034,62.60629 0.21856182,64.53971 -0.41988603,66.78008 0.75315374,68.63025 2.1100494,71.07438 4.898428,72.09979 6.9174938,73.86114 24.914015,87.04746 42.971811,100.14933 61.016063,113.27057 80.913648,98.98113 100.70213,84.53261 120.41048,69.98772 122.39395,68.14254 122.56821,65 121.39032,62.66833 115.07342,42.81919 108.69126,22.98861 102.07697,3.2366798 101.59708,1.5893198 100.23403,-0.01642021 98.375681,0.10355979 96.487252,0.10155979 94.867002,1.6673698 94.660238,3.5170998 90.263064,16.39937 86.19575,29.39275 81.956497,42.32598 c -13.912121,0 -27.824242,0 -41.736363,0 C 35.734686,28.80913 31.654964,15.13972 26.825699,1.7456598 26.148314,0.71987979 24.936451,0.05486979 23.7006,0.09515979 Z"
     id="path961"
     inkscape:connector-curvature="0" />
  <defs
     id="defs883" />
  <g
     id="Page-1"
     sketch:type="MSPage"
     transform="matrix(0.56849134,0,0,0.56849134,1.4371691,1.4657998)"
     style="fill:none;fill-rule:evenodd;stroke:none;stroke-width:1">
    <g
       id="Fill-1-+-Group-24"
       sketch:type="MSLayerGroup">
      <g
         id="Group-24"
         sketch:type="MSShapeGroup">
        <g
           id="Group">
          <path
             d="m 105.0614,193.655 v 0 l 38.64,-118.921 h -77.28 z"
             id="Fill-4"
             inkscape:connector-curvature="0"
             style="fill:#e24329" />
          <path
             id="Fill-6"
             inkscape:connector-curvature="0"
             style="fill:#fc6d26"
             d="" />
          <path
             d="M 105.0614,193.6548 66.4214,74.7338 H 12.2684 Z"
             id="Fill-8"
             inkscape:connector-curvature="0"
             style="fill:#fc6d26" />
          <path
             id="Fill-10"
             inkscape:connector-curvature="0"
             style="fill:#fc6d26"
             d="" />
          <path
             d="m 12.2685,74.7341 v 0 l -11.742,36.139 c -1.071,3.296 0.102,6.907 2.906,8.944 l 101.629,73.838 z"
             id="Fill-12"
             inkscape:connector-curvature="0"
             style="fill:#fca326" />
          <path
             id="Fill-14"
             inkscape:connector-curvature="0"
             style="fill:#fc6d26"
             d="" />
          <path
             d="m 12.2685,74.7342 h 54.153 L 43.1485,3.1092 c -1.197,-3.686 -6.411,-3.685 -7.608,0 z"
             id="Fill-16"
             inkscape:connector-curvature="0"
             style="fill:#e24329" />
          <path
             d="m 105.0614,193.6548 38.64,-118.921 h 54.153 z"
             id="Fill-18"
             inkscape:connector-curvature="0"
             style="fill:#fc6d26" />
          <path
             d="m 197.8544,74.7341 v 0 l 11.742,36.139 c 1.071,3.296 -0.102,6.907 -2.906,8.944 l -101.629,73.838 z"
             id="Fill-20"
             inkscape:connector-curvature="0"
             style="fill:#fca326" />
          <path
             d="m 197.8544,74.7342 h -54.153 l 23.273,-71.625 c 1.197,-3.686 6.411,-3.685 7.608,0 z"
             id="Fill-22"
             inkscape:connector-curvature="0"
             style="fill:#e24329" />
        </g>
      </g>
    </g>
  </g>
</svg>
