<?xml version="1.0" encoding="UTF-8" standalone="no"?>
<svg
   xmlns:sketch="http://www.bohemiancoding.com/sketch/ns"
   xmlns:dc="http://purl.org/dc/elements/1.1/"
   xmlns:cc="http://creativecommons.org/ns#"
   xmlns:rdf="http://www.w3.org/1999/02/22-rdf-syntax-ns#"
   xmlns:svg="http://www.w3.org/2000/svg"
   xmlns="http://www.w3.org/2000/svg"
   xmlns:sodipodi="http://sodipodi.sourceforge.net/DTD/sodipodi-0.dtd"
   xmlns:inkscape="http://www.inkscape.org/namespaces/inkscape"
   width="654.16199"
   height="606.87817"
   viewBox="0 0 654.16199 606.87817"
   version="1.1"
   id="svg899"
   sodipodi:docname="gitlab.svg"
   inkscape:version="0.92.4 5da689c313, 2019-01-14">
  <metadata
     id="metadata903">
    <rdf:RDF>
      <cc:Work
         rdf:about="">
        <dc:format>image/svg+xml</dc:format>
        <dc:type
           rdf:resource="http://purl.org/dc/dcmitype/StillImage" />
        <dc:title>Group</dc:title>
      </cc:Work>
    </rdf:RDF>
  </metadata>
  <sodipodi:namedview
     pagecolor="#ffffff"
     bordercolor="#666666"
     borderopacity="1"
     objecttolerance="10"
     gridtolerance="10"
     guidetolerance="10"
     inkscape:pageopacity="0"
     inkscape:pageshadow="2"
     inkscape:window-width="1920"
     inkscape:window-height="1023"
     id="namedview901"
     showgrid="false"
     inkscape:zoom="1"
     inkscape:cx="-126.94518"
     inkscape:cy="265.95777"
     inkscape:window-x="0"
     inkscape:window-y="0"
     inkscape:window-maximized="1"
     inkscape:current-layer="svg899"
     fit-margin-top="0"
     fit-margin-left="0"
     fit-margin-right="0"
     fit-margin-bottom="0" />
  <!-- Generator: Sketch 3.3.2 (12043) - http://www.bohemiancoding.com/sketch -->
  <title
     id="title879">Group</title>
  <desc
     id="desc881">Created with Sketch.</desc>
  <path
     style="fill:none;stroke:#000000;stroke-opacity:1"
     d="M 126.85339,0.50932598 C 114.53256,0.59698298 107.51456,13.294226 105.29285,23.978076 70.667064,127.37805 37.597341,231.2897 4.2166733,335.0894 1.1698148,345.43769 -2.2473677,357.42891 4.0311264,367.33159 11.293677,380.41341 26.217995,385.90173 37.024698,395.32903 133.34799,465.90659 229.99924,536.03207 326.578,606.26128 433.07641,529.77949 538.99085,452.44627 644.47644,374.59722 655.0926,364.72123 656.0253,347.90133 649.72085,335.42145 615.91071,229.18235 581.75132,123.04255 546.34948,17.323779 543.78095,8.506542 536.48544,-0.08789462 526.53894,0.55424778 516.43145,0.54458998 507.75934,8.9242841 506.65267,18.824655 483.11755,87.774814 461.34795,157.31965 438.65808,226.54253 c -74.46224,0 -148.92448,0 -223.38672,0 C 191.26377,154.19592 169.42776,81.032734 143.57995,9.3433103 139.95436,3.8530136 133.46807,0.29368698 126.85339,0.50932598 Z"
     id="path961"
     inkscape:connector-curvature="0" />
  <defs
     id="defs883" />
  <g
     id="Page-1"
     sketch:type="MSPage"
     transform="matrix(3.0427523,0,0,3.0427523,7.6922006,7.8454389)"
     style="fill:none;fill-rule:evenodd;stroke:none;stroke-width:1">
    <g
       id="Fill-1-+-Group-24"
       sketch:type="MSLayerGroup">
      <g
         id="Group-24"
         sketch:type="MSShapeGroup">
        <g
           id="Group">
          <path
             d="m 105.0614,193.655 v 0 l 38.64,-118.921 h -77.28 z"
             id="Fill-4"
             inkscape:connector-curvature="0"
             style="fill:#e24329" />
          <path
             id="Fill-6"
             inkscape:connector-curvature="0"
             style="fill:#fc6d26"
             d="" />
          <path
             d="M 105.0614,193.6548 66.4214,74.7338 H 12.2684 Z"
             id="Fill-8"
             inkscape:connector-curvature="0"
             style="fill:#fc6d26" />
          <path
             id="Fill-10"
             inkscape:connector-curvature="0"
             style="fill:#fc6d26"
             d="" />
          <path
             d="m 12.2685,74.7341 v 0 l -11.742,36.139 c -1.071,3.296 0.102,6.907 2.906,8.944 l 101.629,73.838 z"
             id="Fill-12"
             inkscape:connector-curvature="0"
             style="fill:#fca326" />
          <path
             id="Fill-14"
             inkscape:connector-curvature="0"
             style="fill:#fc6d26"
             d="" />
          <path
             d="m 12.2685,74.7342 h 54.153 L 43.1485,3.1092 c -1.197,-3.686 -6.411,-3.685 -7.608,0 z"
             id="Fill-16"
             inkscape:connector-curvature="0"
             style="fill:#e24329" />
          <path
             d="m 105.0614,193.6548 38.64,-118.921 h 54.153 z"
             id="Fill-18"
             inkscape:connector-curvature="0"
             style="fill:#fc6d26" />
          <path
             d="m 197.8544,74.7341 v 0 l 11.742,36.139 c 1.071,3.296 -0.102,6.907 -2.906,8.944 l -101.629,73.838 z"
             id="Fill-20"
             inkscape:connector-curvature="0"
             style="fill:#fca326" />
          <path
             d="m 197.8544,74.7342 h -54.153 l 23.273,-71.625 c 1.197,-3.686 6.411,-3.685 7.608,0 z"
             id="Fill-22"
             inkscape:connector-curvature="0"
             style="fill:#e24329" />
        </g>
      </g>
    </g>
  </g>
</svg>
