<?xml version="1.0" encoding="UTF-8" standalone="no"?>
<!-- Generator: Adobe Illustrator 15.0.0, SVG Export Plug-In . SVG Version: 6.00 Build 0)  -->

<svg
   xmlns:dc="http://purl.org/dc/elements/1.1/"
   xmlns:cc="http://creativecommons.org/ns#"
   xmlns:rdf="http://www.w3.org/1999/02/22-rdf-syntax-ns#"
   xmlns:svg="http://www.w3.org/2000/svg"
   xmlns="http://www.w3.org/2000/svg"
   xmlns:sodipodi="http://sodipodi.sourceforge.net/DTD/sodipodi-0.dtd"
   xmlns:inkscape="http://www.inkscape.org/namespaces/inkscape"
   version="1.1"
   id="レイヤー_1"
   x="0px"
   y="0px"
   width="84.106407"
   height="113.38583"
   viewBox="0 0 84.106405 113.38583"
   enable-background="new 0 0 401.98 559.472"
   xml:space="preserve"
   sodipodi:docname="gopher.svg"
   inkscape:version="0.92.4 5da689c313, 2019-01-14"><metadata
   id="metadata1934"><rdf:RDF><cc:Work
       rdf:about=""><dc:format>image/svg+xml</dc:format><dc:type
         rdf:resource="http://purl.org/dc/dcmitype/StillImage" /><dc:title></dc:title></cc:Work></rdf:RDF></metadata><defs
   id="defs1932" /><sodipodi:namedview
   pagecolor="#ffffff"
   bordercolor="#666666"
   borderopacity="1"
   objecttolerance="10"
   gridtolerance="10"
   guidetolerance="10"
   inkscape:pageopacity="0"
   inkscape:pageshadow="2"
   inkscape:window-width="1920"
   inkscape:window-height="1023"
   id="namedview1930"
   showgrid="false"
   inkscape:zoom="0.4218263"
   inkscape:cx="285.11721"
   inkscape:cy="139.71146"
   inkscape:window-x="0"
   inkscape:window-y="0"
   inkscape:window-maximized="1"
   inkscape:current-layer="レイヤー_1"
   fit-margin-top="0"
   fit-margin-left="0"
   fit-margin-right="0"
   fit-margin-bottom="0" />
<path
   style="fill:none;stroke:#000000;stroke-width:0.20798466;stroke-opacity:1"
   d="m 42.361466,0.11115041 c -8.963281,0.0203 -18.218557,1.91763999 -25.69951,7.07066999 -3.471068,-1.5479 -7.805691,-1.27148 -10.7546759,1.25522 C 2.6938426,10.94341 1.1028798,15.80523 3.2944729,19.46835 c 0.8746841,1.61088 2.3042362,2.86938 3.8172497,3.83228 0.2127966,2.58485 -0.9083701,5.06926 -0.6630336,7.67394 -0.3552659,7.86404 0.8039176,15.69602 1.1066258,23.52741 -3.3890925,0.10311 -7.20766458,2.40675 -7.45129398,6.07705 0.022907,2.77248 3.27290328,5.37153 5.89750238,3.93587 0.6827487,-0.6468 1.7877968,0.19274 1.2967263,1.01913 -0.6521581,9.76632 -1.8365199,20.00273 1.6926469,29.39863 1.0163566,2.6614 2.6123266,5.06959 4.4424226,7.23924 -2.580262,1.5934 -4.960502,4.70367 -3.9411471,7.88148 1.2934301,3.72414 7.0837421,4.37774 9.2731911,1.1427 1.463586,-1.45184 3.650519,-3.04733 5.792076,-2.04108 12.232441,3.89306 25.91359,3.50423 37.710027,-1.62912 2.166501,1.76337 3.770212,4.77412 6.843589,5.02941 3.905262,0.37237 6.425988,-4.84181 4.217376,-7.89285 -0.676741,-1.35297 -2.484025,-2.01125 -2.724924,-3.54833 0.583387,-0.92352 1.434429,-1.6798 1.910961,-2.69674 4.983731,-7.9839 5.67389,-17.74198 5.44086,-26.914 -0.004,-2.33791 -0.259802,-5.0243 0.02879,-7.15136 2.807118,0.94113 6.333409,-1.40113 5.995806,-4.49036 -0.123227,-3.17231 -3.302798,-5.33866 -6.250507,-5.53881 -1.07798,-0.78924 -0.358372,-2.32998 -0.594106,-3.4674 -0.217306,-9.65494 -0.0089,-19.40899 -1.916333,-28.9254 5.176892,-2.29249 6.54128,-10.12661 2.379636,-13.9971196 -2.918986,-3.13565 -8.015244,-4.01408 -11.775099,-1.92223 -6.78164,-4.77366 -15.352132,-6.01448999 -23.462051,-5.89953999 z"
   id="path2584"
   inkscape:connector-curvature="0" /><path
   d="m 2.4928416,61.44527 c 0.1589003,3.27596 3.4315388,1.76017 4.9138455,0.73605 1.4070162,-0.97233 1.8184098,-0.1641 1.9419527,-2.08296 0.080906,-1.26122 0.2262873,-2.52244 0.1547406,-3.78865 -2.127683,-0.1928 -4.4419283,0.31385 -6.1862956,1.5811 -0.8984937,0.65286 -2.58316941,2.73666 -0.8242432,3.55446"
   id="path1875"
   inkscape:connector-curvature="0"
   style="clip-rule:evenodd;fill:#f6d2a2;fill-rule:evenodd;stroke:#000000;stroke-width:0.62395394;stroke-linecap:round" />
<path
   d="M 2.4928416,61.44527 C 2.9691265,61.26806 3.4739052,61.14223 3.7971134,60.7115"
   id="path1877"
   inkscape:connector-curvature="0"
   style="clip-rule:evenodd;fill:#c6b198;fill-rule:evenodd;stroke:#000000;stroke-width:0.62395394;stroke-linecap:round" />
<path
   d="M 10.055788,22.41902 C -2.4850631,18.89244 6.8401369,2.9383504 16.910754,9.5004704 Z"
   id="path1879"
   inkscape:connector-curvature="0"
   style="clip-rule:evenodd;fill:#6ad7e5;fill-rule:evenodd;stroke:#000000;stroke-width:0.62395394;stroke-linecap:round" />
<path
   d="M 65.774461,8.3033104 C 75.700945,1.3310404 84.671115,17.06176 73.134622,21.0197 Z"
   id="path1881"
   inkscape:connector-curvature="0"
   style="clip-rule:evenodd;fill:#6ad7e5;fill-rule:evenodd;stroke:#000000;stroke-width:0.62395394;stroke-linecap:round" />
<path
   d="m 67.909632,101.76309 c 2.521398,1.56009 7.13013,6.27739 3.347721,8.56481 -3.634324,3.32755 -5.668414,-3.65242 -8.858275,-4.61955 1.373739,-1.86562 3.114987,-3.56673 5.510554,-3.94526 z"
   id="path1883"
   inkscape:connector-curvature="0"
   style="clip-rule:evenodd;fill:#f6d2a2;fill-rule:evenodd;stroke:#000000;stroke-width:0.62395394;stroke-linecap:round" />
<path
   d="m 71.257353,110.32769 c -0.560727,-1.11501 -0.748953,-2.41637 -1.685092,-3.31507"
   id="path1885"
   inkscape:connector-curvature="0"
   style="clip-rule:evenodd;fill:none;fill-rule:evenodd;stroke:#000000;stroke-width:0.62395394;stroke-linecap:round" />
<path
   d="m 22.863899,107.09415 c -2.959413,0.45799 -4.625163,3.12788 -7.092277,4.48374 -2.324852,1.38621 -3.214194,-0.44384 -3.423635,-0.8153 -0.364389,-0.16618 -0.333815,0.15474 -0.896206,-0.41161 -2.1551374,-3.40138 2.24561,-5.88762 4.537185,-7.57729 3.191733,-0.64517 5.191921,2.12186 6.874933,4.32046 z"
   id="path1887"
   inkscape:connector-curvature="0"
   style="clip-rule:evenodd;fill:#f6d2a2;fill-rule:evenodd;stroke:#000000;stroke-width:0.62395394;stroke-linecap:round" />
<path
   d="m 12.348195,110.76238 c 0.112728,-1.29637 1.140588,-2.1645 1.630184,-3.26058"
   id="path1889"
   inkscape:connector-curvature="0"
   style="clip-rule:evenodd;fill:none;fill-rule:evenodd;stroke:#000000;stroke-width:0.62395394;stroke-linecap:round" />
<path
   d="m 10.579077,18.01266 c -1.6545179,-0.8752 -2.8683164,-2.06383 -1.856263,-3.9775 0.9369709,-1.77161 2.677595,-1.57922 4.332321,-0.70403 z"
   id="path1891"
   inkscape:connector-curvature="0"
   style="clip-rule:evenodd;fill-rule:evenodd;stroke-width:0.20798466" />
<path
   d="m 70.520879,16.34878 c 1.654518,-0.8752 2.868317,-2.06383 1.856263,-3.97749 -0.936971,-1.77162 -2.677594,-1.57923 -4.33232,-0.70403 z"
   id="path1893"
   inkscape:connector-curvature="0"
   style="clip-rule:evenodd;fill-rule:evenodd;stroke-width:0.20798466" />
<path
   d="m 81.909911,61.0293 c -0.1589,3.27596 -3.431539,1.76017 -4.913845,0.73605 -1.407017,-0.97232 -1.81841,-0.1641 -1.941953,-2.08296 -0.08091,-1.26122 -0.226288,-2.52244 -0.154741,-3.78865 2.127683,-0.1928 4.441928,0.31385 6.186296,1.5811 0.898286,0.65286 2.583169,2.73666 0.824243,3.55446"
   id="path1895"
   inkscape:connector-curvature="0"
   style="clip-rule:evenodd;fill:#f6d2a2;fill-rule:evenodd;stroke:#000000;stroke-width:0.62395394;stroke-linecap:round" />
<path
   d="M 81.909911,61.0293 C 81.433626,60.85209 80.928847,60.72626 80.605639,60.29553"
   id="path1897"
   inkscape:connector-curvature="0"
   style="clip-rule:evenodd;fill:#c6b198;fill-rule:evenodd;stroke:#000000;stroke-width:0.62395394;stroke-linecap:round" />
<g
   id="g1901"
   transform="matrix(0.20798466,0,0,0.20798466,0.28113282,-1.0526696)">
	<path
   d="m 195.512,13.124 c 60.365,0 116.953,8.633 146.452,66.629 26.478,65.006 17.062,135.104 21.1,203.806 3.468,58.992 11.157,127.145 -16.21,181.812 -28.79,57.514 -100.73,71.982 -160,69.863 C 140.299,533.568 84.06,518.38 57.785,475.845 26.959,425.945 41.553,351.747 43.792,296.223 46.444,230.452 25.977,164.481 47.584,100.122 69.999,33.359 130.451,18.271 195.512,13.124"
   id="path1899"
   inkscape:connector-curvature="0"
   style="clip-rule:evenodd;fill:#6ad7e5;fill-rule:evenodd;stroke:#000000;stroke-width:3;stroke-linecap:round" />
</g>
<path
   d="m 43.161122,18.53117 c 2.254137,13.10365 23.673229,9.63905 20.59672,-3.57672 C 60.999134,3.1034904 42.411961,6.3838204 43.161122,18.53117"
   id="path1903"
   inkscape:connector-curvature="0"
   style="clip-rule:evenodd;fill:#ffffff;fill-rule:evenodd;stroke:#000000;stroke-width:0.60484016;stroke-linecap:round" />
<path
   d="m 17.565282,20.65053 c 2.921561,11.40796 21.186149,8.48723 20.49772,-2.95609 C 37.238135,3.9893004 14.772048,6.6338204 17.565282,20.65053"
   id="path1905"
   inkscape:connector-curvature="0"
   style="clip-rule:evenodd;fill:#ffffff;fill-rule:evenodd;stroke:#000000;stroke-width:0.58680791;stroke-linecap:round" />
<path
   d="m 45.745331,34.25522 c 0.0096,1.70361 0.38706,3.61623 0.06489,5.42861 -0.434896,0.82196 -1.288049,0.90889 -2.023482,1.24104 -1.017045,-0.15952 -1.872278,-0.82736 -2.280136,-1.77868 -0.261021,-2.06862 0.09734,-4.07151 0.163268,-6.14095 z"
   id="path1907"
   inkscape:connector-curvature="0"
   style="clip-rule:evenodd;fill:#ffffff;fill-rule:evenodd;stroke:#000000;stroke-width:0.62395394;stroke-linecap:round" />
<g
   id="g1913"
   transform="matrix(0.20798466,0,0,0.20798466,0.28113282,-1.0526696)">
	<ellipse
   cx="107.324"
   cy="95.403999"
   rx="14.829"
   ry="16.062"
   id="ellipse1909"
   style="clip-rule:evenodd;fill-rule:evenodd" />
	<ellipse
   cx="114.069"
   cy="99.028999"
   rx="3.4960001"
   ry="4.0819998"
   id="ellipse1911"
   style="clip-rule:evenodd;fill:#ffffff;fill-rule:evenodd" />
</g>
<g
   id="g1919"
   transform="matrix(0.20798466,0,0,0.20798466,0.28113282,-1.0526696)">
	<ellipse
   cx="231.571"
   cy="91.403999"
   rx="14.582"
   ry="16.062"
   id="ellipse1915"
   style="clip-rule:evenodd;fill-rule:evenodd" />
	<ellipse
   cx="238.20399"
   cy="95.028999"
   rx="3.438"
   ry="4.0819998"
   id="ellipse1917"
   style="clip-rule:evenodd;fill:#ffffff;fill-rule:evenodd" />
</g>
<path
   d="m 36.931565,34.0697 c -1.34566,3.2612 0.750409,9.78256 4.40158,4.9725 -0.261021,-2.06862 0.09734,-4.07151 0.163268,-6.14096 z"
   id="path1921"
   inkscape:connector-curvature="0"
   style="clip-rule:evenodd;fill:#ffffff;fill-rule:evenodd;stroke:#000000;stroke-width:0.62395394;stroke-linecap:round" />
<g
   id="g1927"
   transform="matrix(0.20798466,0,0,0.20798466,0.28113282,-1.0526696)">
	<path
   d="m 178.431,138.673 c -12.059,1.028 -21.916,15.366 -15.646,26.709 8.303,15.024 26.836,-1.329 38.379,0.203 13.285,0.272 24.17,14.047 34.84,2.49 11.867,-12.854 -5.109,-25.373 -18.377,-30.97 z"
   id="path1923"
   inkscape:connector-curvature="0"
   style="clip-rule:evenodd;fill:#f6d2a2;fill-rule:evenodd;stroke:#231f20;stroke-width:3;stroke-linecap:round" />
	<path
   d="m 176.913,138.045 c -0.893,-20.891 38.938,-23.503 43.642,-6.016 4.692,17.446 -41.681,21.498 -43.642,6.016 -1.565,-12.363 0,0 0,0 z"
   id="path1925"
   inkscape:connector-curvature="0"
   style="clip-rule:evenodd;fill-rule:evenodd" />
</g>
</svg>