<?xml version="1.0" encoding="UTF-8" standalone="no"?>
<!-- Generator: Adobe Illustrator 15.0.0, SVG Export Plug-In . SVG Version: 6.00 Build 0)  -->

<svg
   xmlns:dc="http://purl.org/dc/elements/1.1/"
   xmlns:cc="http://creativecommons.org/ns#"
   xmlns:rdf="http://www.w3.org/1999/02/22-rdf-syntax-ns#"
   xmlns:svg="http://www.w3.org/2000/svg"
   xmlns="http://www.w3.org/2000/svg"
   xmlns:sodipodi="http://sodipodi.sourceforge.net/DTD/sodipodi-0.dtd"
   xmlns:inkscape="http://www.inkscape.org/namespaces/inkscape"
   version="1.1"
   id="レイヤー_1"
   x="0px"
   y="0px"
   width="401.98px"
   height="559.472px"
   viewBox="0 0 401.98 559.472"
   enable-background="new 0 0 401.98 559.472"
   xml:space="preserve"
   sodipodi:docname="gopher.svg"
   inkscape:version="0.92.4 5da689c313, 2019-01-14"><metadata
   id="metadata1934"><rdf:RDF><cc:Work
       rdf:about=""><dc:format>image/svg+xml</dc:format><dc:type
         rdf:resource="http://purl.org/dc/dcmitype/StillImage" /><dc:title></dc:title></cc:Work></rdf:RDF></metadata><defs
   id="defs1932" /><sodipodi:namedview
   pagecolor="#ffffff"
   bordercolor="#666666"
   borderopacity="1"
   objecttolerance="10"
   gridtolerance="10"
   guidetolerance="10"
   inkscape:pageopacity="0"
   inkscape:pageshadow="2"
   inkscape:window-width="1920"
   inkscape:window-height="1023"
   id="namedview1930"
   showgrid="false"
   inkscape:zoom="0.4218263"
   inkscape:cx="767.3769"
   inkscape:cy="148.95778"
   inkscape:window-x="0"
   inkscape:window-y="0"
   inkscape:window-maximized="1"
   inkscape:current-layer="レイヤー_1" />
<path
   style="fill:none;stroke:#000000;stroke-opacity:1"
   d="M 202.32422,5.5957031 C 159.22834,5.6934398 114.72854,14.815774 78.759766,39.591797 62.070708,32.14942 41.229639,33.478466 27.050781,45.626953 11.600422,57.677711 3.9509982,81.05356 14.488281,98.666016 c 4.205522,7.745214 11.078876,13.796104 18.353516,18.425784 1.023136,12.42809 -4.367486,24.37326 -3.187897,36.89669 -1.708135,37.81063 3.865274,75.46719 5.320709,113.12089 -16.294916,0.49573 -34.65478991,11.57177 -35.8261715,29.21874 0.11013698,13.3302 15.7362725,25.82653 28.3554685,18.92383 3.282688,-3.10983 8.595811,0.92671 6.234721,4.90003 -3.135607,46.9569 -8.830074,96.17404 8.138326,141.34997 4.886692,12.79614 12.560186,24.37487 21.359375,34.80664 -12.406021,7.66112 -23.850325,22.61547 -18.949219,37.89453 6.218872,17.90583 34.058963,21.04836 44.585938,5.49415 7.03699,-6.98055 17.551863,-14.65172 27.848573,-9.8136 58.81415,18.71801 124.59376,16.84848 181.31158,-7.83289 10.41664,8.47836 18.12736,22.95416 32.9043,24.18164 18.77668,1.79035 30.89645,-23.27965 20.27734,-37.94922 -3.2538,-6.50515 -11.94331,-9.67018 -13.10156,-17.06054 2.80495,-4.4403 6.8968,-8.07653 9.18799,-12.96605 23.96201,-38.38697 27.28033,-85.30428 26.15991,-129.40376 -0.0191,-11.24078 -1.24914,-24.15706 0.13843,-34.3841 13.49676,4.52502 30.45133,-6.7367 28.82812,-21.58984 -0.59248,-15.25263 -15.88001,-25.66854 -30.05273,-26.63086 -5.18298,-3.7947 -1.72307,-11.20268 -2.85649,-16.67144 -1.04482,-46.42138 -0.0426,-93.31934 -9.21382,-139.07466 24.89074,-11.022385 31.45078,-48.689237 11.4414,-67.298825 C 357.71147,28.126758 333.20842,23.903226 315.13086,33.960938 282.52442,11.00899 241.31709,5.0429894 202.32422,5.5957031 Z"
   id="path2584"
   inkscape:connector-curvature="0" /><path
   fill-rule="evenodd"
   clip-rule="evenodd"
   fill="#F6D2A2"
   stroke="#000000"
   stroke-width="3"
   stroke-linecap="round"
   d="  M10.634,300.493c0.764,15.751,16.499,8.463,23.626,3.539c6.765-4.675,8.743-0.789,9.337-10.015  c0.389-6.064,1.088-12.128,0.744-18.216c-10.23-0.927-21.357,1.509-29.744,7.602C10.277,286.542,2.177,296.561,10.634,300.493"
   id="path1875" />
<path
   fill-rule="evenodd"
   clip-rule="evenodd"
   fill="#C6B198"
   stroke="#000000"
   stroke-width="3"
   stroke-linecap="round"
   d="  M10.634,300.493c2.29-0.852,4.717-1.457,6.271-3.528"
   id="path1877" />
<path
   fill-rule="evenodd"
   clip-rule="evenodd"
   fill="#6AD7E5"
   stroke="#000000"
   stroke-width="3"
   stroke-linecap="round"
   d="  M46.997,112.853C-13.3,95.897,31.536,19.189,79.956,50.74L46.997,112.853z"
   id="path1879" />
<path
   fill-rule="evenodd"
   clip-rule="evenodd"
   fill="#6AD7E5"
   stroke="#000000"
   stroke-width="3"
   stroke-linecap="round"
   d="  M314.895,44.984c47.727-33.523,90.856,42.111,35.388,61.141L314.895,44.984z"
   id="path1881" />
<path
   fill-rule="evenodd"
   clip-rule="evenodd"
   fill="#F6D2A2"
   stroke="#000000"
   stroke-width="3"
   stroke-linecap="round"
   d="  M325.161,494.343c12.123,7.501,34.282,30.182,16.096,41.18c-17.474,15.999-27.254-17.561-42.591-22.211  C305.271,504.342,313.643,496.163,325.161,494.343z"
   id="path1883" />
<path
   fill-rule="evenodd"
   clip-rule="evenodd"
   fill="none"
   stroke="#000000"
   stroke-width="3"
   stroke-linecap="round"
   d="  M341.257,535.522c-2.696-5.361-3.601-11.618-8.102-15.939"
   id="path1885" />
<path
   fill-rule="evenodd"
   clip-rule="evenodd"
   fill="#F6D2A2"
   stroke="#000000"
   stroke-width="3"
   stroke-linecap="round"
   d="  M108.579,519.975c-14.229,2.202-22.238,15.039-34.1,21.558c-11.178,6.665-15.454-2.134-16.461-3.92  c-1.752-0.799-1.605,0.744-4.309-1.979c-10.362-16.354,10.797-28.308,21.815-36.432C90.87,496.1,100.487,509.404,108.579,519.975z"
   id="path1887" />
<path
   fill-rule="evenodd"
   clip-rule="evenodd"
   fill="none"
   stroke="#000000"
   stroke-width="3"
   stroke-linecap="round"
   d="  M58.019,537.612c0.542-6.233,5.484-10.407,7.838-15.677"
   id="path1889" />
<path
   fill-rule="evenodd"
   clip-rule="evenodd"
   d="M49.513,91.667c-7.955-4.208-13.791-9.923-8.925-19.124  c4.505-8.518,12.874-7.593,20.83-3.385L49.513,91.667z"
   id="path1891" />
<path
   fill-rule="evenodd"
   clip-rule="evenodd"
   d="M337.716,83.667c7.955-4.208,13.791-9.923,8.925-19.124  c-4.505-8.518-12.874-7.593-20.83-3.385L337.716,83.667z"
   id="path1893" />
<path
   fill-rule="evenodd"
   clip-rule="evenodd"
   fill="#F6D2A2"
   stroke="#000000"
   stroke-width="3"
   stroke-linecap="round"
   d="  M392.475,298.493c-0.764,15.751-16.499,8.463-23.626,3.539c-6.765-4.675-8.743-0.789-9.337-10.015  c-0.389-6.064-1.088-12.128-0.744-18.216c10.23-0.927,21.357,1.509,29.744,7.602C392.831,284.542,400.932,294.561,392.475,298.493"
   id="path1895" />
<path
   fill-rule="evenodd"
   clip-rule="evenodd"
   fill="#C6B198"
   stroke="#000000"
   stroke-width="3"
   stroke-linecap="round"
   d="  M392.475,298.493c-2.29-0.852-4.717-1.457-6.271-3.528"
   id="path1897" />
<g
   id="g1901">
	<path
   d="   M195.512,13.124c60.365,0,116.953,8.633,146.452,66.629c26.478,65.006,17.062,135.104,21.1,203.806   c3.468,58.992,11.157,127.145-16.21,181.812c-28.79,57.514-100.73,71.982-160,69.863c-46.555-1.666-102.794-16.854-129.069-59.389   c-30.826-49.9-16.232-124.098-13.993-179.622c2.652-65.771-17.815-131.742,3.792-196.101   C69.999,33.359,130.451,18.271,195.512,13.124"
   id="path1899"
   clip-rule="evenodd"
   stroke-linecap="round"
   stroke-width="3"
   stroke="#000000"
   fill-rule="evenodd"
   fill="#6AD7E5" />
</g>
<path
   fill-rule="evenodd"
   clip-rule="evenodd"
   fill="#FFFFFF"
   stroke="#000000"
   stroke-width="2.9081"
   stroke-linecap="round"
   d="  M206.169,94.16c10.838,63.003,113.822,46.345,99.03-17.197C291.935,19.983,202.567,35.755,206.169,94.16"
   id="path1903" />
<path
   fill-rule="evenodd"
   clip-rule="evenodd"
   fill="#FFFFFF"
   stroke="#000000"
   stroke-width="2.8214"
   stroke-linecap="round"
   d="  M83.103,104.35c14.047,54.85,101.864,40.807,98.554-14.213C177.691,24.242,69.673,36.957,83.103,104.35"
   id="path1905" />
<path
   fill-rule="evenodd"
   clip-rule="evenodd"
   fill="#FFFFFF"
   stroke="#000000"
   stroke-width="3"
   stroke-linecap="round"
   d="  M218.594,169.762c0.046,8.191,1.861,17.387,0.312,26.101c-2.091,3.952-6.193,4.37-9.729,5.967c-4.89-0.767-9.002-3.978-10.963-8.552  c-1.255-9.946,0.468-19.576,0.785-29.526L218.594,169.762z"
   id="path1907" />
<g
   id="g1913">
	<ellipse
   fill-rule="evenodd"
   clip-rule="evenodd"
   cx="107.324"
   cy="95.404"
   rx="14.829"
   ry="16.062"
   id="ellipse1909" />
	<ellipse
   fill-rule="evenodd"
   clip-rule="evenodd"
   fill="#FFFFFF"
   cx="114.069"
   cy="99.029"
   rx="3.496"
   ry="4.082"
   id="ellipse1911" />
</g>
<g
   id="g1919">
	<ellipse
   fill-rule="evenodd"
   clip-rule="evenodd"
   cx="231.571"
   cy="91.404"
   rx="14.582"
   ry="16.062"
   id="ellipse1915" />
	<ellipse
   fill-rule="evenodd"
   clip-rule="evenodd"
   fill="#FFFFFF"
   cx="238.204"
   cy="95.029"
   rx="3.438"
   ry="4.082"
   id="ellipse1917" />
</g>
<path
   fill-rule="evenodd"
   clip-rule="evenodd"
   fill="#FFFFFF"
   stroke="#000000"
   stroke-width="3"
   stroke-linecap="round"
   d="  M176.217,168.87c-6.47,15.68,3.608,47.035,21.163,23.908c-1.255-9.946,0.468-19.576,0.785-29.526L176.217,168.87z"
   id="path1921" />
<g
   id="g1927">
	<path
   fill-rule="evenodd"
   clip-rule="evenodd"
   fill="#F6D2A2"
   stroke="#231F20"
   stroke-width="3"
   stroke-linecap="round"
   d="   M178.431,138.673c-12.059,1.028-21.916,15.366-15.646,26.709c8.303,15.024,26.836-1.329,38.379,0.203   c13.285,0.272,24.17,14.047,34.84,2.49c11.867-12.854-5.109-25.373-18.377-30.97L178.431,138.673z"
   id="path1923" />
	<path
   fill-rule="evenodd"
   clip-rule="evenodd"
   d="M176.913,138.045c-0.893-20.891,38.938-23.503,43.642-6.016   C225.247,149.475,178.874,153.527,176.913,138.045C175.348,125.682,176.913,138.045,176.913,138.045z"
   id="path1925" />
</g>
</svg>