<?xml version="1.0" encoding="UTF-8" standalone="no"?>
<svg
   xmlns:dc="http://purl.org/dc/elements/1.1/"
   xmlns:cc="http://creativecommons.org/ns#"
   xmlns:rdf="http://www.w3.org/1999/02/22-rdf-syntax-ns#"
   xmlns:svg="http://www.w3.org/2000/svg"
   xmlns="http://www.w3.org/2000/svg"
   xmlns:sodipodi="http://sodipodi.sourceforge.net/DTD/sodipodi-0.dtd"
   xmlns:inkscape="http://www.inkscape.org/namespaces/inkscape"
   version="1.1"
   width="89.433929"
   height="113.38583"
   id="svg5519"
   sodipodi:docname="raspberrypi.svg"
   inkscape:version="0.92.4 5da689c313, 2019-01-14">
  <metadata
     id="metadata5525">
    <rdf:RDF>
      <cc:Work
         rdf:about="">
        <dc:format>image/svg+xml</dc:format>
        <dc:type
           rdf:resource="http://purl.org/dc/dcmitype/StillImage" />
        <dc:title></dc:title>
      </cc:Work>
    </rdf:RDF>
  </metadata>
  <defs
     id="defs5523" />
  <sodipodi:namedview
     pagecolor="#ffffff"
     bordercolor="#666666"
     borderopacity="1"
     objecttolerance="10"
     gridtolerance="10"
     guidetolerance="10"
     inkscape:pageopacity="0"
     inkscape:pageshadow="2"
     inkscape:window-width="1920"
     inkscape:window-height="1023"
     id="namedview5521"
     showgrid="false"
     inkscape:zoom="0.92709556"
     inkscape:cx="336.34713"
     inkscape:cy="417.78074"
     inkscape:window-x="0"
     inkscape:window-y="0"
     inkscape:window-maximized="1"
     inkscape:current-layer="svg5519"
     fit-margin-top="0"
     fit-margin-left="0"
     fit-margin-right="0"
     fit-margin-bottom="0" />
  <path
     style="fill:none;stroke:#000000;stroke-width:0.15409949;stroke-opacity:1"
     d="m 24.753405,0.07747519 c -1.084626,0.25123 -2.246748,0.81988 -3.346849,0.31633 -3.348135,0.0969 -6.408189,1.71778001 -9.685347,2.17361001 -0.998841,0.1868 -1.946974,0.61832 -2.79009,1.14675 -2.033238,0.26784 -4.314943,1.43165 -4.712977,3.63007 -0.259552,1.30086 0.454423,2.6505 -0.21911,3.8901098 -0.490258,1.63879 0.664861,3.14661 0.733358,4.75859 0.128214,1.24949 0.698981,2.35935 1.225692,3.46888 0.286544,1.2049 0.555988,2.42421 1.356744,3.41752 0.885812,1.28679 1.22437,2.89438 2.434022,3.95781 0.908689,0.89601 1.665827,1.86929 2.297067,2.97191 1.226556,1.32317 3.290322,1.8093 4.001771,3.57258 -0.04744,0.58228 -0.869429,0.61919 -1.172745,1.07399 -4.333963,3.58009 -6.728489,9.22983 -6.657134,14.81059 -0.764766,2.3463 -3.400179,3.23157 -4.537617,5.34109 -4.49458702,6.11779 -4.985344,15.20873 -0.322838,21.37742 2.774788,4.28023 2.957855,9.59765 5.005529,14.21775 1.305311,3.21378 3.569276,5.97795 6.39006,7.98452 3.812515,2.874855 8.105647,5.018125 12.215043,7.417945 2.666677,1.28334 5.093812,2.99062 7.399951,4.81473 6.735016,4.37188 16.038735,3.60822 22.386095,-1.12778 1.46016,-1.10964 2.78094,-2.45505 4.53318,-3.10915 3.01343,-1.45743 5.90482,-3.15537 8.68887,-5.00549 4.18645,-2.325175 8.3825,-5.273075 10.47888,-9.734115 2.75475,-5.32247 2.7597,-11.74083 6.39182,-16.65208 3.61629,-5.76986 3.20595,-13.52589 -0.47106,-19.16415 -1.18858,-2.04017 -3.02277,-3.55538 -4.56517,-5.30065 -1.09471,-1.40814 -0.70871,-3.2976 -1.03595,-4.94956 -0.26171,-3.06693 -1.84821,-5.84117 -3.70054,-8.22799 -1.13927,-1.41755 -2.45631,-2.6849 -3.86148,-3.8363 1.07406,-1.30973 2.36425,-2.46221 3.84468,-3.26496 1.21263,-1.28624 1.90096,-3.03596 3.37422,-4.07282 0.98473,-1.55806 1.63829,-3.32109 2.61642,-4.86816 0.36129,-1.49864 0.86625,-2.97171 1.5153,-4.35704 0.21277,-1.50035 0.58428,-2.98308 0.97584,-4.43157 -0.005,-1.2331 -0.70073,-2.4203498 -0.26275,-3.6520398 0.2244,-2.47047 -1.98028,-4.71924 -4.40779,-4.8129 -1.49001,-0.44111 -2.74365,-1.61148 -4.37649,-1.57771 -3.23663,-0.50002 -6.31567,-2.18792001 -9.66583,-1.79683001 -1.2544,0.008 -2.43962,-0.58213 -3.68815,-0.16644 -1.27583,0.33766 -2.58595,0.67297 -3.90085,0.5608 -1.44417,0.40741001 -2.88296,0.96118001 -4.38983,0.96696001 -1.71299,0.60415 -3.03961,2.01734 -4.83427,2.41984 -2.493146,1.35036 -3.994136,3.89012 -5.284828,6.3141698 -1.523175,-2.9653798 -3.702308,-6.0892598 -7.127703,-6.9380898 -1.446108,-0.7082 -2.661352,-2.17254 -4.419525,-2.00631 -1.921096,-0.37408 -3.870165,-1.03590001 -5.826287,-0.93814001 -0.880296,-0.13903 -1.697484,-0.6304 -2.601332,-0.61369 z"
     id="path6072"
     inkscape:connector-curvature="0" />
  <path
     d="m 24.870485,1.5510552 c -0.557732,0.0173 -1.158389,0.22334 -1.839563,0.76087 -1.668429,-0.64357 -3.286494,-0.86715 -4.733744,0.44303 -2.233496,-0.28982 -2.960296,0.30832 -3.510579,1.00647 -0.490429,-0.0102 -3.670473,-0.50423 -5.128624,1.67101 -3.66474,-0.43355 -4.822818,2.15553 -3.510579,4.5700098 -0.748448,1.15867 -1.523968,2.30337 0.226333,4.51223 -0.619172,1.23026 -0.235376,2.56484 1.223165,4.17995 -0.384918,1.7294 0.371701,2.9496 1.728804,3.90064 -0.253816,2.3666 2.17026,3.74268 2.894181,4.23292 0.277946,1.37899 0.857242,2.68021 3.626154,3.39982 0.456632,2.05509 2.120727,2.40998 3.732097,2.84121 -5.325976,3.09579 -9.893291,7.16912 -9.862368,17.16284 l -0.780128,1.39171 c -6.107097,3.71415 -11.601427,15.65131 -3.009756,25.35418 0.56121,3.03705 1.502407,5.21842 2.340386,7.63274 1.253419,9.72839 9.433606,14.28373 11.591172,14.82245 3.161587,2.408285 6.528915,4.693365 11.085533,6.294005 4.295546,4.43028 8.949156,6.11874 13.628174,6.11582 0.0686,-4e-5 0.138463,7.7e-4 0.207072,0 4.67902,0.003 9.332625,-1.68554 13.628175,-6.11582 4.55662,-1.60064 7.92395,-3.88572 11.08553,-6.294005 2.15757,-0.53872 10.33775,-5.09406 11.59117,-14.82245 0.83798,-2.41432 1.77918,-4.59569 2.34039,-7.63274 8.59167,-9.70287 3.09734,-21.64003 -3.00976,-25.35418 l -0.78012,-1.39171 c 0.0309,-9.99372 -4.5364,-14.06705 -9.86237,-17.16284 1.61137,-0.43123 3.27546,-0.78612 3.73209,-2.84121 2.76892,-0.71961 3.34821,-2.02083 3.62616,-3.39982 0.72392,-0.49024 3.148,-1.86632 2.89418,-4.23292 1.3571,-0.95104 2.11372,-2.17124 1.7288,-3.90064 1.45855,-1.61511 1.84234,-2.94969 1.22317,-4.17995 1.7503,-2.20886 0.97478,-3.35356 0.22633,-4.51223 1.31224,-2.4144798 0.15416,-5.0035598 -3.51058,-4.5700098 -1.45815,-2.17524 -4.63819,-1.68116 -5.12862,-1.67101 -0.55028,-0.69815 -1.27708,-1.29629 -3.51058,-1.00647 -1.44725,-1.31018 -3.06532,-1.0866 -4.73374,-0.44303 -1.9816,-1.56371001 -3.29346,-0.31025 -4.79154,0.16373 -2.39992,-0.78403 -2.94838,0.28984 -4.12697,0.72715 -2.61588,-0.55292 -3.41109,0.65085 -4.66633,1.92143 l -1.45913,-0.0289 c -3.94657,2.32584 -5.907215,7.0616898 -6.602199,9.4963798 -0.695306,-2.43508 -2.651508,-7.1709498 -6.597385,-9.4963798 l -1.459129,0.0289 c -1.255241,-1.27058 -2.050448,-2.47435 -4.666326,-1.92143 -1.178588,-0.43731 -1.727055,-1.51118 -4.126977,-0.72715 -0.983113,-0.31105 -1.887206,-0.95764 -2.951969,-0.9246 z"
     style="fill:#000000;stroke-width:0.15409949"
     id="path5491"
     inkscape:connector-curvature="0" />
  <path
     d="m 17.014006,11.783155 c 10.470702,5.39832 16.557512,9.76513 19.892268,13.4844 -1.707784,6.84473 -10.616898,7.15709 -13.874439,6.96508 0.667007,-0.31047 1.223531,-0.68232 1.420876,-1.25372 -0.81742,-0.58092 -3.715785,-0.0612 -5.739225,-1.19799 0.777289,-0.16103 1.140872,-0.31791 1.504456,-0.89153 -1.911713,-0.60973 -3.970931,-1.13516 -5.182019,-2.14524 0.653576,0.008 1.263795,0.14621 2.117384,-0.44577 -1.712306,-0.92278 -3.539528,-1.65403 -4.959136,-3.06463 0.885334,-0.0217 1.839863,-0.009 2.117384,-0.33433 -1.56726,-0.97093 -2.889557,-2.05073 -3.984025,-3.2318 1.238957,0.14956 1.762171,0.0208 2.061663,-0.19502 -1.184685,-1.21341 -2.684037,-2.23801 -3.398959,-3.73328 0.919914,0.31706 1.76155,0.43842 2.368127,-0.0279 -0.402565,-0.90818 -2.127406,-1.44385 -3.120356,-3.56612 0.968417,0.0939 1.995529,0.21129 2.200966,0 -0.450326,-1.83202 -1.221617,-2.8616298 -1.978082,-3.9283098 2.072644,-0.0308 5.212839,0.008 5.070577,-0.16716 l -1.281574,-1.30943 c 2.0245,-0.54509 4.096065,0.0875 5.599923,0.5572 0.675243,-0.53282 -0.01196,-1.20659 -0.835809,-1.8945 1.720514,0.22971 3.275203,0.62524 4.680533,1.17013 0.750832,-0.67793 -0.487554,-1.35586 -1.086552,-2.0338 2.658117,0.5043 3.784246,1.21287 4.903417,1.92236 0.812004,-0.77832 0.04649,-1.43979 -0.501486,-2.11738 2.004165,0.7423 3.036496,1.70057 4.123326,2.64673 0.368481,-0.49729 0.936145,-0.86179 0.250743,-2.06166 1.42298,0.82023 2.494757,1.78679 3.287519,2.86961 0.880426,-0.56061 0.524535,-1.32726 0.529346,-2.0338 1.478839,1.20298 2.417338,2.48315 3.566121,3.73328 0.23141,-0.1685 0.434038,-0.73994 0.612926,-1.64376 3.528168,3.4228298 8.513367,12.0441498 1.281575,15.4624798 -6.151463,-5.07715 -13.501602,-8.76634 -21.647468,-11.53418 z"
     style="fill:#75a928;stroke-width:0.15409949"
     id="path5493"
     inkscape:connector-curvature="0" />
  <path
     d="m 72.57197,11.783155 c -10.47071,5.39832 -16.55752,9.76513 -19.89227,13.4844 1.70778,6.84473 10.6169,7.15709 13.87444,6.96508 -0.66701,-0.31047 -1.22353,-0.68232 -1.42088,-1.25372 0.81742,-0.58092 3.71579,-0.0612 5.73923,-1.19799 -0.77729,-0.16103 -1.14088,-0.31791 -1.50446,-0.89153 1.91171,-0.60973 3.97093,-1.13516 5.18202,-2.14524 -0.65358,0.008 -1.2638,0.14621 -2.11739,-0.44577 1.71231,-0.92278 3.53953,-1.65403 4.95914,-3.06463 -0.88533,-0.0217 -1.83986,-0.009 -2.11738,-0.33433 1.56726,-0.97093 2.88955,-2.05073 3.98402,-3.2318 -1.23896,0.14956 -1.76217,0.0208 -2.06166,-0.19502 1.18468,-1.21341 2.68404,-2.23801 3.39896,-3.73328 -0.91992,0.31706 -1.76155,0.43842 -2.36813,-0.0279 0.40257,-0.90818 2.12741,-1.44385 3.12036,-3.56612 -0.96842,0.0939 -1.99553,0.21129 -2.20097,0 0.45033,-1.83202 1.22162,-2.8616298 1.97808,-3.9283098 -2.07264,-0.0308 -5.21284,0.008 -5.07057,-0.16716 l 1.28157,-1.30943 c -2.0245,-0.54509 -4.09607,0.0875 -5.59992,0.5572 -0.67525,-0.53282 0.0119,-1.20659 0.83581,-1.8945 -1.72052,0.22971 -3.27521,0.62524 -4.68054,1.17013 -0.75083,-0.67793 0.48756,-1.35586 1.08655,-2.0338 -2.65811,0.5043 -3.78424,1.21287 -4.90341,1.92236 -0.81201,-0.77832 -0.0465,-1.43979 0.50148,-2.11738 -2.00416,0.7423 -3.03649,1.70057 -4.12332,2.64673 -0.36848,-0.49729 -0.93615,-0.86179 -0.25075,-2.06166 -1.42298,0.82023 -2.49475,1.78679 -3.28751,2.86961 -0.88043,-0.56061 -0.52454,-1.32726 -0.52935,-2.0338 -1.47884,1.20298 -2.41734,2.48315 -3.56612,3.73328 -0.23141,-0.1685 -0.43404,-0.73994 -0.61293,-1.64376 -3.528166,3.4228298 -8.513365,12.0441498 -1.28157,15.4624798 6.15146,-5.07715 13.5016,-8.76634 21.64747,-11.53418 z"
     style="fill:#75a928;stroke-width:0.15409949"
     id="path5495"
     inkscape:connector-curvature="0" />
  <path
     d="m 57.47352,81.483205 a 12.542176,11.565439 0 1 1 -25.084348,0 12.542176,11.565439 0 1 1 25.084348,0 z"
     style="fill:#bc1142;stroke-width:0.17406729"
     id="path5497"
     inkscape:connector-curvature="0" />
  <path
     d="M 37.672921,48.444485 A 11.249086,13.272541 34.034226 1 1 23.038424,70.590475 11.249086,13.272541 34.034226 1 1 37.672921,48.444485 Z"
     style="fill:#bc1142;stroke-width:0.29290834"
     id="path5499"
     inkscape:connector-curvature="0" />
  <path
     d="m 51.70093,47.828085 a 13.272542,11.249086 55.965774 1 0 14.6345,22.14599 13.272542,11.249086 55.965774 1 0 -14.6345,-22.14599 z"
     style="fill:#bc1142;stroke-width:0.29290834"
     id="path5501"
     inkscape:connector-curvature="0" />
  <path
     d="m 11.70041,54.011385 c 5.611413,-1.50353 1.894128,23.21301 -2.671065,21.18495 -5.021605,-4.03936 -6.63908,-15.86846 2.671065,-21.18495 z"
     style="fill:#bc1142;stroke-width:0.15409949"
     id="path5503"
     inkscape:connector-curvature="0" />
  <path
     d="m 76.54055,53.703185 c -5.61141,-1.50353 -1.89413,23.21301 2.67107,21.18495 5.0216,-4.03936 6.63908,-15.86846 -2.67107,-21.18495 z"
     style="fill:#bc1142;stroke-width:0.15409949"
     id="path5505"
     inkscape:connector-curvature="0" />
  <path
     d="m 57.47741,35.298405 c 9.68282,-1.63501 17.73931,4.11789 17.415,14.61757 -0.31851,4.02525 -20.98199,-14.01829 -17.415,-14.61757 z"
     style="fill:#bc1142;stroke-width:0.15409949"
     id="path5507"
     inkscape:connector-curvature="0" />
  <path
     d="m 30.723916,34.990205 c -9.68282,-1.63501 -17.739309,4.11789 -17.414997,14.61757 0.318513,4.02525 20.981991,-14.01829 17.414997,-14.61757 z"
     style="fill:#bc1142;stroke-width:0.15409949"
     id="path5509"
     inkscape:connector-curvature="0" />
  <path
     d="m 44.632871,32.540375 c -5.77913,-0.15032 -11.325617,4.28924 -11.338885,6.86428 -0.01612,3.12887 4.569235,6.33235 11.378285,6.41367 6.953439,0.0498 11.390359,-2.56429 11.412779,-5.79323 0.0254,-3.65831 -6.324057,-7.54123 -11.452179,-7.48472 z"
     style="fill:#bc1142;stroke-width:0.15409949"
     id="path5511"
     inkscape:connector-curvature="0" />
  <path
     d="m 44.985767,96.701415 c 5.038663,-0.21992 11.799523,1.62296 11.812773,4.067605 0.0836,2.37394 -6.13157,7.73742 -12.147098,7.63373 -6.229826,0.26874 -12.338606,-5.1031 -12.25854,-6.96508 -0.09324,-2.730025 7.585702,-4.861535 12.592865,-4.736255 z"
     style="fill:#bc1142;stroke-width:0.15409949"
     id="path5513"
     inkscape:connector-curvature="0" />
  <path
     d="m 26.375073,82.214045 c 3.587297,4.32183 5.222533,11.91482 2.228826,14.15304 -2.832221,1.70863 -9.710161,1.00498 -14.598808,-6.01783 -3.296966,-5.89302 -2.872042,-11.88979 -0.557205,-13.65155 3.461756,-2.10875 8.810395,0.73952 12.927187,5.51634 z"
     style="fill:#bc1142;stroke-width:0.15409949"
     id="path5515"
     inkscape:connector-curvature="0" />
  <path
     d="m 62.8785,80.843805 c -3.88128,4.54619 -6.0426,12.83795 -3.21111,15.509 2.70727,2.07474 9.97474,1.78473 15.34302,-5.66404 3.8981,-5.00279 2.59198,-13.35769 0.36534,-15.57562 -3.30761,-2.55838 -8.05585,0.71577 -12.49725,5.73066 z"
     style="fill:#bc1142;stroke-width:0.15409949"
     id="path5517"
     inkscape:connector-curvature="0" />
</svg>
