<?xml version="1.0" encoding="UTF-8" standalone="no"?>
<svg
   xmlns:dc="http://purl.org/dc/elements/1.1/"
   xmlns:cc="http://creativecommons.org/ns#"
   xmlns:rdf="http://www.w3.org/1999/02/22-rdf-syntax-ns#"
   xmlns:svg="http://www.w3.org/2000/svg"
   xmlns="http://www.w3.org/2000/svg"
   xmlns:sodipodi="http://sodipodi.sourceforge.net/DTD/sodipodi-0.dtd"
   xmlns:inkscape="http://www.inkscape.org/namespaces/inkscape"
   version="1.1"
   width="680.36487"
   height="835.7962"
   id="svg5519"
   sodipodi:docname="raspberrypi.svg"
   inkscape:version="0.92.4 5da689c313, 2019-01-14">
  <metadata
     id="metadata5525">
    <rdf:RDF>
      <cc:Work
         rdf:about="">
        <dc:format>image/svg+xml</dc:format>
        <dc:type
           rdf:resource="http://purl.org/dc/dcmitype/StillImage" />
        <dc:title></dc:title>
      </cc:Work>
    </rdf:RDF>
  </metadata>
  <defs
     id="defs5523" />
  <sodipodi:namedview
     pagecolor="#ffffff"
     bordercolor="#666666"
     borderopacity="1"
     objecttolerance="10"
     gridtolerance="10"
     guidetolerance="10"
     inkscape:pageopacity="0"
     inkscape:pageshadow="2"
     inkscape:window-width="1920"
     inkscape:window-height="1023"
     id="namedview5521"
     showgrid="false"
     inkscape:zoom="0.92709556"
     inkscape:cx="463.95836"
     inkscape:cy="367.7041"
     inkscape:window-x="0"
     inkscape:window-y="0"
     inkscape:window-maximized="1"
     inkscape:current-layer="svg5519"
     fit-margin-top="50"
     fit-margin-left="50"
     fit-margin-right="50"
     fit-margin-bottom="50" />
  <path
     style="fill:none;stroke:#000000;stroke-opacity:1"
     d="m 210.63261,50.502762 c -7.03848,1.630317 -14.57985,5.320462 -21.71875,2.052734 -21.7271,0.628972 -41.58475,11.147214 -62.85126,14.10527 -6.48179,1.212197 -12.63452,4.012472 -18.10577,7.441605 -13.194315,1.738061 -28.001015,9.290402 -30.583981,23.556641 -1.684319,8.441708 2.948893,17.199968 -1.421875,25.244138 -3.18144,10.63466 4.314494,20.41937 4.758989,30.87999 0.832021,8.10836 4.535908,15.31055 7.953901,22.51064 1.859472,7.81902 3.607977,15.73149 8.804335,22.17741 5.748311,8.35034 7.945321,18.78249 15.795131,25.68345 5.89677,5.81451 10.81008,12.13042 14.90639,19.28562 7.95951,8.58649 21.35193,11.74113 25.96875,23.18359 -0.30787,3.77862 -5.642,4.01817 -7.61031,6.96951 -28.12445,23.23228 -43.66328,59.89524 -43.20023,96.11057 -4.962811,15.22582 -22.064832,20.97066 -29.446023,34.65999 -29.166783,39.70025 -32.351463,98.69418 -2.094996,138.72478 18.006471,27.77576 19.194447,62.28217 32.482449,92.26346 8.47057,20.85518 23.16215,38.79279 41.4671,51.81401 24.74061,18.65584 52.60009,32.56419 79.26725,48.13737 17.3049,8.32799 33.05534,19.40705 48.0206,31.24429 43.70563,28.37051 104.08041,23.41487 145.27041,-7.31851 9.47542,-7.20085 18.04639,-15.93162 29.41721,-20.17626 19.55506,-9.4577 38.31824,-20.47622 56.38478,-32.48219 27.1672,-15.08878 54.39672,-34.2186 68.00075,-63.16772 17.87648,-34.53918 17.90859,-76.18993 41.47851,-108.06055 23.46727,-37.44241 20.80447,-87.77377 -3.05684,-124.3622 -7.71308,-13.23926 -19.6157,-23.07195 -29.6248,-34.39756 -7.1039,-9.13789 -4.59908,-21.39919 -6.72262,-32.11927 -1.69828,-19.90226 -11.99358,-37.90518 -24.01393,-53.39399 -7.39314,-9.19894 -15.93979,-17.42319 -25.05837,-24.89495 6.96993,-8.49926 15.34233,-15.97806 24.94933,-21.18735 7.86913,-8.34682 12.33594,-19.70133 21.89637,-26.42983 6.39021,-10.11071 10.63134,-21.55155 16.97876,-31.59097 2.34454,-9.72515 5.62134,-19.28436 9.83326,-28.2742 1.38071,-9.73629 3.79156,-19.3582 6.33252,-28.75788 -0.0302,-8.00194 -4.54727,-15.70641 -1.70508,-23.69922 C 604.84079,90.203497 590.53393,75.610568 574.78105,75.002762 565.11195,72.140244 556.97666,64.545364 546.38066,64.764481 525.37712,61.5197 505.3963,50.566385 483.65605,53.104324 c -8.14022,0.05117 -15.83148,-3.777638 -23.93359,-1.080078 -8.27923,2.19116 -16.781,4.367089 -25.31382,3.639185 -9.37168,2.643795 -18.70846,6.237415 -28.48696,6.274878 -11.11614,3.920571 -19.72501,13.091162 -31.3711,15.703125 -16.17882,8.762885 -25.91922,25.244196 -34.29492,40.974606 -9.88436,-19.243239 -24.02544,-39.515065 -46.2539,-45.023434 -9.38425,-4.595707 -17.27035,-14.098244 -28.67969,-13.019532 -12.46659,-2.427575 -25.11471,-6.722289 -37.8086,-6.08789 -5.71252,-0.902232 -11.01551,-4.090881 -16.88086,-3.982422 z"
     id="path6072"
     inkscape:connector-curvature="0" />
  <path
     d="m 211.39238,60.065262 c -3.6193,0.112319 -7.51715,1.449327 -11.9375,4.9375 -10.82696,-4.1763 -21.32709,-5.627189 -30.71875,2.875 -14.49386,-1.880758 -19.21029,2.000744 -22.78125,6.53125 -3.18255,-0.06587 -23.81885,-3.27207 -33.28125,10.84375 -23.781648,-2.813421 -31.296778,13.987875 -22.78125,29.656248 -4.856911,7.51896 -9.889503,14.94723 1.46875,29.28125 -4.018006,7.98352 -1.527431,16.64403 7.9375,27.125 -2.497857,11.2226 2.41208,19.14086 11.21875,25.3125 -1.64709,15.35756 14.0835,24.28743 18.78125,27.46875 1.80368,8.94868 5.56291,17.3927 23.53125,22.0625 2.96323,13.3361 13.76206,15.63906 24.21875,18.4375 -34.56193,20.08954 -64.20067,46.52266 -64,111.375 l -5.0625,9.03125 c -39.630868,24.10229 -75.285297,101.56626 -19.53125,164.53125 3.641871,19.70838 9.749589,33.86396 15.1875,49.53125 8.13383,63.13058 61.21763,92.69161 75.21875,96.1875 20.51653,15.62812 42.36818,30.45672 71.9375,40.84375 27.87515,28.74946 58.07388,39.7064 88.4375,39.6875 0.44515,-2.8e-4 0.89853,0.005 1.34375,0 30.36363,0.0189 60.56235,-10.93804 88.4375,-39.6875 29.56932,-10.38703 51.42097,-25.21563 71.9375,-40.84375 14.00112,-3.49589 67.08492,-33.05692 75.21875,-96.1875 5.43791,-15.66729 11.54562,-29.82287 15.1875,-49.53125 55.75404,-62.96499 20.09961,-140.42896 -19.53125,-164.53125 l -5.0625,-9.03125 c 0.20067,-64.85234 -29.43807,-91.28546 -64,-111.375 10.45669,-2.79844 21.25552,-5.1014 24.21875,-18.4375 17.96834,-4.6698 21.72758,-13.11382 23.53125,-22.0625 4.69775,-3.18132 20.42834,-12.11119 18.78125,-27.46875 8.80668,-6.17164 13.71661,-14.0899 11.21875,-25.3125 9.46494,-10.48097 11.9555,-19.14149 7.9375,-27.125 11.35825,-14.33402 6.32566,-21.76229 1.46875,-29.28125 8.51553,-15.668373 1.0004,-32.469669 -22.78125,-29.656248 -9.4624,-14.11582 -30.0987,-10.909615 -33.28125,-10.84375 -3.57096,-4.530506 -8.28739,-8.412008 -22.78125,-6.53125 -9.39166,-8.502189 -19.89179,-7.0513 -30.71875,-2.875 -12.8592,-10.147413 -21.37226,-2.013296 -31.09375,1.0625 -15.57385,-5.087778 -19.13302,1.880908 -26.78125,4.71875 -16.97525,-3.588076 -22.1356,4.223532 -30.28125,12.46875 l -9.46875,-0.1875 c -25.61054,15.093115 -38.33378,45.825498 -42.84375,61.624998 -4.51206,-15.80198 -17.20647,-46.53454 -42.8125,-61.624998 l -9.46875,0.1875 c -8.14565,-8.245218 -13.306,-16.056827 -30.28125,-12.46875 -7.64823,-2.837842 -11.2074,-9.806527 -26.78125,-4.71875 -6.37973,-2.018491 -12.24667,-6.214428 -19.15625,-6 z"
     style="fill:#000000"
     id="path5491"
     inkscape:connector-curvature="0" />
  <path
     d="m 160.40922,126.46459 c 67.94767,35.03136 107.44689,63.36897 129.08717,87.50447 -11.08235,44.41759 -68.89638,46.44464 -90.03559,45.19858 4.32842,-2.01474 7.93988,-4.42778 9.22051,-8.13574 -5.30449,-3.76981 -24.11289,-0.39719 -37.24363,-7.77416 5.04407,-1.04499 7.40348,-2.06302 9.76289,-5.78542 -12.40571,-3.9567 -25.76862,-7.36642 -33.62775,-13.92116 4.24126,0.0524 8.20116,0.9488 13.74037,-2.89271 -11.11169,-5.98819 -22.96911,-10.73351 -32.18139,-19.88738 5.74521,-0.14063 11.93945,-0.0568 13.74037,-2.16953 -10.17044,-6.30068 -18.75124,-13.30787 -25.85359,-20.97215 8.03998,0.97052 11.43528,0.13478 13.37878,-1.26556 -7.68779,-7.87419 -17.41756,-14.52319 -22.05691,-24.22644 5.96961,2.05749 11.43125,2.84506 15.36752,-0.18079 -2.61237,-5.89346 -13.80541,-9.36962 -20.24897,-23.14168 6.28436,0.60938 12.94961,1.37111 14.28276,0 -2.92231,-11.88856 -7.92746,-18.57002 -12.8364,-25.492 13.45004,-0.19973 33.82775,0.0524 32.90457,-1.08477 l -8.31654,-8.497333 c 13.13762,-3.537241 26.58065,0.568164 36.33966,3.615887 4.38186,-3.457681 -0.0776,-7.82998 -5.42383,-12.294015 11.16496,1.490646 21.25382,4.057389 30.37345,7.593362 4.87238,-4.399329 -3.16389,-8.798658 -7.05098,-13.197987 17.24936,3.272568 24.55716,7.87068 31.81981,12.47481 5.26935,-5.050799 0.30166,-9.343299 -3.2543,-13.740371 13.00566,4.817048 19.70478,11.035551 26.75756,17.175463 2.39119,-3.227053 6.07494,-5.592408 1.62715,-13.378781 9.23416,5.322725 16.18926,11.59506 21.33374,18.621815 5.71336,-3.637939 3.40387,-8.613021 3.43509,-13.197985 9.59665,7.806516 15.68687,16.113945 23.14168,24.226445 1.50169,-1.09344 2.81661,-4.80171 3.97747,-10.66687 22.89539,22.21182 55.24591,78.15824 8.31654,100.34086 -39.91877,-32.94716 -87.61613,-56.88753 -140.47721,-74.84886 z"
     style="fill:#75a928"
     id="path5493"
     inkscape:connector-curvature="0" />
  <path
     d="m 520.94225,126.46459 c -67.94767,35.03136 -107.44689,63.36897 -129.08717,87.50447 11.08235,44.41759 68.89638,46.44464 90.03559,45.19858 -4.32842,-2.01474 -7.93988,-4.42778 -9.22051,-8.13574 5.30449,-3.76981 24.11289,-0.39719 37.24363,-7.77416 -5.04407,-1.04499 -7.40348,-2.06302 -9.76289,-5.78542 12.40571,-3.9567 25.76862,-7.36642 33.62775,-13.92116 -4.24126,0.0524 -8.20116,0.9488 -13.74037,-2.89271 11.11169,-5.98819 22.96911,-10.73351 32.18139,-19.88738 -5.74521,-0.14063 -11.93945,-0.0568 -13.74037,-2.16953 10.17044,-6.30068 18.75124,-13.30787 25.85359,-20.97215 -8.03998,0.97052 -11.43528,0.13478 -13.37878,-1.26556 7.68779,-7.87419 17.41756,-14.52319 22.05691,-24.22644 -5.96961,2.05749 -11.43125,2.84506 -15.36752,-0.18079 2.61237,-5.89346 13.80541,-9.36962 20.24897,-23.14168 -6.28436,0.60938 -12.94961,1.37111 -14.28276,0 2.92231,-11.88856 7.92746,-18.57002 12.8364,-25.492 -13.45004,-0.19973 -33.82775,0.0524 -32.90457,-1.08477 l 8.31654,-8.497333 c -13.13762,-3.537241 -26.58065,0.568164 -36.33966,3.615887 -4.38186,-3.457681 0.0776,-7.82998 5.42383,-12.294015 -11.16496,1.490646 -21.25382,4.057389 -30.37345,7.593362 -4.87238,-4.399329 3.16389,-8.798658 7.05098,-13.197987 -17.24936,3.272568 -24.55716,7.87068 -31.81981,12.47481 -5.26935,-5.050799 -0.30166,-9.343299 3.2543,-13.740371 -13.00566,4.817048 -19.70478,11.035551 -26.75756,17.175463 -2.39119,-3.227053 -6.07494,-5.592408 -1.62715,-13.378781 -9.23416,5.322725 -16.18926,11.59506 -21.33374,18.621815 -5.71336,-3.637939 -3.40387,-8.613021 -3.43509,-13.197985 -9.59665,7.806516 -15.68687,16.113945 -23.14168,24.226445 -1.50169,-1.09344 -2.81661,-4.80171 -3.97747,-10.66687 -22.89539,22.21182 -55.24591,78.15824 -8.31654,100.34086 39.91877,-32.94716 87.61613,-56.88753 140.47721,-74.84886 z"
     style="fill:#75a928"
     id="path5495"
     inkscape:connector-curvature="0" />
  <path
     d="m 422.96372,578.77005 a 81.390111,75.051762 0 1 1 -162.78022,0 81.390111,75.051762 0 1 1 162.78022,0 z"
     style="fill:#bc1142;stroke-width:1.12957728"
     id="path5497"
     inkscape:connector-curvature="0" />
  <path
     d="M 294.4714,364.37144 A 72.998839,86.129674 34.034226 1 1 199.50356,508.0837 72.998839,86.129674 34.034226 1 1 294.4714,364.37144 Z"
     style="fill:#bc1142;stroke-width:1.90077412"
     id="path5499"
     inkscape:connector-curvature="0" />
  <path
     d="M 385.50358,360.37144 A 86.129674,72.998839 55.965774 1 0 480.47142,504.0837 86.129674,72.998839 55.965774 1 0 385.50358,360.37144 Z"
     style="fill:#bc1142;stroke-width:1.90077412"
     id="path5501"
     inkscape:connector-curvature="0" />
  <path
     d="m 125.92763,400.49681 c 36.41422,-9.75692 12.29159,150.63651 -17.33338,137.47577 C 76.007483,511.7599 65.511181,434.99715 125.92763,400.49681 Z"
     style="fill:#bc1142"
     id="path5503"
     inkscape:connector-curvature="0" />
  <path
     d="m 546.69566,398.49681 c -36.41422,-9.75692 -12.2916,150.63651 17.33338,137.47577 32.58677,-26.21268 43.08307,-102.97543 -17.33338,-137.47577 z"
     style="fill:#bc1142"
     id="path5505"
     inkscape:connector-curvature="0" />
  <path
     d="M 422.98896,279.06241 C 485.82382,268.45228 538.1049,305.7847 536.00034,373.92037 533.93341,400.04149 399.84162,282.9513 422.98896,279.06241 Z"
     style="fill:#bc1142"
     id="path5507"
     inkscape:connector-curvature="0" />
  <path
     d="m 249.37713,277.06241 c -62.83486,-10.61013 -115.11594,26.72229 -113.01138,94.85796 2.06693,26.12112 136.15872,-90.96907 113.01138,-94.85796 z"
     style="fill:#bc1142"
     id="path5509"
     inkscape:connector-curvature="0" />
  <path
     d="m 339.6367,261.16469 c -37.50259,-0.97548 -73.49548,27.83418 -73.58158,44.54443 -0.10462,20.30426 29.6512,41.09266 73.83726,41.62035 45.12305,0.32321 73.91561,-16.64049 74.0611,-37.59409 0.16484,-23.73996 -41.03879,-48.93744 -74.31678,-48.57069 z"
     style="fill:#bc1142"
     id="path5511"
     inkscape:connector-curvature="0" />
  <path
     d="m 341.92675,677.52576 c 32.69744,-1.42711 76.57083,10.53196 76.6568,26.39598 0.5427,15.4052 -39.78969,50.21055 -78.82634,49.53765 -40.42729,1.74391 -80.06908,-33.11559 -79.54951,-45.19859 -0.60506,-17.71593 49.226,-31.54796 81.71905,-30.73504 z"
     style="fill:#bc1142"
     id="path5513"
     inkscape:connector-curvature="0" />
  <path
     d="m 221.15612,583.5127 c 23.2791,28.04573 33.89066,77.31899 14.46355,91.84353 -18.37917,11.08784 -63.01228,6.52162 -94.73624,-39.05157 -21.39505,-38.24168 -18.63758,-77.15663 -3.61588,-88.58924 22.46442,-13.68429 57.17342,4.79902 83.88857,35.79728 z"
     style="fill:#bc1142"
     id="path5515"
     inkscape:connector-curvature="0" />
  <path
     d="m 458.03828,574.62078 c -25.18682,29.50165 -39.21227,83.30951 -20.83785,100.6428 17.56828,13.46361 64.7292,11.58162 99.56566,-36.75574 25.29599,-32.46471 16.82013,-86.68225 2.37077,-101.07511 -21.46408,-16.60213 -52.27691,4.64489 -81.09858,37.18805 z"
     style="fill:#bc1142"
     id="path5517"
     inkscape:connector-curvature="0" />
</svg>
