<?xml version="1.0" encoding="UTF-8" standalone="no"?>
<svg
   xmlns:dc="http://purl.org/dc/elements/1.1/"
   xmlns:cc="http://creativecommons.org/ns#"
   xmlns:rdf="http://www.w3.org/1999/02/22-rdf-syntax-ns#"
   xmlns:svg="http://www.w3.org/2000/svg"
   xmlns="http://www.w3.org/2000/svg"
   xmlns:sodipodi="http://sodipodi.sourceforge.net/DTD/sodipodi-0.dtd"
   xmlns:inkscape="http://www.inkscape.org/namespaces/inkscape"
   width="112.23082"
   height="113.3495"
   version="1.1"
   id="svg4574"
   sodipodi:docname="vim.svg"
   inkscape:version="0.92.4 5da689c313, 2019-01-14">
  <defs
     id="defs4578" />
  <sodipodi:namedview
     pagecolor="#ffffff"
     bordercolor="#666666"
     borderopacity="1"
     objecttolerance="10"
     gridtolerance="10"
     guidetolerance="10"
     inkscape:pageopacity="0"
     inkscape:pageshadow="2"
     inkscape:window-width="1920"
     inkscape:window-height="1023"
     id="namedview4576"
     showgrid="false"
     inkscape:zoom="1.2250921"
     inkscape:cx="42.143383"
     inkscape:cy="298.64679"
     inkscape:window-x="0"
     inkscape:window-y="0"
     inkscape:window-maximized="1"
     inkscape:current-layer="svg4574"
     fit-margin-top="0"
     fit-margin-left="0"
     fit-margin-right="0"
     fit-margin-bottom="0" />
  <metadata
     id="metadata7">
    <rdf:RDF>
      <cc:Work
         rdf:about="">
        <dc:format>image/svg+xml</dc:format>
        <dc:type
           rdf:resource="http://purl.org/dc/dcmitype/StillImage" />
        <dc:title></dc:title>
      </cc:Work>
    </rdf:RDF>
  </metadata>
  <path
     style="fill:none;stroke:#000000;stroke-width:0.20488337;stroke-opacity:1"
     d="m 56.244283,0.10350686 c -2.06351,1.80960004 -3.67683,4.11364004 -5.95843,5.67671004 -2.544731,-1.41956 -5.466294,-0.29328 -8.203335,-0.64186 -10.338004,0.0224 -20.724534,-0.0448 -31.032228,0.0336 -1.3891058,2.13341 -4.2220718,3.51757 -4.3805828,6.3033701 0.02266,3.08353 -0.04515,6.2123 0.03361,9.26777 1.958081,1.48698 3.271442,4.22388 6.0032428,4.36778 -0.329111,6.22513 0.149868,12.48408 -0.218488,18.71722 -4.1343338,4.25414 -8.5601688,8.29146 -12.3854408,12.7948 0.01296,2.57602 2.603887,3.94275 4.061253,5.71313 2.769192,2.8773 5.638383,5.65559 8.4474378,8.49305 0.02698,9.56878 -0.05393,19.20827 0.04042,28.7329 2.805675,1.233593 5.30481,3.918003 8.569886,3.510623 3.343627,0 6.687254,0 10.030883,0 2.240615,-2.29576 4.481474,-4.591283 6.721935,-6.887203 5.889403,5.645303 11.272722,11.848943 17.549147,17.044143 2.17293,0.2416 3.30279,-2.05541 4.77794,-3.22852 2.91935,-2.79676 5.61174,-5.82905 8.66432,-8.48625 1.51565,0.10709 2.85137,-0.84005 3.81996,-1.914383 1.33659,2.190403 4.25873,1.864163 6.46543,1.807143 2.5563,-0.17096 5.70141,0.67044 7.65031,-1.502623 1.25306,1.217543 2.96826,1.701883 4.6859,1.557553 3.17315,-0.3465 6.57077,0.69562 9.463457,-0.92769 1.93156,-1.484233 2.74332,-4.613403 1.40057,-6.717933 -0.89747,-0.6935 -0.0155,-1.69861 0.11974,-2.51665 1.35427,-4.60711 3.32616,-9.10057 3.72182,-13.87602 -0.67779,-1.92298 -2.18661,-3.34704 -3.4498,-4.87919 -1.69136,0 -3.382707,0 -5.074067,0 4.758647,-4.94919 9.942387,-9.53745 14.336637,-14.80482 0.28234,-2.30577 -2.13635,-3.57645 -3.40777,-5.1269 -4.71822,-4.85104 -9.542247,-9.60201 -14.317437,-14.40185 5.857597,-5.99909 11.715157,-11.99822 17.572747,-17.99732 -0.014,-3.45304 0.0659,-6.95338 -0.006,-10.3770301 -1.97651,-1.42794 -3.18012,-4.2225 -5.83197,-4.49383 -12.526557,0 -25.053127,0 -37.579687,0 -1.03493,1.31223 -2.52662,2.15259 -3.62988,3.39939 -2.88678,-2.8741 -5.77457,-5.79419 -8.66113,-8.63912004 z"
     id="path5125"
     inkscape:connector-curvature="0" />
  <g
     id="layer1"
     transform="matrix(0.20488337,0,0,0.20488337,-13.814737,-31.371073)">
    <g
       id="g3699"
       transform="matrix(1.532388,0,0,1.3939671,-54.912136,-41.792396)">
      <path
         id="path2836"
         d="M 260.50744,170.69515 105.98412,340.79094 259.8636,510.178 414.38691,340.08221 Z"
         style="fill:#019833;fill-opacity:1;stroke:#000000;stroke-width:0.94571567px;stroke-linecap:butt;stroke-linejoin:miter;stroke-opacity:1"
         inkscape:connector-curvature="0" />
      <path
         id="path2838"
         d="M 259.8636,171.40389 V 156.52051 L 91.819492,341.49967 h 14.164628 z"
         style="fill:#66fe98;fill-opacity:1;stroke:#000000;stroke-width:0.94571567px;stroke-linecap:butt;stroke-linejoin:miter;stroke-opacity:1"
         inkscape:connector-curvature="0" />
      <path
         style="fill:#45fe02;fill-opacity:1;stroke:#000000;stroke-width:0.94571567px;stroke-linecap:butt;stroke-linejoin:miter;stroke-opacity:1"
         d="m 259.47729,171.40389 v -14.88338 l 168.0441,184.97916 h -14.16463 z"
         id="path2840"
         inkscape:connector-curvature="0" />
      <path
         style="fill:#017d17;fill-opacity:1;stroke:#000000;stroke-width:0.94571567px;stroke-linecap:butt;stroke-linejoin:miter;stroke-opacity:1"
         d="M 259.8636,511.17022 V 526.0536 L 91.819492,341.07444 h 14.164628 z"
         id="path2842"
         inkscape:connector-curvature="0" />
      <path
         id="path3650"
         d="m 122.99448,175.30643 h 108.35396 l 6.60139,7.26665 v 22.30116 l -5.23559,7.01608 H 220.87725 V 322.64438 L 322.85744,211.89032 H 306.0125 l -5.9185,-7.01608 v -23.55403 l 5.46323,-5.51264 h 109.71976 l 5.46322,6.01379 v 22.05058 L 172.61878,484.01452 H 144.39212 L 136.22179,478.822 V 210.88803 h -13.68257 l -5.00795,-5.51264 v -23.55403 z"
         style="fill:none;stroke:#000000;stroke-width:18.91431427;stroke-linecap:butt;stroke-linejoin:miter;stroke-miterlimit:4;stroke-dasharray:none;stroke-opacity:1"
         inkscape:connector-curvature="0" />
      <path
         id="path2844"
         d="M 259.47729,511.17022 V 526.0536 L 427.52139,341.07444 H 413.35676 Z"
         style="fill:#005d04;fill-opacity:1;stroke:#000000;stroke-width:0.94571567px;stroke-linecap:butt;stroke-linejoin:miter;stroke-opacity:1"
         inkscape:connector-curvature="0" />
      <path
         style="fill:none;stroke:#000000;stroke-width:5.67429399;stroke-linecap:butt;stroke-linejoin:miter;stroke-miterlimit:4;stroke-dasharray:none;stroke-opacity:1"
         d="M 259.41018,155.14848 90.734026,340.82339 258.70737,525.72467 427.38353,340.04975 Z"
         id="path2846"
         inkscape:connector-curvature="0" />
      <path
         id="path3640"
         d="m 232.50008,186.64163 6.11655,-3.54366 -6.27751,-6.91014 H 123.04607 l -5.55319,6.11281 v 23.1224 l 6.15679,6.77725 2.93756,-6.77725 -3.86308,-4.2524 v -16.30085 l 2.89731,-2.83492 H 229.9247 Z"
         style="fill:#fefefe;fill-opacity:1;stroke:#000000;stroke-width:0.94571567px;stroke-linecap:butt;stroke-linejoin:miter;stroke-opacity:1"
         inkscape:connector-curvature="0" />
      <path
         transform="matrix(0.90138601,0,0,0.99222542,-437.42287,-185.30615)"
         d="m 828.9375,369.5 -4.28125,4.28125 V 389.5 l 3.75,3.75 h 19.8125 v 15.1875 L 717.15625,541.28125 V 393.4375 h 21.78125 l 4.46875,-4.46875 V 373.0625 l -4.125,-3.1875 h -114.625 l -3.75,3.75 v 16.25 l 3.8125,3.8125 h 19.9375 v 272.25 l 3.75,3.75 H 671.0625 L 945.71875,386.28125 v -12.5 L 941.4375,369.5 Z"
         id="path3632"
         style="fill:none;stroke:#000000;stroke-width:1px;stroke-linecap:butt;stroke-linejoin:miter;stroke-opacity:1"
         inkscape:connector-curvature="0" />
      <path
         id="path3646"
         d="m 143.48158,204.87424 v 270.62073 l 3.18688,4.0092 -2.49916,5.24301 -7.06148,-7.74876 v -265.1081 z"
         style="fill:#fefefe;fill-opacity:1;stroke:#000000;stroke-width:0.94571567px;stroke-linecap:butt;stroke-linejoin:miter;stroke-opacity:1"
         inkscape:connector-curvature="0" />
      <path
         id="path3644"
         d="m 125.82451,204.87424 -1.82108,6.51494 h 13.2028 l 7.2843,-6.51494 z"
         style="fill:#808080;fill-opacity:1;stroke:#000000;stroke-width:0.94571567px;stroke-linecap:butt;stroke-linejoin:miter;stroke-opacity:1"
         inkscape:connector-curvature="0" />
      <path
         id="path3638"
         d="m 307.18636,212.19144 2.89731,-6.55577 -4.18501,-4.2524 v -14.52901 l 4.82886,-5.31551 H 411.4896 l 3.86308,5.66987 5.4727,-4.2524 -5.63366,-6.20141 H 306.86443 l -5.39221,5.93564 v 23.29957 l 5.59342,5.80276 m -87.54309,111.87785 -10.52288,28.10566 118.7898,-131.1155 v -15.59211 z"
         style="fill:#fefefe;fill-opacity:1;stroke:#000000;stroke-width:0.94571567px;stroke-linecap:butt;stroke-linejoin:miter;stroke-opacity:1"
         inkscape:connector-curvature="0" />
      <path
         id="path3642"
         d="m 232.25896,185.83056 5.2356,-3.75862 v 22.8023 l -6.03231,6.64023 h -11.72317 v 112.38277 l -10.69882,27.81381 V 204.87424 h 19.57656 l 3.64214,-3.25747 z"
         style="fill:#808080;fill-opacity:1;stroke:#000000;stroke-width:0.94571567px;stroke-linecap:butt;stroke-linejoin:miter;stroke-opacity:1"
         inkscape:connector-curvature="0" />
      <path
         transform="matrix(0.90138601,0,0,0.99222542,-437.42287,-185.30615)"
         d="m 828.9375,369.5 -4.28125,4.28125 V 389.5 l 3.75,3.75 h 19.8125 v 15.1875 L 717.15625,541.28125 V 393.4375 h 21.78125 l 4.46875,-4.46875 V 373.0625 l -4.125,-3.1875 h -114.625 l -3.75,3.75 v 16.25 l 3.8125,3.8125 h 19.9375 v 272.25 l 3.75,3.75 H 671.0625 L 945.71875,386.28125 v -12.5 L 941.4375,369.5 Z"
         id="path3622"
         style="fill:#cccccc;fill-opacity:1;stroke:#000000;stroke-width:1px;stroke-linecap:butt;stroke-linejoin:miter;stroke-opacity:1"
         inkscape:connector-curvature="0" />
      <path
         id="path3636"
         d="m 415.35268,185.9329 5.49849,-3.49448 v 21.92152 L 171.46006,484.88124 H 144.9826 l 2.52966,-5.5331 h 20.28119 L 415.03076,198.33573 Z"
         style="fill:#808080;fill-opacity:1;stroke:#000000;stroke-width:0.94571567px;stroke-linecap:butt;stroke-linejoin:miter;stroke-opacity:1"
         inkscape:connector-curvature="0" />
      <path
         id="path3652"
         d="m 327.29631,205.25009 -5.57703,6.38966 h -14.56861 l 3.41452,-6.38966 c 0.11382,0 16.73112,0 16.73112,0 z"
         style="fill:#808080;fill-opacity:1;stroke:#000000;stroke-width:0.94571567px;stroke-linecap:butt;stroke-linejoin:miter;stroke-opacity:1"
         inkscape:connector-curvature="0" />
      <g
         transform="matrix(0.90138601,0,0,0.99222542,-92.530288,-192.23791)"
         id="g3673">
        <path
           style="fill:#cccccc;fill-opacity:1;stroke:#000000;stroke-width:8;stroke-linecap:butt;stroke-linejoin:miter;stroke-miterlimit:10;stroke-dasharray:none;stroke-opacity:1"
           id="path3671"
           d="m 399.78125,560 a 1.2330102,1.2330102 0 0 0 -0.5625,0.28125 l -5.3125,4.5625 A 1.2330102,1.2330102 0 0 0 393.5625,565.375 L 388.25,580.25 a 1.2330102,1.2330102 0 0 0 0.28125,1.28125 l 4.0625,4.0625 a 1.2330102,1.2330102 0 0 0 0.875,0.34375 H 409.875 a 1.2330102,1.2330102 0 0 0 0.875,-0.34375 l 4.28125,-4.3125 a 1.2330102,1.2330102 0 0 0 0.3125,-0.53125 l 4.5625,-15.65625 a 1.2330102,1.2330102 0 0 0 -0.3125,-1.21875 l -3.53125,-3.53125 A 1.2330102,1.2330102 0 0 0 415.1875,560 h -15.15625 a 1.2330102,1.2330102 0 0 0 -0.25,0 z m -30.0625,41.9375 a 1.2330102,1.2330102 0 0 0 -0.9375,0.90625 l -2.03125,8.0625 a 1.2330102,1.2330102 0 0 0 1.1875,1.53125 h 9.65625 l -23.9375,68.34375 a 1.2330102,1.2330102 0 0 0 1.15625,1.625 h 34.84375 a 1.2330102,1.2330102 0 0 0 1.1875,-0.84375 l 2.28125,-7.34375 a 1.2330102,1.2330102 0 0 0 -1.1875,-1.59375 h -7.875 L 407.75,603.5625 a 1.2330102,1.2330102 0 0 0 -1.15625,-1.625 h -36.625 a 1.2330102,1.2330102 0 0 0 -0.25,0 z m 110.875,0.25 a 1.2330102,1.2330102 0 0 0 -0.6875,0.40625 l -7.25,8.1875 H 461.125 l -7.6875,-7.96875 a 1.2330102,1.2330102 0 0 0 -0.875,-0.375 H 425.03125 A 1.2330102,1.2330102 0 0 0 423.875,603.25 l -2.53125,7.5625 a 1.2330102,1.2330102 0 0 0 1.15625,1.625 h 7.375 l -22.9375,67.59375 a 1.2330102,1.2330102 0 0 0 1.15625,1.625 h 29.3125 a 1.2330102,1.2330102 0 0 0 1.15625,-0.8125 l 2.25,-6.59375 a 1.2330102,1.2330102 0 0 0 -1.15625,-1.625 h -5.125 l 14.625,-46.03125 H 475.625 l -16.6875,53.46875 a 1.2330102,1.2330102 0 0 0 1.1875,1.59375 h 28.28125 a 1.2330102,1.2330102 0 0 0 1.125,-0.75 l 2.53125,-6.0625 a 1.2330102,1.2330102 0 0 0 -1.125,-1.6875 h -5.125 l 14.875,-46.8125 h 25.1875 l -16.9375,53.71875 a 1.2330102,1.2330102 0 0 0 1.1875,1.59375 h 31.0625 a 1.2330102,1.2330102 0 0 0 1.15625,-0.78125 l 2.53125,-6.59375 a 1.2330102,1.2330102 0 0 0 -1.15625,-1.65625 h -6.15625 l 18.71875,-60.78125 a 1.2330102,1.2330102 0 0 0 -0.1875,-1.125 l -5.8125,-7.8125 a 1.2330102,1.2330102 0 0 0 -1,-0.46875 H 527.0625 a 1.2330102,1.2330102 0 0 0 -0.90625,0.375 l -7,7.6875 h -12.25 l -7.25,-7.9375 a 1.2330102,1.2330102 0 0 0 -0.90625,-0.375 h -17.90625 a 1.2330102,1.2330102 0 0 0 -0.25,0 z"
           inkscape:connector-curvature="0" />
        <path
           d="m 400.03125,561.21875 -5.3125,4.5625 -5.3125,14.875 4.0625,4.0625 H 409.875 l 4.28125,-4.3125 4.5625,-15.65625 -3.53125,-3.53125 z m -30.0625,41.9375 -2.03125,8.0625 h 11.375 l -24.5,69.96875 h 34.84375 l 2.28125,-7.34375 h -9.59375 l 24.25,-70.6875 z m 110.875,0.25 L 473.25,612 h -12.625 l -8.0625,-8.34375 h -27.53125 l -2.53125,7.5625 h 9.09375 l -23.5,69.21875 h 29.3125 l 2.25,-6.59375 h -6.8125 L 448.25,625.375 h 29.0625 l -17.1875,55.0625 h 28.28125 l 2.53125,-6.0625 h -6.8125 l 15.65625,-49.25 h 27.78125 l -17.4375,55.3125 h 31.0625 l 2.53125,-6.59375 H 535.875 l 19.21875,-62.375 -5.8125,-7.8125 H 527.0625 l -7.34375,8.0625 h -13.375 l -7.59375,-8.3125 z"
           id="path3665"
           style="fill:#cccccc;fill-opacity:1;stroke:#000000;stroke-width:1;stroke-linecap:butt;stroke-linejoin:miter;stroke-miterlimit:10;stroke-dasharray:none;stroke-opacity:1"
           inkscape:connector-curvature="0" />
      </g>
    </g>
  </g>
</svg>
